%FSLAX44Y44*%
%MOMM*%
G71*
G01*
G75*
G04 Layer_Physical_Order=2*
G04 Layer_Color=16711680*
%ADD10R,0.8000X0.3250*%
%ADD11R,0.3250X0.8000*%
%ADD12R,2.8000X2.8000*%
%ADD13O,0.3500X1.7000*%
%ADD14R,1.4000X1.0000*%
%ADD15C,0.3000*%
%ADD16C,0.4000*%
%ADD17C,0.6000*%
%ADD18C,0.2500*%
%ADD19C,0.5000*%
%ADD20C,1.0000*%
%ADD21C,0.2032*%
%ADD22C,1.8000*%
%ADD23O,1.8000X2.2000*%
%ADD24R,2.5400X1.2700*%
%ADD25O,2.5400X1.2700*%
%ADD26C,1.2000*%
%ADD27C,1.5000*%
%ADD28C,1.3000*%
%ADD29R,1.5000X1.5000*%
%ADD30C,1.6500*%
%ADD31R,1.6500X1.6500*%
%ADD32C,0.7000*%
%ADD33C,0.6600*%
%ADD34R,1.5000X1.3000*%
%ADD35R,0.6500X2.1000*%
%ADD36R,1.3000X1.5000*%
%ADD37R,1.6000X1.3000*%
%ADD38R,1.3000X1.6000*%
%ADD39C,0.2540*%
G36*
X909518Y905086D02*
X908248Y904408D01*
X906874Y905325D01*
X905788Y905541D01*
Y899636D01*
Y893730D01*
X906874Y893946D01*
X908248Y894864D01*
X909518Y894185D01*
Y889636D01*
X781050D01*
Y910596D01*
Y933096D01*
X794795D01*
Y956171D01*
X746728D01*
Y933096D01*
X747978D01*
Y910596D01*
Y889636D01*
X400768D01*
Y1302136D01*
X909518D01*
Y905086D01*
D02*
G37*
%LPC*%
G36*
X420748Y993041D02*
X419661Y992825D01*
X417663Y991490D01*
X416328Y989492D01*
X416112Y988406D01*
X420748D01*
Y993041D01*
D02*
G37*
G36*
X584998Y999676D02*
X577228D01*
Y990906D01*
X584998D01*
Y999676D01*
D02*
G37*
G36*
X423288Y993041D02*
Y988406D01*
X427924D01*
X427707Y989492D01*
X426372Y991490D01*
X424374Y992825D01*
X423288Y993041D01*
D02*
G37*
G36*
X461673Y990866D02*
X457038D01*
Y986230D01*
X458124Y986446D01*
X460122Y987781D01*
X461457Y989779D01*
X461673Y990866D01*
D02*
G37*
G36*
X420748Y985866D02*
X416112D01*
X416328Y984779D01*
X417663Y982781D01*
X419661Y981446D01*
X420748Y981230D01*
Y985866D01*
D02*
G37*
G36*
X427924D02*
X423288D01*
Y981230D01*
X424374Y981446D01*
X426372Y982781D01*
X427707Y984779D01*
X427924Y985866D01*
D02*
G37*
G36*
X454498Y990866D02*
X449862D01*
X450078Y989779D01*
X451413Y987781D01*
X453411Y986446D01*
X454498Y986230D01*
Y990866D01*
D02*
G37*
G36*
X718998Y999676D02*
X711228D01*
Y990906D01*
X718998D01*
Y999676D01*
D02*
G37*
G36*
X647248Y1012366D02*
X642816D01*
X643017Y1011357D01*
X644307Y1009425D01*
X646239Y1008135D01*
X647248Y1007934D01*
Y1012366D01*
D02*
G37*
G36*
X882924Y1007116D02*
X878288D01*
Y1002480D01*
X879374Y1002696D01*
X881372Y1004031D01*
X882707Y1006029D01*
X882924Y1007116D01*
D02*
G37*
G36*
X875748Y1014291D02*
X874661Y1014075D01*
X872663Y1012740D01*
X871328Y1010742D01*
X871112Y1009656D01*
X875748D01*
Y1014291D01*
D02*
G37*
G36*
X666219Y1012366D02*
X661788D01*
Y1007934D01*
X662796Y1008135D01*
X664728Y1009425D01*
X666019Y1011357D01*
X666219Y1012366D01*
D02*
G37*
G36*
X454498Y998041D02*
X453411Y997825D01*
X451413Y996490D01*
X450078Y994492D01*
X449862Y993406D01*
X454498D01*
Y998041D01*
D02*
G37*
G36*
X729308Y999676D02*
X721538D01*
Y990906D01*
X729308D01*
Y999676D01*
D02*
G37*
G36*
X875748Y1007116D02*
X871112D01*
X871328Y1006029D01*
X872663Y1004031D01*
X874661Y1002696D01*
X875748Y1002480D01*
Y1007116D01*
D02*
G37*
G36*
X457038Y998041D02*
Y993406D01*
X461673D01*
X461457Y994492D01*
X460122Y996490D01*
X458124Y997825D01*
X457038Y998041D01*
D02*
G37*
G36*
X484498Y978366D02*
X479862D01*
X480078Y977279D01*
X481413Y975281D01*
X483411Y973946D01*
X484498Y973730D01*
Y978366D01*
D02*
G37*
G36*
X767038Y973041D02*
Y968406D01*
X771674D01*
X771457Y969492D01*
X770122Y971490D01*
X768124Y972825D01*
X767038Y973041D01*
D02*
G37*
G36*
X889498Y978366D02*
X884862D01*
X885078Y977279D01*
X886413Y975281D01*
X888411Y973946D01*
X889498Y973730D01*
Y978366D01*
D02*
G37*
G36*
X491674D02*
X487038D01*
Y973730D01*
X488124Y973946D01*
X490122Y975281D01*
X491457Y977279D01*
X491674Y978366D01*
D02*
G37*
G36*
X820748Y969291D02*
X819661Y969075D01*
X817663Y967740D01*
X816328Y965742D01*
X816112Y964656D01*
X820748D01*
Y969291D01*
D02*
G37*
G36*
X771674Y965866D02*
X767038D01*
Y961230D01*
X768124Y961446D01*
X770122Y962781D01*
X771457Y964779D01*
X771674Y965866D01*
D02*
G37*
G36*
X764498Y973041D02*
X763411Y972825D01*
X761413Y971490D01*
X760078Y969492D01*
X759862Y968406D01*
X764498D01*
Y973041D01*
D02*
G37*
G36*
X823288Y969291D02*
Y964656D01*
X827924D01*
X827707Y965742D01*
X826372Y967740D01*
X824374Y969075D01*
X823288Y969291D01*
D02*
G37*
G36*
X896674Y978366D02*
X892038D01*
Y973730D01*
X893124Y973946D01*
X895122Y975281D01*
X896457Y977279D01*
X896674Y978366D01*
D02*
G37*
G36*
X487038Y985541D02*
Y980906D01*
X491674D01*
X491457Y981992D01*
X490122Y983990D01*
X488124Y985325D01*
X487038Y985541D01*
D02*
G37*
G36*
X484498D02*
X483411Y985325D01*
X481413Y983990D01*
X480078Y981992D01*
X479862Y980906D01*
X484498D01*
Y985541D01*
D02*
G37*
G36*
X892038D02*
Y980906D01*
X896674D01*
X896457Y981992D01*
X895122Y983990D01*
X893124Y985325D01*
X892038Y985541D01*
D02*
G37*
G36*
X889498D02*
X888411Y985325D01*
X886413Y983990D01*
X885078Y981992D01*
X884862Y980906D01*
X889498D01*
Y985541D01*
D02*
G37*
G36*
X595308Y988366D02*
X587538D01*
Y979596D01*
X595308D01*
Y988366D01*
D02*
G37*
G36*
X584998D02*
X577228D01*
Y979596D01*
X584998D01*
Y988366D01*
D02*
G37*
G36*
X729308D02*
X721538D01*
Y979596D01*
X729308D01*
Y988366D01*
D02*
G37*
G36*
X718998D02*
X711228D01*
Y979596D01*
X718998D01*
Y988366D01*
D02*
G37*
G36*
X878288Y1014291D02*
Y1009656D01*
X882924D01*
X882707Y1010742D01*
X881372Y1012740D01*
X879374Y1014075D01*
X878288Y1014291D01*
D02*
G37*
G36*
X495748Y1077926D02*
X491228D01*
Y1066156D01*
X495748D01*
Y1077926D01*
D02*
G37*
G36*
X753288Y1063041D02*
Y1058406D01*
X757924D01*
X757707Y1059492D01*
X756372Y1061490D01*
X754374Y1062825D01*
X753288Y1063041D01*
D02*
G37*
G36*
X596248Y1075866D02*
X588478D01*
Y1067096D01*
X596248D01*
Y1075866D01*
D02*
G37*
G36*
X585424Y1070866D02*
X580788D01*
Y1066230D01*
X581875Y1066446D01*
X583872Y1067781D01*
X585207Y1069779D01*
X585424Y1070866D01*
D02*
G37*
G36*
X858208Y1073534D02*
X855663Y1073199D01*
X853291Y1072217D01*
X851254Y1070654D01*
X849691Y1068617D01*
X848709Y1066245D01*
X848374Y1063700D01*
X848709Y1061155D01*
X849691Y1058783D01*
X851254Y1056746D01*
X853291Y1055183D01*
X855663Y1054201D01*
X858208Y1053866D01*
X860753Y1054201D01*
X863125Y1055183D01*
X865162Y1056746D01*
X866725Y1058783D01*
X867707Y1061155D01*
X868042Y1063700D01*
X867707Y1066245D01*
X866725Y1068617D01*
X865162Y1070654D01*
X863125Y1072217D01*
X860753Y1073199D01*
X858208Y1073534D01*
D02*
G37*
G36*
X502808Y1063616D02*
X498288D01*
Y1051846D01*
X502808D01*
Y1063616D01*
D02*
G37*
G36*
X750748Y1063041D02*
X749661Y1062825D01*
X747663Y1061490D01*
X746328Y1059492D01*
X746112Y1058406D01*
X750748D01*
Y1063041D01*
D02*
G37*
G36*
X883608Y1073534D02*
X881063Y1073199D01*
X878691Y1072217D01*
X876654Y1070654D01*
X875091Y1068617D01*
X874109Y1066245D01*
X873774Y1063700D01*
X874109Y1061155D01*
X875091Y1058783D01*
X876654Y1056746D01*
X878691Y1055183D01*
X881063Y1054201D01*
X883608Y1053866D01*
X886153Y1054201D01*
X888525Y1055183D01*
X890562Y1056746D01*
X892125Y1058783D01*
X893107Y1061155D01*
X893442Y1063700D01*
X893107Y1066245D01*
X892125Y1068617D01*
X890562Y1070654D01*
X888525Y1072217D01*
X886153Y1073199D01*
X883608Y1073534D01*
D02*
G37*
G36*
X426408Y1098934D02*
X423863Y1098599D01*
X421491Y1097617D01*
X419454Y1096054D01*
X417891Y1094017D01*
X416909Y1091645D01*
X416574Y1089100D01*
X416909Y1086555D01*
X417891Y1084183D01*
X419454Y1082146D01*
X421491Y1080583D01*
X423863Y1079601D01*
X426408Y1079266D01*
X428953Y1079601D01*
X431325Y1080583D01*
X433362Y1082146D01*
X434925Y1084183D01*
X435907Y1086555D01*
X436242Y1089100D01*
X435907Y1091645D01*
X434925Y1094017D01*
X433362Y1096054D01*
X431325Y1097617D01*
X428953Y1098599D01*
X426408Y1098934D01*
D02*
G37*
G36*
X596248Y1087176D02*
X588478D01*
Y1078406D01*
X596248D01*
Y1087176D01*
D02*
G37*
G36*
X858208Y1098934D02*
X855663Y1098599D01*
X853291Y1097617D01*
X851254Y1096054D01*
X849691Y1094017D01*
X848709Y1091645D01*
X848374Y1089100D01*
X848709Y1086555D01*
X849691Y1084183D01*
X851254Y1082146D01*
X853291Y1080583D01*
X855663Y1079601D01*
X858208Y1079266D01*
X860753Y1079601D01*
X863125Y1080583D01*
X865162Y1082146D01*
X866725Y1084183D01*
X867707Y1086555D01*
X868042Y1089100D01*
X867707Y1091645D01*
X866725Y1094017D01*
X865162Y1096054D01*
X863125Y1097617D01*
X860753Y1098599D01*
X858208Y1098934D01*
D02*
G37*
G36*
X451808D02*
X449263Y1098599D01*
X446891Y1097617D01*
X444854Y1096054D01*
X443291Y1094017D01*
X442309Y1091645D01*
X441974Y1089100D01*
X442309Y1086555D01*
X443291Y1084183D01*
X444854Y1082146D01*
X446891Y1080583D01*
X449263Y1079601D01*
X451808Y1079266D01*
X454353Y1079601D01*
X456725Y1080583D01*
X458762Y1082146D01*
X460325Y1084183D01*
X461307Y1086555D01*
X461642Y1089100D01*
X461307Y1091645D01*
X460325Y1094017D01*
X458762Y1096054D01*
X456725Y1097617D01*
X454353Y1098599D01*
X451808Y1098934D01*
D02*
G37*
G36*
X708998Y1082116D02*
X701228D01*
Y1073346D01*
X708998D01*
Y1082116D01*
D02*
G37*
G36*
X606558Y1075866D02*
X598788D01*
Y1067096D01*
X606558D01*
Y1075866D01*
D02*
G37*
G36*
X660268Y1095636D02*
X641268D01*
Y1079636D01*
X642162D01*
X642761Y1078516D01*
X642578Y1078242D01*
X642362Y1077156D01*
X654173D01*
X653957Y1078242D01*
X653775Y1078516D01*
X654373Y1079636D01*
X660268D01*
Y1095636D01*
D02*
G37*
G36*
X580788Y1078041D02*
Y1073406D01*
X585424D01*
X585207Y1074492D01*
X583872Y1076490D01*
X581875Y1077825D01*
X580788Y1078041D01*
D02*
G37*
G36*
X495748Y1063616D02*
X491228D01*
Y1051846D01*
X495748D01*
Y1063616D01*
D02*
G37*
G36*
X858208Y1048134D02*
X855663Y1047799D01*
X853291Y1046817D01*
X851254Y1045254D01*
X849691Y1043217D01*
X848709Y1040845D01*
X848374Y1038300D01*
X848709Y1035755D01*
X849691Y1033383D01*
X851254Y1031346D01*
X853291Y1029783D01*
X855663Y1028801D01*
X858208Y1028466D01*
X860753Y1028801D01*
X863125Y1029783D01*
X865162Y1031346D01*
X866725Y1033383D01*
X867707Y1035755D01*
X868042Y1038300D01*
X867707Y1040845D01*
X866725Y1043217D01*
X865162Y1045254D01*
X863125Y1046817D01*
X860753Y1047799D01*
X858208Y1048134D01*
D02*
G37*
G36*
X659248Y1031338D02*
X658239Y1031137D01*
X656307Y1029846D01*
X655223Y1028224D01*
X654911Y1028143D01*
X654125D01*
X653812Y1028224D01*
X652728Y1029846D01*
X650796Y1031137D01*
X649788Y1031338D01*
Y1025636D01*
X648518D01*
Y1024366D01*
X642816D01*
X643017Y1023357D01*
X644307Y1021425D01*
X645930Y1020341D01*
X646010Y1020029D01*
Y1019243D01*
X645930Y1018930D01*
X644307Y1017846D01*
X643017Y1015914D01*
X642816Y1014906D01*
X648518D01*
Y1013636D01*
X649788D01*
Y1007934D01*
X650796Y1008135D01*
X652728Y1009425D01*
X653812Y1011048D01*
X654125Y1011128D01*
X654911D01*
X655223Y1011048D01*
X656307Y1009425D01*
X658239Y1008135D01*
X659248Y1007934D01*
Y1013636D01*
X660518D01*
Y1014906D01*
X666219D01*
X666019Y1015914D01*
X664728Y1017846D01*
X663106Y1018930D01*
X663025Y1019243D01*
Y1020029D01*
X663106Y1020341D01*
X664728Y1021425D01*
X666019Y1023357D01*
X666219Y1024366D01*
X660518D01*
Y1025636D01*
X659248D01*
Y1031338D01*
D02*
G37*
G36*
X686998Y1034291D02*
X685911Y1034075D01*
X683913Y1032740D01*
X682578Y1030742D01*
X682362Y1029656D01*
X686998D01*
Y1034291D01*
D02*
G37*
G36*
X883608Y1048134D02*
X881063Y1047799D01*
X878691Y1046817D01*
X876654Y1045254D01*
X875091Y1043217D01*
X874109Y1040845D01*
X873774Y1038300D01*
X874109Y1035755D01*
X875091Y1033383D01*
X876654Y1031346D01*
X878691Y1029783D01*
X881063Y1028801D01*
X883608Y1028466D01*
X886153Y1028801D01*
X888525Y1029783D01*
X890562Y1031346D01*
X892125Y1033383D01*
X893107Y1035755D01*
X893442Y1038300D01*
X893107Y1040845D01*
X892125Y1043217D01*
X890562Y1045254D01*
X888525Y1046817D01*
X886153Y1047799D01*
X883608Y1048134D01*
D02*
G37*
G36*
X694174Y1027116D02*
X689538D01*
Y1022480D01*
X690624Y1022696D01*
X692622Y1024031D01*
X693957Y1026029D01*
X694174Y1027116D01*
D02*
G37*
G36*
X686998D02*
X682362D01*
X682578Y1026029D01*
X683913Y1024031D01*
X685911Y1022696D01*
X686998Y1022480D01*
Y1027116D01*
D02*
G37*
G36*
X661788Y1031338D02*
Y1026906D01*
X666219D01*
X666019Y1027914D01*
X664728Y1029846D01*
X662796Y1031137D01*
X661788Y1031338D01*
D02*
G37*
G36*
X647248D02*
X646239Y1031137D01*
X644307Y1029846D01*
X643017Y1027914D01*
X642816Y1026906D01*
X647248D01*
Y1031338D01*
D02*
G37*
G36*
X426408Y1073534D02*
X423863Y1073199D01*
X421491Y1072217D01*
X419454Y1070654D01*
X417891Y1068617D01*
X416909Y1066245D01*
X416574Y1063700D01*
X416909Y1061155D01*
X417891Y1058783D01*
X419454Y1056746D01*
X421491Y1055183D01*
X423863Y1054201D01*
X426408Y1053866D01*
X428953Y1054201D01*
X431067Y1055076D01*
X436714Y1049429D01*
Y1042216D01*
X435444Y1041963D01*
X434925Y1043217D01*
X433362Y1045254D01*
X431325Y1046817D01*
X428953Y1047799D01*
X426408Y1048134D01*
X423863Y1047799D01*
X421491Y1046817D01*
X419454Y1045254D01*
X417891Y1043217D01*
X416909Y1040845D01*
X416574Y1038300D01*
X416909Y1035755D01*
X417891Y1033383D01*
X419454Y1031346D01*
X421491Y1029783D01*
X423604Y1028908D01*
Y1018996D01*
X423818Y1017923D01*
X424425Y1017013D01*
X438785Y1002653D01*
X439695Y1002045D01*
X440768Y1001832D01*
X475378D01*
X475913Y1001031D01*
X477567Y999926D01*
X479518Y999538D01*
X481088Y999850D01*
X496768Y984170D01*
Y971136D01*
X514768D01*
Y973467D01*
X515947Y973981D01*
X516714Y973361D01*
Y947136D01*
X516927Y946063D01*
X517535Y945153D01*
X526151Y936537D01*
X525900Y934992D01*
X524549Y933955D01*
X523106Y932075D01*
X522200Y929885D01*
X521890Y927536D01*
X522200Y925186D01*
X523106Y922997D01*
X524549Y921117D01*
X526429Y919674D01*
X528618Y918767D01*
X530968Y918458D01*
X533317Y918767D01*
X535507Y919674D01*
X537387Y921117D01*
X538829Y922997D01*
X539736Y925186D01*
X540045Y927536D01*
X539736Y929885D01*
X538829Y932075D01*
X537387Y933955D01*
X535507Y935397D01*
X533678Y936154D01*
X533558Y936759D01*
X532950Y937668D01*
X522322Y948297D01*
Y974636D01*
X522108Y975709D01*
X521500Y976618D01*
X517000Y981118D01*
X516091Y981726D01*
X515018Y981940D01*
X514768D01*
Y987136D01*
X501733D01*
X484552Y1004316D01*
X484616Y1004636D01*
X484228Y1006587D01*
X483242Y1008062D01*
X483601Y1009332D01*
X501507D01*
X526668Y984171D01*
Y971136D01*
X544668D01*
Y976332D01*
X548856D01*
X553564Y971624D01*
Y936116D01*
X551829Y935397D01*
X549949Y933955D01*
X548506Y932075D01*
X547599Y929885D01*
X547290Y927536D01*
X547599Y925186D01*
X548506Y922997D01*
X549949Y921117D01*
X551829Y919674D01*
X554018Y918767D01*
X556368Y918458D01*
X558717Y918767D01*
X560907Y919674D01*
X562787Y921117D01*
X564229Y922997D01*
X565136Y925186D01*
X565445Y927536D01*
X565136Y929885D01*
X564229Y932075D01*
X562787Y933955D01*
X560907Y935397D01*
X559172Y936116D01*
Y972786D01*
X558958Y973859D01*
X558350Y974768D01*
X552000Y981118D01*
X551091Y981726D01*
X550018Y981940D01*
X544668D01*
Y987136D01*
X531633D01*
X504650Y1014118D01*
X503741Y1014726D01*
X502668Y1014940D01*
X453179D01*
X442322Y1025797D01*
Y1032561D01*
X443592Y1032992D01*
X444854Y1031346D01*
X446891Y1029783D01*
X449263Y1028801D01*
X451808Y1028466D01*
X454353Y1028801D01*
X456725Y1029783D01*
X458762Y1031346D01*
X460325Y1033383D01*
X461307Y1035755D01*
X461642Y1038300D01*
X461307Y1040845D01*
X460325Y1043217D01*
X458762Y1045254D01*
X456725Y1046817D01*
X454353Y1047799D01*
X451808Y1048134D01*
X449263Y1047799D01*
X446891Y1046817D01*
X444854Y1045254D01*
X443592Y1043608D01*
X442322Y1044039D01*
Y1050590D01*
X442108Y1051663D01*
X441500Y1052573D01*
X435032Y1059042D01*
X435907Y1061155D01*
X436242Y1063700D01*
X435907Y1066245D01*
X434925Y1068617D01*
X433362Y1070654D01*
X431325Y1072217D01*
X428953Y1073199D01*
X426408Y1073534D01*
D02*
G37*
G36*
X593288Y1044291D02*
Y1039656D01*
X597924D01*
X597707Y1040742D01*
X596372Y1042740D01*
X594375Y1044075D01*
X593288Y1044291D01*
D02*
G37*
G36*
X757924Y1055866D02*
X753288D01*
Y1051230D01*
X754374Y1051446D01*
X756372Y1052781D01*
X757707Y1054779D01*
X757924Y1055866D01*
D02*
G37*
G36*
X750748D02*
X746112D01*
X746328Y1054779D01*
X747663Y1052781D01*
X749661Y1051446D01*
X750748Y1051230D01*
Y1055866D01*
D02*
G37*
G36*
X597924Y1037116D02*
X593288D01*
Y1032480D01*
X594375Y1032696D01*
X596372Y1034031D01*
X597707Y1036029D01*
X597924Y1037116D01*
D02*
G37*
G36*
X689538Y1034291D02*
Y1029656D01*
X694174D01*
X693957Y1030742D01*
X692622Y1032740D01*
X690624Y1034075D01*
X689538Y1034291D01*
D02*
G37*
G36*
X590748Y1044291D02*
X589661Y1044075D01*
X587663Y1042740D01*
X586328Y1040742D01*
X586112Y1039656D01*
X590748D01*
Y1044291D01*
D02*
G37*
G36*
X510768Y1175950D02*
X508810Y1175693D01*
X506985Y1174937D01*
X505419Y1173735D01*
X504216Y1172168D01*
X503461Y1170344D01*
X503203Y1168386D01*
X503449Y1166516D01*
Y1098886D01*
X502268D01*
Y1077926D01*
X498288D01*
Y1066156D01*
X502808D01*
Y1073988D01*
X503706Y1074886D01*
X510998D01*
X511768Y1074886D01*
X512268Y1073823D01*
X512268Y1073823D01*
Y1052886D01*
X513449D01*
Y1047364D01*
X499290Y1033204D01*
X487350D01*
X485080Y1035475D01*
X485889Y1036462D01*
X486317Y1036176D01*
X488268Y1035788D01*
X490219Y1036176D01*
X491872Y1037281D01*
X492978Y1038935D01*
X493366Y1040886D01*
X492978Y1042837D01*
X491872Y1044491D01*
X490219Y1045596D01*
X488268Y1045984D01*
X487323Y1045796D01*
X479822Y1053297D01*
Y1139246D01*
X480623Y1139781D01*
X481728Y1141435D01*
X482116Y1143386D01*
X481728Y1145337D01*
X480623Y1146991D01*
X478969Y1148096D01*
X477018Y1148484D01*
X475067Y1148096D01*
X473413Y1146991D01*
X472308Y1145337D01*
X471920Y1143386D01*
X472308Y1141435D01*
X473413Y1139781D01*
X474214Y1139246D01*
Y1052136D01*
X474427Y1051063D01*
X475035Y1050153D01*
X483358Y1041831D01*
X483170Y1040886D01*
X483558Y1038935D01*
X483844Y1038507D01*
X482857Y1037698D01*
X460748Y1059806D01*
X461307Y1061155D01*
X461642Y1063700D01*
X461307Y1066245D01*
X460325Y1068617D01*
X458762Y1070654D01*
X456725Y1072217D01*
X454353Y1073199D01*
X451808Y1073534D01*
X449263Y1073199D01*
X446891Y1072217D01*
X444854Y1070654D01*
X443291Y1068617D01*
X442309Y1066245D01*
X441974Y1063700D01*
X442309Y1061155D01*
X443291Y1058783D01*
X444854Y1056746D01*
X446891Y1055183D01*
X449263Y1054201D01*
X451808Y1053866D01*
X454353Y1054201D01*
X455702Y1054760D01*
X483349Y1027112D01*
X484507Y1026339D01*
X485872Y1026067D01*
X500768D01*
X502133Y1026339D01*
X503291Y1027112D01*
X519541Y1043362D01*
X520315Y1044520D01*
X520586Y1045886D01*
Y1052886D01*
X521768D01*
Y1076886D01*
X513038D01*
X512268Y1076886D01*
X511768Y1077949D01*
Y1098886D01*
X510586D01*
Y1160662D01*
X510768Y1160821D01*
X512726Y1161079D01*
X514550Y1161834D01*
X516117Y1163037D01*
X517319Y1164603D01*
X518075Y1166428D01*
X518332Y1168386D01*
X518075Y1170344D01*
X517319Y1172168D01*
X516117Y1173735D01*
X514550Y1174937D01*
X512726Y1175693D01*
X510768Y1175950D01*
D02*
G37*
G36*
X414174Y913366D02*
X409538D01*
Y908730D01*
X410625Y908946D01*
X412622Y910281D01*
X413957Y912279D01*
X414174Y913366D01*
D02*
G37*
G36*
X406998D02*
X402362D01*
X402578Y912279D01*
X403913Y910281D01*
X405911Y908946D01*
X406998Y908730D01*
Y913366D01*
D02*
G37*
G36*
X736208Y915542D02*
Y910906D01*
X740844D01*
X740627Y911992D01*
X739292Y913990D01*
X737294Y915325D01*
X736208Y915542D01*
D02*
G37*
G36*
X733668D02*
X732581Y915325D01*
X730583Y913990D01*
X729248Y911992D01*
X729032Y910906D01*
X733668D01*
Y915542D01*
D02*
G37*
G36*
X740844Y908366D02*
X736208D01*
Y903730D01*
X737294Y903946D01*
X739292Y905281D01*
X740627Y907279D01*
X740844Y908366D01*
D02*
G37*
G36*
X733668D02*
X729032D01*
X729248Y907279D01*
X730583Y905281D01*
X732581Y903946D01*
X733668Y903730D01*
Y908366D01*
D02*
G37*
G36*
X893308Y915926D02*
X884538D01*
Y907156D01*
X893308D01*
Y915926D01*
D02*
G37*
G36*
X881998D02*
X873228D01*
Y907156D01*
X881998D01*
Y915926D01*
D02*
G37*
G36*
X673268Y940226D02*
X670527Y939865D01*
X667972Y938808D01*
X665779Y937124D01*
X664096Y934931D01*
X663038Y932377D01*
X662677Y929636D01*
X663038Y926895D01*
X664096Y924341D01*
X665779Y922147D01*
X667972Y920464D01*
X670527Y919406D01*
X673268Y919045D01*
X676009Y919406D01*
X678563Y920464D01*
X680756Y922147D01*
X682439Y924341D01*
X683497Y926895D01*
X683858Y929636D01*
X683497Y932377D01*
X682439Y934931D01*
X680756Y937124D01*
X678563Y938808D01*
X676009Y939865D01*
X673268Y940226D01*
D02*
G37*
G36*
X637018D02*
X634277Y939865D01*
X631722Y938808D01*
X629529Y937124D01*
X627846Y934931D01*
X626788Y932377D01*
X626427Y929636D01*
X626788Y926895D01*
X627846Y924341D01*
X629529Y922147D01*
X631722Y920464D01*
X634277Y919406D01*
X637018Y919045D01*
X639759Y919406D01*
X642313Y920464D01*
X644506Y922147D01*
X646189Y924341D01*
X647247Y926895D01*
X647608Y929636D01*
X647247Y932377D01*
X646189Y934931D01*
X644506Y937124D01*
X642313Y938808D01*
X639759Y939865D01*
X637018Y940226D01*
D02*
G37*
G36*
X425748Y930016D02*
X417058D01*
X417236Y928665D01*
X418248Y926223D01*
X419857Y924125D01*
X421955Y922516D01*
X424397Y921504D01*
X425748Y921327D01*
Y930016D01*
D02*
G37*
G36*
X708268Y940226D02*
X705527Y939865D01*
X702972Y938808D01*
X700779Y937124D01*
X699096Y934931D01*
X698038Y932377D01*
X697677Y929636D01*
X698038Y926895D01*
X699096Y924341D01*
X700779Y922147D01*
X702972Y920464D01*
X705527Y919406D01*
X708268Y919045D01*
X711009Y919406D01*
X713563Y920464D01*
X715756Y922147D01*
X717439Y924341D01*
X718497Y926895D01*
X718858Y929636D01*
X718497Y932377D01*
X717439Y934931D01*
X715756Y937124D01*
X713563Y938808D01*
X711009Y939865D01*
X708268Y940226D01*
D02*
G37*
G36*
X406998Y920541D02*
X405911Y920325D01*
X403913Y918990D01*
X402578Y916992D01*
X402362Y915906D01*
X406998D01*
Y920541D01*
D02*
G37*
G36*
X504268Y929213D02*
X501918Y928904D01*
X499729Y927997D01*
X497849Y926555D01*
X496406Y924675D01*
X495499Y922485D01*
X495190Y920136D01*
X495499Y917786D01*
X496406Y915597D01*
X497849Y913717D01*
X499729Y912274D01*
X501918Y911367D01*
X504268Y911058D01*
X506617Y911367D01*
X508807Y912274D01*
X510687Y913717D01*
X512129Y915597D01*
X513036Y917786D01*
X513345Y920136D01*
X513036Y922485D01*
X512129Y924675D01*
X510687Y926555D01*
X508807Y927997D01*
X506617Y928904D01*
X504268Y929213D01*
D02*
G37*
G36*
X602018Y940226D02*
X599277Y939865D01*
X596722Y938808D01*
X594529Y937124D01*
X592846Y934931D01*
X591788Y932377D01*
X591427Y929636D01*
X591788Y926895D01*
X592846Y924341D01*
X594529Y922147D01*
X596722Y920464D01*
X599277Y919406D01*
X602018Y919045D01*
X604759Y919406D01*
X607313Y920464D01*
X609506Y922147D01*
X611189Y924341D01*
X612248Y926895D01*
X612608Y929636D01*
X612248Y932377D01*
X611189Y934931D01*
X609506Y937124D01*
X607313Y938808D01*
X604759Y939865D01*
X602018Y940226D01*
D02*
G37*
G36*
X409538Y920541D02*
Y915906D01*
X414174D01*
X413957Y916992D01*
X412622Y918990D01*
X410625Y920325D01*
X409538Y920541D01*
D02*
G37*
G36*
X544938Y912095D02*
Y903406D01*
X553627D01*
X553449Y904757D01*
X552438Y907199D01*
X550828Y909296D01*
X548731Y910906D01*
X546289Y911917D01*
X544938Y912095D01*
D02*
G37*
G36*
X800748Y899616D02*
X796112D01*
X796328Y898529D01*
X797663Y896531D01*
X799661Y895196D01*
X800748Y894980D01*
Y899616D01*
D02*
G37*
G36*
X903248Y898366D02*
X898612D01*
X898828Y897279D01*
X900163Y895281D01*
X902161Y893946D01*
X903248Y893730D01*
Y898366D01*
D02*
G37*
G36*
X883608Y1124334D02*
X881063Y1123999D01*
X878691Y1123017D01*
X876654Y1121454D01*
X875091Y1119417D01*
X874109Y1117045D01*
X873774Y1114500D01*
X874109Y1111955D01*
X875091Y1109583D01*
X876654Y1107546D01*
X878691Y1105983D01*
X881063Y1105001D01*
X883608Y1104666D01*
X886153Y1105001D01*
X888267Y1105876D01*
X900464Y1093679D01*
Y1012047D01*
X856285Y967868D01*
X855677Y966959D01*
X855464Y965886D01*
Y924547D01*
X844553Y913636D01*
X830518D01*
Y895636D01*
X848518D01*
Y909670D01*
X860250Y921403D01*
X860858Y922313D01*
X861072Y923386D01*
Y964724D01*
X905250Y1008903D01*
X905858Y1009813D01*
X906072Y1010886D01*
Y1094840D01*
X905858Y1095913D01*
X905250Y1096823D01*
X892232Y1109842D01*
X893107Y1111955D01*
X893442Y1114500D01*
X893107Y1117045D01*
X892125Y1119417D01*
X890562Y1121454D01*
X888525Y1123017D01*
X886153Y1123999D01*
X883608Y1124334D01*
D02*
G37*
G36*
X807924Y899616D02*
X803288D01*
Y894980D01*
X804374Y895196D01*
X806372Y896531D01*
X807707Y898529D01*
X807924Y899616D01*
D02*
G37*
G36*
X553627Y900866D02*
X544938D01*
Y892176D01*
X546289Y892354D01*
X548731Y893366D01*
X550828Y894975D01*
X552438Y897072D01*
X553449Y899515D01*
X553627Y900866D01*
D02*
G37*
G36*
X542398D02*
X533708D01*
X533886Y899515D01*
X534898Y897072D01*
X536507Y894975D01*
X538605Y893366D01*
X541047Y892354D01*
X542398Y892176D01*
Y900866D01*
D02*
G37*
G36*
X518268Y911213D02*
X515918Y910904D01*
X513729Y909997D01*
X511849Y908555D01*
X510406Y906674D01*
X509500Y904485D01*
X509190Y902136D01*
X509500Y899786D01*
X510406Y897597D01*
X511849Y895717D01*
X513729Y894274D01*
X515918Y893367D01*
X518268Y893058D01*
X520617Y893367D01*
X522807Y894274D01*
X524687Y895717D01*
X526129Y897597D01*
X527036Y899786D01*
X527345Y902136D01*
X527036Y904485D01*
X526129Y906674D01*
X524687Y908555D01*
X522807Y909997D01*
X520617Y910904D01*
X518268Y911213D01*
D02*
G37*
G36*
X491674Y897116D02*
X487038D01*
Y892480D01*
X488124Y892696D01*
X490122Y894031D01*
X491457Y896029D01*
X491674Y897116D01*
D02*
G37*
G36*
X800748Y906791D02*
X799661Y906575D01*
X797663Y905240D01*
X796328Y903242D01*
X796112Y902156D01*
X800748D01*
Y906791D01*
D02*
G37*
G36*
X903248Y905541D02*
X902161Y905325D01*
X900163Y903990D01*
X898828Y901992D01*
X898612Y900906D01*
X903248D01*
Y905541D01*
D02*
G37*
G36*
X542398Y912095D02*
X541047Y911917D01*
X538605Y910906D01*
X536507Y909296D01*
X534898Y907199D01*
X533886Y904757D01*
X533708Y903406D01*
X542398D01*
Y912095D01*
D02*
G37*
G36*
X803288Y906791D02*
Y902156D01*
X807924D01*
X807707Y903242D01*
X806372Y905240D01*
X804374Y906575D01*
X803288Y906791D01*
D02*
G37*
G36*
X893308Y904616D02*
X884538D01*
Y895846D01*
X893308D01*
Y904616D01*
D02*
G37*
G36*
X881998D02*
X873228D01*
Y895846D01*
X881998D01*
Y904616D01*
D02*
G37*
G36*
X487038Y904291D02*
Y899656D01*
X491674D01*
X491457Y900742D01*
X490122Y902740D01*
X488124Y904075D01*
X487038Y904291D01*
D02*
G37*
G36*
X436018Y914886D02*
X418018D01*
Y896886D01*
X436018D01*
Y914886D01*
D02*
G37*
G36*
X436977Y930016D02*
X428288D01*
Y921327D01*
X429639Y921504D01*
X432081Y922516D01*
X434179Y924125D01*
X435788Y926223D01*
X436800Y928665D01*
X436977Y930016D01*
D02*
G37*
G36*
X514768Y968136D02*
X496768D01*
Y952136D01*
X514768D01*
Y968136D01*
D02*
G37*
G36*
X479477Y956666D02*
X470788D01*
Y947976D01*
X472139Y948154D01*
X474581Y949166D01*
X476678Y950775D01*
X478288Y952872D01*
X479299Y955315D01*
X479477Y956666D01*
D02*
G37*
G36*
X838248Y965395D02*
X836897Y965217D01*
X834454Y964206D01*
X832357Y962596D01*
X830748Y960499D01*
X829736Y958057D01*
X829558Y956706D01*
X838248D01*
Y965395D01*
D02*
G37*
G36*
X544668Y968136D02*
X526668D01*
Y952136D01*
X544668D01*
Y968136D01*
D02*
G37*
G36*
X436977Y955416D02*
X428288D01*
Y946727D01*
X429639Y946904D01*
X432081Y947916D01*
X434179Y949525D01*
X435788Y951623D01*
X436800Y954065D01*
X436977Y955416D01*
D02*
G37*
G36*
X425748D02*
X417058D01*
X417236Y954065D01*
X418248Y951623D01*
X419857Y949525D01*
X421955Y947916D01*
X424397Y946904D01*
X425748Y946727D01*
Y955416D01*
D02*
G37*
G36*
X468248Y956666D02*
X459558D01*
X459736Y955315D01*
X460748Y952872D01*
X462357Y950775D01*
X464454Y949166D01*
X466897Y948154D01*
X468248Y947976D01*
Y956666D01*
D02*
G37*
G36*
X883268Y965763D02*
X880918Y965454D01*
X878729Y964547D01*
X876849Y963105D01*
X875406Y961225D01*
X874500Y959035D01*
X874190Y956686D01*
X874500Y954336D01*
X875406Y952147D01*
X876849Y950267D01*
X878729Y948824D01*
X880918Y947918D01*
X883268Y947608D01*
X885617Y947918D01*
X887807Y948824D01*
X889687Y950267D01*
X891129Y952147D01*
X892036Y954336D01*
X892346Y956686D01*
X892036Y959035D01*
X891129Y961225D01*
X889687Y963105D01*
X887807Y964547D01*
X885617Y965454D01*
X883268Y965763D01*
D02*
G37*
G36*
X468248Y967895D02*
X466897Y967717D01*
X464454Y966706D01*
X462357Y965096D01*
X460748Y962999D01*
X459736Y960557D01*
X459558Y959206D01*
X468248D01*
Y967895D01*
D02*
G37*
G36*
X428288Y966645D02*
Y957956D01*
X436977D01*
X436800Y959307D01*
X435788Y961749D01*
X434179Y963847D01*
X432081Y965456D01*
X429639Y966467D01*
X428288Y966645D01*
D02*
G37*
G36*
X764498Y965866D02*
X759862D01*
X760078Y964779D01*
X761413Y962781D01*
X763411Y961446D01*
X764498Y961230D01*
Y965866D01*
D02*
G37*
G36*
X470788Y967895D02*
Y959206D01*
X479477D01*
X479299Y960557D01*
X478288Y962999D01*
X476678Y965096D01*
X474581Y966706D01*
X472139Y967717D01*
X470788Y967895D01*
D02*
G37*
G36*
X820748Y962116D02*
X816112D01*
X816328Y961029D01*
X817663Y959031D01*
X819661Y957696D01*
X820748Y957480D01*
Y962116D01*
D02*
G37*
G36*
X840788Y965395D02*
Y956706D01*
X849477D01*
X849299Y958057D01*
X848288Y960499D01*
X846678Y962596D01*
X844581Y964206D01*
X842139Y965217D01*
X840788Y965395D01*
D02*
G37*
G36*
X425748Y966645D02*
X424397Y966467D01*
X421955Y965456D01*
X419857Y963847D01*
X418248Y961749D01*
X417236Y959307D01*
X417058Y957956D01*
X425748D01*
Y966645D01*
D02*
G37*
G36*
X827924Y962116D02*
X823288D01*
Y957480D01*
X824374Y957696D01*
X826372Y959031D01*
X827707Y961029D01*
X827924Y962116D01*
D02*
G37*
G36*
X849477Y954166D02*
X840788D01*
Y945476D01*
X842139Y945654D01*
X844581Y946666D01*
X846678Y948275D01*
X848288Y950372D01*
X849299Y952815D01*
X849477Y954166D01*
D02*
G37*
G36*
X495748Y937116D02*
X491112D01*
X491328Y936029D01*
X492663Y934031D01*
X494661Y932696D01*
X495748Y932480D01*
Y937116D01*
D02*
G37*
G36*
X820424Y932116D02*
X815788D01*
Y927480D01*
X816874Y927696D01*
X818872Y929031D01*
X820207Y931029D01*
X820424Y932116D01*
D02*
G37*
G36*
X425748Y941245D02*
X424397Y941067D01*
X421955Y940056D01*
X419857Y938447D01*
X418248Y936349D01*
X417236Y933907D01*
X417058Y932556D01*
X425748D01*
Y941245D01*
D02*
G37*
G36*
X502924Y937116D02*
X498288D01*
Y932480D01*
X499374Y932696D01*
X501372Y934031D01*
X502707Y936029D01*
X502924Y937116D01*
D02*
G37*
G36*
X893227Y930016D02*
X884538D01*
Y921327D01*
X885889Y921504D01*
X888331Y922516D01*
X890428Y924125D01*
X892038Y926223D01*
X893049Y928665D01*
X893227Y930016D01*
D02*
G37*
G36*
X881998D02*
X873308D01*
X873486Y928665D01*
X874498Y926223D01*
X876107Y924125D01*
X878205Y922516D01*
X880647Y921504D01*
X881998Y921327D01*
Y930016D01*
D02*
G37*
G36*
X813248Y932116D02*
X808612D01*
X808828Y931029D01*
X810163Y929031D01*
X812161Y927696D01*
X813248Y927480D01*
Y932116D01*
D02*
G37*
G36*
X469518Y941613D02*
X467168Y941304D01*
X464979Y940397D01*
X463099Y938955D01*
X461656Y937075D01*
X460749Y934885D01*
X460440Y932536D01*
X460749Y930186D01*
X461656Y927997D01*
X463099Y926117D01*
X464979Y924674D01*
X467168Y923767D01*
X469518Y923458D01*
X471867Y923767D01*
X474057Y924674D01*
X475937Y926117D01*
X477379Y927997D01*
X478286Y930186D01*
X478595Y932536D01*
X478286Y934885D01*
X477379Y937075D01*
X475937Y938955D01*
X474057Y940397D01*
X471867Y941304D01*
X469518Y941613D01*
D02*
G37*
G36*
X495748Y944291D02*
X494661Y944075D01*
X492663Y942740D01*
X491328Y940742D01*
X491112Y939656D01*
X495748D01*
Y944291D01*
D02*
G37*
G36*
X815788Y939291D02*
Y934656D01*
X820424D01*
X820207Y935742D01*
X818872Y937740D01*
X816874Y939075D01*
X815788Y939291D01*
D02*
G37*
G36*
X838248Y954166D02*
X829558D01*
X829736Y952815D01*
X830748Y950372D01*
X832357Y948275D01*
X834454Y946666D01*
X836897Y945654D01*
X838248Y945476D01*
Y954166D01*
D02*
G37*
G36*
X498288Y944291D02*
Y939656D01*
X502924D01*
X502707Y940742D01*
X501372Y942740D01*
X499374Y944075D01*
X498288Y944291D01*
D02*
G37*
G36*
X881998Y941245D02*
X880647Y941067D01*
X878205Y940056D01*
X876107Y938447D01*
X874498Y936349D01*
X873486Y933907D01*
X873308Y932556D01*
X881998D01*
Y941245D01*
D02*
G37*
G36*
X428288D02*
Y932556D01*
X436977D01*
X436800Y933907D01*
X435788Y936349D01*
X434179Y938447D01*
X432081Y940056D01*
X429639Y941067D01*
X428288Y941245D01*
D02*
G37*
G36*
X813248Y939291D02*
X812161Y939075D01*
X810163Y937740D01*
X808828Y935742D01*
X808612Y934656D01*
X813248D01*
Y939291D01*
D02*
G37*
G36*
X884538Y941245D02*
Y932556D01*
X893227D01*
X893049Y933907D01*
X892038Y936349D01*
X890428Y938447D01*
X888331Y940056D01*
X885889Y941067D01*
X884538Y941245D01*
D02*
G37*
G36*
X710788Y1213041D02*
Y1208406D01*
X715424D01*
X715207Y1209492D01*
X713872Y1211490D01*
X711874Y1212825D01*
X710788Y1213041D01*
D02*
G37*
G36*
X708248D02*
X707161Y1212825D01*
X705163Y1211490D01*
X703828Y1209492D01*
X703612Y1208406D01*
X708248D01*
Y1213041D01*
D02*
G37*
G36*
X649907Y1221616D02*
X639538D01*
Y1209413D01*
X641280Y1209643D01*
X644088Y1210806D01*
X646498Y1212655D01*
X648348Y1215066D01*
X649511Y1217873D01*
X649907Y1220886D01*
Y1221616D01*
D02*
G37*
G36*
X636998D02*
X626628D01*
Y1220886D01*
X627025Y1217873D01*
X628188Y1215066D01*
X630037Y1212655D01*
X632448Y1210806D01*
X635255Y1209643D01*
X636998Y1209413D01*
Y1221616D01*
D02*
G37*
G36*
X478248Y1209291D02*
X477161Y1209075D01*
X475163Y1207740D01*
X473828Y1205742D01*
X473612Y1204656D01*
X478248D01*
Y1209291D01*
D02*
G37*
G36*
X619538Y1206791D02*
Y1202156D01*
X624174D01*
X623957Y1203242D01*
X622622Y1205240D01*
X620624Y1206575D01*
X619538Y1206791D01*
D02*
G37*
G36*
X426408Y1225934D02*
X423863Y1225599D01*
X421491Y1224617D01*
X419454Y1223054D01*
X417891Y1221017D01*
X416909Y1218645D01*
X416574Y1216100D01*
X416909Y1213555D01*
X417891Y1211183D01*
X419454Y1209146D01*
X421491Y1207583D01*
X423863Y1206601D01*
X426408Y1206266D01*
X428953Y1206601D01*
X431325Y1207583D01*
X433362Y1209146D01*
X434925Y1211183D01*
X435907Y1213555D01*
X436242Y1216100D01*
X435907Y1218645D01*
X434925Y1221017D01*
X433362Y1223054D01*
X431325Y1224617D01*
X428953Y1225599D01*
X426408Y1225934D01*
D02*
G37*
G36*
X480788Y1209291D02*
Y1204656D01*
X485424D01*
X485207Y1205742D01*
X483872Y1207740D01*
X481874Y1209075D01*
X480788Y1209291D01*
D02*
G37*
G36*
X639538Y1236358D02*
Y1224156D01*
X649907D01*
Y1224886D01*
X649511Y1227898D01*
X648348Y1230705D01*
X646498Y1233116D01*
X644088Y1234966D01*
X641280Y1236129D01*
X639538Y1236358D01*
D02*
G37*
G36*
X636998D02*
X635255Y1236129D01*
X632448Y1234966D01*
X630037Y1233116D01*
X628188Y1230705D01*
X627025Y1227898D01*
X626628Y1224886D01*
Y1224156D01*
X636998D01*
Y1236358D01*
D02*
G37*
G36*
X413288Y1235541D02*
Y1230906D01*
X417923D01*
X417707Y1231992D01*
X416372Y1233990D01*
X414374Y1235325D01*
X413288Y1235541D01*
D02*
G37*
G36*
X410748D02*
X409661Y1235325D01*
X407663Y1233990D01*
X406328Y1231992D01*
X406112Y1230906D01*
X410748D01*
Y1235541D01*
D02*
G37*
G36*
X417923Y1228366D02*
X413288D01*
Y1223730D01*
X414374Y1223946D01*
X416372Y1225281D01*
X417707Y1227279D01*
X417923Y1228366D01*
D02*
G37*
G36*
X410748D02*
X406112D01*
X406328Y1227279D01*
X407663Y1225281D01*
X409661Y1223946D01*
X410748Y1223730D01*
Y1228366D01*
D02*
G37*
G36*
X616674D02*
X612038D01*
Y1223730D01*
X613125Y1223946D01*
X615122Y1225281D01*
X616457Y1227279D01*
X616674Y1228366D01*
D02*
G37*
G36*
X609498D02*
X604862D01*
X605078Y1227279D01*
X606413Y1225281D01*
X608411Y1223946D01*
X609498Y1223730D01*
Y1228366D01*
D02*
G37*
G36*
X616998Y1206791D02*
X615911Y1206575D01*
X613913Y1205240D01*
X612578Y1203242D01*
X612362Y1202156D01*
X616998D01*
Y1206791D01*
D02*
G37*
G36*
X664768Y1251886D02*
X646768D01*
Y1235886D01*
X652199D01*
Y1202265D01*
X652163Y1202241D01*
X651058Y1200587D01*
X650670Y1198636D01*
X651058Y1196685D01*
X652163Y1195031D01*
X653817Y1193926D01*
X655768Y1193538D01*
X657719Y1193926D01*
X659372Y1195031D01*
X660478Y1196685D01*
X660866Y1198636D01*
X660478Y1200587D01*
X659372Y1202241D01*
X659336Y1202265D01*
Y1235886D01*
X664768D01*
Y1251886D01*
D02*
G37*
G36*
X680424Y1194616D02*
X675788D01*
Y1189980D01*
X676874Y1190196D01*
X678872Y1191531D01*
X680207Y1193529D01*
X680424Y1194616D01*
D02*
G37*
G36*
X630788Y1199291D02*
Y1194656D01*
X635424D01*
X635207Y1195742D01*
X633872Y1197740D01*
X631875Y1199075D01*
X630788Y1199291D01*
D02*
G37*
G36*
X628248D02*
X627161Y1199075D01*
X625163Y1197740D01*
X623828Y1195742D01*
X623612Y1194656D01*
X628248D01*
Y1199291D01*
D02*
G37*
G36*
X783248Y1195426D02*
X774478D01*
Y1187656D01*
X783248D01*
Y1195426D01*
D02*
G37*
G36*
X635424Y1192116D02*
X630788D01*
Y1187480D01*
X631875Y1187696D01*
X633872Y1189031D01*
X635207Y1191029D01*
X635424Y1192116D01*
D02*
G37*
G36*
X673248Y1194616D02*
X668612D01*
X668828Y1193529D01*
X670163Y1191531D01*
X672161Y1190196D01*
X673248Y1189980D01*
Y1194616D01*
D02*
G37*
G36*
X794558Y1195426D02*
X785788D01*
Y1187656D01*
X794558D01*
Y1195426D01*
D02*
G37*
G36*
X485424Y1202116D02*
X480788D01*
Y1197480D01*
X481874Y1197696D01*
X483872Y1199031D01*
X485207Y1201029D01*
X485424Y1202116D01*
D02*
G37*
G36*
X478248D02*
X473612D01*
X473828Y1201029D01*
X475163Y1199031D01*
X477161Y1197696D01*
X478248Y1197480D01*
Y1202116D01*
D02*
G37*
G36*
X715424Y1205866D02*
X710788D01*
Y1201230D01*
X711874Y1201446D01*
X713872Y1202781D01*
X715207Y1204779D01*
X715424Y1205866D01*
D02*
G37*
G36*
X708248D02*
X703612D01*
X703828Y1204779D01*
X705163Y1202781D01*
X707161Y1201446D01*
X708248Y1201230D01*
Y1205866D01*
D02*
G37*
G36*
X624174Y1199616D02*
X619538D01*
Y1194980D01*
X620624Y1195196D01*
X622622Y1196531D01*
X623957Y1198529D01*
X624174Y1199616D01*
D02*
G37*
G36*
X616998D02*
X612362D01*
X612578Y1198529D01*
X613913Y1196531D01*
X615911Y1195196D01*
X616998Y1194980D01*
Y1199616D01*
D02*
G37*
G36*
X675788Y1201791D02*
Y1197156D01*
X680424D01*
X680207Y1198242D01*
X678872Y1200240D01*
X676874Y1201575D01*
X675788Y1201791D01*
D02*
G37*
G36*
X673248D02*
X672161Y1201575D01*
X670163Y1200240D01*
X668828Y1198242D01*
X668612Y1197156D01*
X673248D01*
Y1201791D01*
D02*
G37*
G36*
X609498Y1235541D02*
X608411Y1235325D01*
X606413Y1233990D01*
X605078Y1231992D01*
X604862Y1230906D01*
X609498D01*
Y1235541D01*
D02*
G37*
G36*
X894398Y1277690D02*
X884878D01*
Y1268170D01*
X894398D01*
Y1277690D01*
D02*
G37*
G36*
X882338D02*
X872818D01*
Y1268170D01*
X882338D01*
Y1277690D01*
D02*
G37*
G36*
X409498Y1290866D02*
X404862D01*
X405078Y1289779D01*
X406413Y1287781D01*
X408411Y1286446D01*
X409498Y1286230D01*
Y1290866D01*
D02*
G37*
G36*
X813518Y1295886D02*
X795518D01*
Y1279886D01*
X813518D01*
Y1284582D01*
X824128D01*
X824663Y1283781D01*
X826317Y1282676D01*
X828268Y1282288D01*
X830219Y1282676D01*
X831873Y1283781D01*
X832978Y1285435D01*
X833366Y1287386D01*
X832978Y1289337D01*
X831873Y1290990D01*
X830219Y1292096D01*
X828268Y1292484D01*
X826317Y1292096D01*
X824663Y1290990D01*
X824128Y1290190D01*
X813518D01*
Y1295886D01*
D02*
G37*
G36*
X461558Y1276650D02*
X442058D01*
Y1257150D01*
X461558D01*
Y1276650D01*
D02*
G37*
G36*
X858208Y1276734D02*
X855663Y1276399D01*
X853291Y1275417D01*
X851254Y1273854D01*
X849691Y1271817D01*
X848709Y1269445D01*
X848374Y1266900D01*
X848709Y1264355D01*
X849691Y1261983D01*
X851254Y1259946D01*
X853291Y1258383D01*
X855663Y1257401D01*
X858208Y1257066D01*
X860753Y1257401D01*
X863125Y1258383D01*
X865162Y1259946D01*
X866725Y1261983D01*
X867707Y1264355D01*
X868042Y1266900D01*
X867707Y1269445D01*
X866725Y1271817D01*
X865162Y1273854D01*
X863125Y1275417D01*
X860753Y1276399D01*
X858208Y1276734D01*
D02*
G37*
G36*
X544498Y1272926D02*
X539978D01*
Y1261156D01*
X544498D01*
Y1272926D01*
D02*
G37*
G36*
X813518Y1276886D02*
X795518D01*
Y1272454D01*
X791268D01*
X789902Y1272183D01*
X788744Y1271409D01*
X731994Y1214659D01*
X731377Y1213736D01*
X717318D01*
Y1198036D01*
X730949D01*
Y1188403D01*
X725168D01*
X723119Y1188134D01*
X721209Y1187343D01*
X719569Y1186084D01*
X718311Y1184445D01*
X717520Y1182535D01*
X717250Y1180486D01*
X717520Y1178437D01*
X718311Y1176527D01*
X719569Y1174887D01*
X721209Y1173629D01*
X723119Y1172838D01*
X725168Y1172568D01*
X730949D01*
Y1163003D01*
X725168D01*
X723119Y1162734D01*
X721209Y1161943D01*
X719569Y1160684D01*
X718311Y1159045D01*
X717520Y1157135D01*
X717250Y1155086D01*
X717520Y1153036D01*
X718311Y1151127D01*
X719569Y1149487D01*
X721209Y1148229D01*
X723119Y1147438D01*
X725168Y1147168D01*
X730949D01*
Y1137604D01*
X725168D01*
X723119Y1137334D01*
X722319Y1137002D01*
X721561Y1138063D01*
X722707Y1139779D01*
X722923Y1140866D01*
X718288D01*
Y1136230D01*
X718865Y1136345D01*
X719380Y1135570D01*
X719484Y1135173D01*
X718311Y1133645D01*
X717520Y1131735D01*
X717250Y1129686D01*
X717520Y1127636D01*
X718311Y1125727D01*
X719569Y1124087D01*
X721209Y1122829D01*
X721911Y1122538D01*
X722159Y1121292D01*
X720806Y1119940D01*
X700268D01*
Y1124386D01*
X681268D01*
Y1108386D01*
X700268D01*
Y1114332D01*
X721968D01*
X723041Y1114545D01*
X723950Y1115153D01*
X730565Y1121768D01*
X737868D01*
X739917Y1122038D01*
X741827Y1122829D01*
X743466Y1124087D01*
X744725Y1125727D01*
X745516Y1127636D01*
X745786Y1129686D01*
X745516Y1131735D01*
X744725Y1133645D01*
X743466Y1135284D01*
X741827Y1136543D01*
X739917Y1137334D01*
X738086Y1137575D01*
Y1147197D01*
X739917Y1147438D01*
X741827Y1148229D01*
X743466Y1149487D01*
X744725Y1151127D01*
X745516Y1153036D01*
X745786Y1155086D01*
X745516Y1157135D01*
X744725Y1159045D01*
X743466Y1160684D01*
X741827Y1161943D01*
X739917Y1162734D01*
X738086Y1162975D01*
Y1172597D01*
X739917Y1172838D01*
X741827Y1173629D01*
X743466Y1174887D01*
X744725Y1176527D01*
X745516Y1178437D01*
X745786Y1180486D01*
X745516Y1182535D01*
X744725Y1184445D01*
X743466Y1186084D01*
X741827Y1187343D01*
X739917Y1188134D01*
X738086Y1188375D01*
Y1198036D01*
X745718D01*
Y1213736D01*
X742824D01*
X742338Y1214909D01*
X792746Y1265317D01*
X795518D01*
Y1260886D01*
X813518D01*
Y1276886D01*
D02*
G37*
G36*
X412038Y1298041D02*
Y1293406D01*
X416674D01*
X416457Y1294492D01*
X415122Y1296490D01*
X413124Y1297825D01*
X412038Y1298041D01*
D02*
G37*
G36*
X409498D02*
X408411Y1297825D01*
X406413Y1296490D01*
X405078Y1294492D01*
X404862Y1293406D01*
X409498D01*
Y1298041D01*
D02*
G37*
G36*
X898288D02*
Y1293406D01*
X902924D01*
X902707Y1294492D01*
X901372Y1296490D01*
X899374Y1297825D01*
X898288Y1298041D01*
D02*
G37*
G36*
X895748D02*
X894661Y1297825D01*
X892663Y1296490D01*
X891328Y1294492D01*
X891112Y1293406D01*
X895748D01*
Y1298041D01*
D02*
G37*
G36*
Y1290866D02*
X891112D01*
X891328Y1289779D01*
X892663Y1287781D01*
X894661Y1286446D01*
X895748Y1286230D01*
Y1290866D01*
D02*
G37*
G36*
X416674D02*
X412038D01*
Y1286230D01*
X413124Y1286446D01*
X415122Y1287781D01*
X416457Y1289779D01*
X416674Y1290866D01*
D02*
G37*
G36*
X514768Y1295886D02*
X496768D01*
Y1290690D01*
X484574D01*
X484372Y1290990D01*
X482719Y1292096D01*
X480768Y1292484D01*
X478817Y1292096D01*
X477163Y1290990D01*
X476058Y1289337D01*
X475670Y1287386D01*
X476058Y1285435D01*
X477163Y1283781D01*
X478817Y1282676D01*
X480768Y1282288D01*
X482719Y1282676D01*
X484372Y1283781D01*
X485242Y1285082D01*
X496768D01*
Y1279886D01*
X514768D01*
Y1295886D01*
D02*
G37*
G36*
X902924Y1290866D02*
X898288D01*
Y1286230D01*
X899374Y1286446D01*
X901372Y1287781D01*
X902707Y1289779D01*
X902924Y1290866D01*
D02*
G37*
G36*
X894398Y1265630D02*
X884878D01*
Y1256110D01*
X894398D01*
Y1265630D01*
D02*
G37*
G36*
X473288Y1241791D02*
Y1237156D01*
X477924D01*
X477707Y1238242D01*
X476372Y1240240D01*
X474374Y1241575D01*
X473288Y1241791D01*
D02*
G37*
G36*
X470748D02*
X469661Y1241575D01*
X467663Y1240240D01*
X466328Y1238242D01*
X466112Y1237156D01*
X470748D01*
Y1241791D01*
D02*
G37*
G36*
X453078Y1252216D02*
Y1242770D01*
X462524D01*
X462320Y1244317D01*
X461233Y1246942D01*
X459504Y1249195D01*
X457250Y1250925D01*
X454625Y1252012D01*
X453078Y1252216D01*
D02*
G37*
G36*
X450538D02*
X448991Y1252012D01*
X446366Y1250925D01*
X444113Y1249195D01*
X442383Y1246942D01*
X441296Y1244317D01*
X441092Y1242770D01*
X450538D01*
Y1252216D01*
D02*
G37*
G36*
X883608Y1251334D02*
X881063Y1250999D01*
X878691Y1250017D01*
X876654Y1248454D01*
X875091Y1246417D01*
X874109Y1244045D01*
X873774Y1241500D01*
X874109Y1238955D01*
X874984Y1236842D01*
X870856Y1232714D01*
X864860D01*
X864429Y1233984D01*
X865162Y1234546D01*
X866725Y1236583D01*
X867707Y1238955D01*
X868042Y1241500D01*
X867707Y1244045D01*
X866725Y1246417D01*
X865162Y1248454D01*
X863125Y1250017D01*
X860753Y1250999D01*
X858208Y1251334D01*
X855663Y1250999D01*
X853291Y1250017D01*
X851254Y1248454D01*
X849691Y1246417D01*
X848709Y1244045D01*
X848374Y1241500D01*
X848709Y1238955D01*
X849691Y1236583D01*
X851254Y1234546D01*
X851987Y1233984D01*
X851556Y1232714D01*
X823542D01*
X822469Y1232500D01*
X821559Y1231892D01*
X808735Y1219068D01*
X808127Y1218159D01*
X807914Y1217086D01*
Y1213803D01*
X807368D01*
X805319Y1213534D01*
X803409Y1212743D01*
X801769Y1211484D01*
X800511Y1209845D01*
X800142Y1208954D01*
X793518D01*
Y1213386D01*
X775518D01*
Y1197386D01*
X793518D01*
Y1201817D01*
X800595D01*
X801769Y1200287D01*
X803409Y1199029D01*
X805319Y1198238D01*
X807368Y1197968D01*
X820068D01*
X822117Y1198238D01*
X824027Y1199029D01*
X825666Y1200287D01*
X826925Y1201927D01*
X827716Y1203837D01*
X827986Y1205886D01*
X827716Y1207935D01*
X826925Y1209845D01*
X825666Y1211484D01*
X824027Y1212743D01*
X822117Y1213534D01*
X820068Y1213803D01*
X813522D01*
Y1215924D01*
X824703Y1227106D01*
X857379D01*
X857462Y1225836D01*
X855663Y1225599D01*
X853291Y1224617D01*
X851254Y1223054D01*
X849691Y1221017D01*
X848709Y1218645D01*
X848374Y1216100D01*
X848709Y1213555D01*
X849691Y1211183D01*
X851254Y1209146D01*
X851823Y1208710D01*
X851392Y1207440D01*
X847018D01*
X845945Y1207226D01*
X845035Y1206618D01*
X825007Y1186590D01*
X824027Y1187343D01*
X822117Y1188134D01*
X820068Y1188403D01*
X807368D01*
X805319Y1188134D01*
X803409Y1187343D01*
X801769Y1186084D01*
X800511Y1184445D01*
X799720Y1182535D01*
X799450Y1180486D01*
X799697Y1178612D01*
X795540Y1174454D01*
X773518D01*
Y1176598D01*
X774478Y1177346D01*
X774788Y1177346D01*
X783248D01*
Y1185116D01*
X774478D01*
Y1179134D01*
X774477Y1179134D01*
X773518Y1178386D01*
X773208Y1178386D01*
X755518D01*
Y1162386D01*
X773518D01*
Y1167317D01*
X797018D01*
X798383Y1167589D01*
X799541Y1168362D01*
X804398Y1173219D01*
X805319Y1172838D01*
X807368Y1172568D01*
X820068D01*
X822117Y1172838D01*
X824027Y1173629D01*
X825666Y1174887D01*
X826925Y1176527D01*
X827716Y1178437D01*
X827986Y1180486D01*
X827851Y1181504D01*
X848179Y1201832D01*
X872144D01*
X873217Y1202045D01*
X874126Y1202653D01*
X878950Y1207476D01*
X881063Y1206601D01*
X883608Y1206266D01*
X886153Y1206601D01*
X888525Y1207583D01*
X890562Y1209146D01*
X892125Y1211183D01*
X893107Y1213555D01*
X893442Y1216100D01*
X893107Y1218645D01*
X892125Y1221017D01*
X890562Y1223054D01*
X888525Y1224617D01*
X886153Y1225599D01*
X883608Y1225934D01*
X881063Y1225599D01*
X878691Y1224617D01*
X876654Y1223054D01*
X875091Y1221017D01*
X874109Y1218645D01*
X873774Y1216100D01*
X874109Y1213555D01*
X874984Y1211441D01*
X870982Y1207440D01*
X865024D01*
X864593Y1208710D01*
X865162Y1209146D01*
X866725Y1211183D01*
X867707Y1213555D01*
X868042Y1216100D01*
X867707Y1218645D01*
X866725Y1221017D01*
X865162Y1223054D01*
X863125Y1224617D01*
X860753Y1225599D01*
X858954Y1225836D01*
X859037Y1227106D01*
X872018D01*
X873091Y1227319D01*
X874000Y1227927D01*
X878950Y1232876D01*
X881063Y1232001D01*
X883608Y1231666D01*
X886153Y1232001D01*
X888525Y1232983D01*
X890562Y1234546D01*
X892125Y1236583D01*
X893107Y1238955D01*
X893442Y1241500D01*
X893107Y1244045D01*
X892125Y1246417D01*
X890562Y1248454D01*
X888525Y1250017D01*
X886153Y1250999D01*
X883608Y1251334D01*
D02*
G37*
G36*
X612038Y1235541D02*
Y1230906D01*
X616674D01*
X616457Y1231992D01*
X615122Y1233990D01*
X613125Y1235325D01*
X612038Y1235541D01*
D02*
G37*
G36*
X831673Y1240866D02*
X827038D01*
Y1236230D01*
X828124Y1236446D01*
X830122Y1237781D01*
X831457Y1239779D01*
X831673Y1240866D01*
D02*
G37*
G36*
X824498D02*
X819862D01*
X820078Y1239779D01*
X821413Y1237781D01*
X823411Y1236446D01*
X824498Y1236230D01*
Y1240866D01*
D02*
G37*
G36*
X489498Y1258042D02*
X488411Y1257825D01*
X486413Y1256490D01*
X485078Y1254492D01*
X484862Y1253406D01*
X489498D01*
Y1258042D01*
D02*
G37*
G36*
X560518Y1293886D02*
X551018D01*
Y1283635D01*
X550670Y1281886D01*
X551018Y1280137D01*
Y1272926D01*
X547038D01*
Y1261156D01*
X551558D01*
Y1268988D01*
X552456Y1269886D01*
X559748D01*
X560518Y1269886D01*
X561018Y1268823D01*
Y1261635D01*
X560670Y1259886D01*
X561018Y1258137D01*
Y1247994D01*
X561018Y1247886D01*
X560757Y1246724D01*
X552777D01*
X551558Y1246846D01*
X551558Y1247994D01*
Y1258616D01*
X539978D01*
Y1247994D01*
X539978Y1246846D01*
X538758Y1246724D01*
X538758D01*
X515401D01*
X515219Y1246846D01*
X513268Y1247234D01*
X511317Y1246846D01*
X510606Y1246371D01*
X509336Y1247050D01*
Y1260886D01*
X514768D01*
Y1276886D01*
X496768D01*
Y1272454D01*
X482996D01*
X465791Y1289659D01*
X464633Y1290433D01*
X463268Y1290704D01*
X438264D01*
X436898Y1290433D01*
X435740Y1289659D01*
X423885Y1277804D01*
X423111Y1276646D01*
X422990Y1276038D01*
X421491Y1275417D01*
X419454Y1273854D01*
X417891Y1271817D01*
X416909Y1269445D01*
X416574Y1266900D01*
X416909Y1264355D01*
X417891Y1261983D01*
X419454Y1259946D01*
X421491Y1258383D01*
X423863Y1257401D01*
X426408Y1257066D01*
X428953Y1257401D01*
X431325Y1258383D01*
X433362Y1259946D01*
X434925Y1261983D01*
X435907Y1264355D01*
X436242Y1266900D01*
X435907Y1269445D01*
X434925Y1271817D01*
X433362Y1273854D01*
X432240Y1274715D01*
X432157Y1275982D01*
X439742Y1283567D01*
X461790D01*
X478994Y1266362D01*
X480152Y1265589D01*
X481518Y1265317D01*
X496768D01*
Y1260886D01*
X502199D01*
Y1222136D01*
X502471Y1220770D01*
X503244Y1219612D01*
X539699Y1183158D01*
Y1113386D01*
X539971Y1112020D01*
X540744Y1110862D01*
X547744Y1103862D01*
X548902Y1103089D01*
X550268Y1102817D01*
X551768D01*
Y1098386D01*
X556983D01*
X557661Y1097116D01*
X557308Y1096587D01*
X556920Y1094636D01*
X557183Y1093310D01*
X556040Y1092546D01*
X555219Y1093096D01*
X553268Y1093484D01*
X551317Y1093096D01*
X549663Y1091991D01*
X548558Y1090337D01*
X548170Y1088386D01*
X548558Y1086435D01*
X548715Y1086200D01*
X547728Y1085390D01*
X537322Y1095797D01*
Y1182136D01*
X537108Y1183209D01*
X536500Y1184118D01*
X489000Y1231618D01*
X488091Y1232226D01*
X487018Y1232440D01*
X478290D01*
X478117Y1232762D01*
X477743Y1233710D01*
X477924Y1234616D01*
X466112D01*
X466292Y1233710D01*
X465918Y1232762D01*
X465746Y1232440D01*
X459700D01*
X459292Y1233642D01*
X459504Y1233804D01*
X461233Y1236058D01*
X462320Y1238683D01*
X462524Y1240230D01*
X441092D01*
X441296Y1238683D01*
X442383Y1236058D01*
X444113Y1233804D01*
X444324Y1233642D01*
X443916Y1232440D01*
X439434D01*
X435032Y1236842D01*
X435907Y1238955D01*
X436242Y1241500D01*
X435907Y1244045D01*
X434925Y1246417D01*
X433362Y1248454D01*
X431325Y1250017D01*
X428953Y1250999D01*
X426408Y1251334D01*
X423863Y1250999D01*
X421491Y1250017D01*
X419454Y1248454D01*
X417891Y1246417D01*
X416909Y1244045D01*
X416574Y1241500D01*
X416909Y1238955D01*
X417891Y1236583D01*
X419454Y1234546D01*
X421491Y1232983D01*
X423863Y1232001D01*
X426408Y1231666D01*
X428953Y1232001D01*
X431067Y1232876D01*
X436290Y1227653D01*
X437199Y1227045D01*
X438272Y1226832D01*
X449051D01*
X449263Y1225599D01*
X446891Y1224617D01*
X444854Y1223054D01*
X443291Y1221017D01*
X442309Y1218645D01*
X441974Y1216100D01*
X442309Y1213555D01*
X443291Y1211183D01*
X444854Y1209146D01*
X446891Y1207583D01*
X449263Y1206601D01*
X451808Y1206266D01*
X454353Y1206601D01*
X456725Y1207583D01*
X458762Y1209146D01*
X460325Y1211183D01*
X461200Y1213296D01*
X484392D01*
X522964Y1174724D01*
Y1097136D01*
X523177Y1096063D01*
X523785Y1095153D01*
X535804Y1083134D01*
X535435Y1081919D01*
X535067Y1081846D01*
X533413Y1080741D01*
X532308Y1079087D01*
X531920Y1077136D01*
X532308Y1075185D01*
X532430Y1075003D01*
Y1035519D01*
X532308Y1035337D01*
X531920Y1033386D01*
X532308Y1031435D01*
X533413Y1029781D01*
X535067Y1028676D01*
X537018Y1028288D01*
X538969Y1028676D01*
X540622Y1029781D01*
X541728Y1031435D01*
X542116Y1033386D01*
X541728Y1035337D01*
X541606Y1035519D01*
Y1050580D01*
X542876Y1051062D01*
X593089Y1000849D01*
X592603Y999676D01*
X587538D01*
Y990906D01*
X595308D01*
Y996730D01*
X596469Y997234D01*
X597268Y996584D01*
Y980636D01*
X602464D01*
Y966386D01*
X602677Y965313D01*
X603285Y964403D01*
X618358Y949331D01*
X618170Y948386D01*
X618558Y946435D01*
X619663Y944781D01*
X621317Y943676D01*
X623268Y943288D01*
X625219Y943676D01*
X626873Y944781D01*
X627978Y946435D01*
X628366Y948386D01*
X627978Y950337D01*
X627821Y950571D01*
X628807Y951381D01*
X633785Y946403D01*
X634695Y945795D01*
X635768Y945582D01*
X679128D01*
X679663Y944781D01*
X681317Y943676D01*
X683268Y943288D01*
X685219Y943676D01*
X686872Y944781D01*
X687978Y946435D01*
X688366Y948386D01*
X688178Y949331D01*
X703250Y964403D01*
X703858Y965313D01*
X704072Y966386D01*
Y980636D01*
X709268D01*
Y998636D01*
X693268D01*
Y980636D01*
X698464D01*
Y967547D01*
X684212Y953296D01*
X683268Y953484D01*
X681317Y953096D01*
X679663Y951991D01*
X679128Y951190D01*
X636929D01*
X619822Y968297D01*
Y986078D01*
X620942Y986676D01*
X621317Y986426D01*
X623268Y986038D01*
X625219Y986426D01*
X626873Y987531D01*
X627978Y989185D01*
X628366Y991136D01*
X627978Y993087D01*
X626873Y994741D01*
X626072Y995276D01*
Y999724D01*
X626929Y1000582D01*
X682018D01*
X683091Y1000795D01*
X684000Y1001403D01*
X720250Y1037653D01*
X720858Y1038563D01*
X721072Y1039636D01*
Y1040736D01*
X723771D01*
X831151Y933355D01*
X830749Y932385D01*
X830440Y930036D01*
X830749Y927686D01*
X831656Y925497D01*
X833099Y923617D01*
X834979Y922174D01*
X837168Y921267D01*
X839518Y920958D01*
X841867Y921267D01*
X844057Y922174D01*
X845937Y923617D01*
X847379Y925497D01*
X848286Y927686D01*
X848595Y930036D01*
X848286Y932385D01*
X847379Y934575D01*
X845937Y936455D01*
X844057Y937897D01*
X841867Y938804D01*
X839518Y939113D01*
X837168Y938804D01*
X836198Y938402D01*
X725768Y1048832D01*
Y1058736D01*
X709768D01*
Y1040736D01*
X713743D01*
X714229Y1039563D01*
X680856Y1006190D01*
X625768D01*
X624695Y1005976D01*
X623785Y1005368D01*
X621285Y1002868D01*
X620677Y1001959D01*
X620591Y1001524D01*
X619243Y1001256D01*
X619000Y1001618D01*
X589155Y1031464D01*
X589654Y1032627D01*
X589733Y1032682D01*
X590748Y1032480D01*
Y1037116D01*
X586112D01*
X586314Y1036101D01*
X586259Y1036022D01*
X585096Y1035523D01*
X555600Y1065018D01*
X555646Y1065247D01*
X557024Y1065665D01*
X570035Y1052653D01*
X570945Y1052045D01*
X572018Y1051832D01*
X627018D01*
X628091Y1052045D01*
X629000Y1052653D01*
X633179Y1056832D01*
X672018D01*
X672446Y1056403D01*
X673356Y1055795D01*
X674429Y1055582D01*
X681585D01*
X682567Y1054926D01*
X684518Y1054538D01*
X686469Y1054926D01*
X688123Y1056031D01*
X689228Y1057685D01*
X689616Y1059636D01*
X689228Y1061587D01*
X688123Y1063241D01*
X686469Y1064346D01*
X684518Y1064734D01*
X683339Y1064499D01*
X683029Y1064534D01*
X682823Y1065121D01*
X682982Y1065506D01*
X683731Y1066317D01*
X689040D01*
X695199Y1060157D01*
Y1058736D01*
X690768D01*
Y1040736D01*
X706768D01*
Y1058736D01*
X702336D01*
Y1061636D01*
X702065Y1063001D01*
X701291Y1064159D01*
X693041Y1072409D01*
X692968Y1072458D01*
X692633Y1074183D01*
X692770Y1074386D01*
X699268D01*
Y1092386D01*
X683268D01*
Y1079688D01*
X681998Y1079303D01*
X681872Y1079491D01*
X680219Y1080596D01*
X678268Y1080984D01*
X676317Y1080596D01*
X674663Y1079491D01*
X673558Y1077837D01*
X673170Y1075886D01*
X673558Y1073935D01*
X674663Y1072281D01*
X676317Y1071176D01*
X676402Y1070906D01*
X675533Y1069438D01*
X675067Y1069346D01*
X673413Y1068241D01*
X672878Y1067440D01*
X653940D01*
X653793Y1068705D01*
X654785Y1069368D01*
X655448Y1070361D01*
X655681Y1071531D01*
X655448Y1072702D01*
X654785Y1073694D01*
X654122Y1074357D01*
X654173Y1074616D01*
X642362D01*
X642413Y1074357D01*
X641750Y1073694D01*
X641087Y1072702D01*
X640854Y1071531D01*
X641087Y1070361D01*
X641750Y1069368D01*
X642743Y1068705D01*
X642595Y1067440D01*
X628268D01*
X627195Y1067226D01*
X626285Y1066618D01*
X622106Y1062440D01*
X574429D01*
X565021Y1071847D01*
X565141Y1072722D01*
X566403Y1073204D01*
X567567Y1072426D01*
X569518Y1072038D01*
X571469Y1072426D01*
X572222Y1072930D01*
X573365Y1072166D01*
X573359Y1072136D01*
X573828Y1069779D01*
X575163Y1067781D01*
X577161Y1066446D01*
X578248Y1066230D01*
Y1072136D01*
Y1078041D01*
X577161Y1077825D01*
X575849Y1076949D01*
X575593Y1076988D01*
X574525Y1077591D01*
X574228Y1079087D01*
X574106Y1079269D01*
Y1087735D01*
X586512Y1100141D01*
X587507Y1101630D01*
X587856Y1103386D01*
Y1133985D01*
X613754Y1159883D01*
X613969Y1159926D01*
X615622Y1161031D01*
X616728Y1162685D01*
X617116Y1164636D01*
X616728Y1166587D01*
X615622Y1168241D01*
X613969Y1169346D01*
X612018Y1169734D01*
X610067Y1169346D01*
X608413Y1168241D01*
X607308Y1166587D01*
X607265Y1166372D01*
X580023Y1139130D01*
X579029Y1137642D01*
X578680Y1135886D01*
Y1105286D01*
X568347Y1094954D01*
X566969Y1095372D01*
X566728Y1096587D01*
X566374Y1097116D01*
X567053Y1098386D01*
X569768D01*
Y1114386D01*
X551768D01*
Y1111729D01*
X550498Y1111202D01*
X546836Y1114864D01*
Y1184636D01*
X546565Y1186001D01*
X545791Y1187159D01*
X509336Y1223614D01*
Y1237222D01*
X510606Y1237901D01*
X511317Y1237426D01*
X513268Y1237038D01*
X515219Y1237426D01*
X515401Y1237548D01*
X613268D01*
X615024Y1237897D01*
X616512Y1238891D01*
X635918Y1258298D01*
X646768D01*
Y1254886D01*
X664768D01*
Y1257543D01*
X666038Y1258069D01*
X669699Y1254408D01*
Y1234773D01*
X667972Y1234057D01*
X665779Y1232374D01*
X664096Y1230181D01*
X663038Y1227627D01*
X662677Y1224886D01*
Y1220886D01*
X663038Y1218145D01*
X664096Y1215590D01*
X665779Y1213397D01*
X667972Y1211714D01*
X670527Y1210656D01*
X673268Y1210295D01*
X676009Y1210656D01*
X678563Y1211714D01*
X680756Y1213397D01*
X682439Y1215590D01*
X683497Y1218145D01*
X683858Y1220886D01*
Y1224886D01*
X683497Y1227627D01*
X682439Y1230181D01*
X680756Y1232374D01*
X678563Y1234057D01*
X676836Y1234773D01*
Y1255886D01*
X676565Y1257251D01*
X675791Y1258409D01*
X668791Y1265409D01*
X667633Y1266183D01*
X666268Y1266454D01*
X664768D01*
Y1270886D01*
X646768D01*
Y1267474D01*
X634018D01*
X632262Y1267125D01*
X630773Y1266130D01*
X611367Y1246724D01*
X570779D01*
Y1246724D01*
X570518Y1247886D01*
X570518Y1247994D01*
Y1258137D01*
X570866Y1259886D01*
X570518Y1261635D01*
Y1271886D01*
X561788D01*
X561018Y1271886D01*
X560518Y1272949D01*
X560518Y1272949D01*
Y1280137D01*
X560866Y1281886D01*
X560518Y1283635D01*
Y1293886D01*
D02*
G37*
G36*
X882338Y1265630D02*
X872818D01*
Y1256110D01*
X882338D01*
Y1265630D01*
D02*
G37*
G36*
X492038Y1258042D02*
Y1253406D01*
X496674D01*
X496457Y1254492D01*
X495122Y1256490D01*
X493124Y1257825D01*
X492038Y1258042D01*
D02*
G37*
G36*
X827038Y1248041D02*
Y1243406D01*
X831673D01*
X831457Y1244492D01*
X830122Y1246490D01*
X828124Y1247825D01*
X827038Y1248041D01*
D02*
G37*
G36*
X824498D02*
X823411Y1247825D01*
X821413Y1246490D01*
X820078Y1244492D01*
X819862Y1243406D01*
X824498D01*
Y1248041D01*
D02*
G37*
G36*
X496674Y1250866D02*
X492038D01*
Y1246230D01*
X493124Y1246446D01*
X495122Y1247781D01*
X496457Y1249779D01*
X496674Y1250866D01*
D02*
G37*
G36*
X489498D02*
X484862D01*
X485078Y1249779D01*
X486413Y1247781D01*
X488411Y1246446D01*
X489498Y1246230D01*
Y1250866D01*
D02*
G37*
G36*
X628248Y1192116D02*
X623612D01*
X623828Y1191029D01*
X625163Y1189031D01*
X627161Y1187696D01*
X628248Y1187480D01*
Y1192116D01*
D02*
G37*
G36*
X609498Y1117116D02*
X604862D01*
X605078Y1116029D01*
X606413Y1114031D01*
X608411Y1112696D01*
X609498Y1112480D01*
Y1117116D01*
D02*
G37*
G36*
X661308Y1115676D02*
X652038D01*
Y1107906D01*
X661308D01*
Y1115676D01*
D02*
G37*
G36*
X560768Y1175950D02*
X558810Y1175693D01*
X556985Y1174937D01*
X555419Y1173735D01*
X554216Y1172168D01*
X553461Y1170344D01*
X553203Y1168386D01*
X553461Y1166428D01*
X554216Y1164603D01*
X555419Y1163037D01*
X556985Y1161834D01*
X557199Y1161746D01*
Y1133386D01*
X551768D01*
Y1117386D01*
X569768D01*
Y1133386D01*
X564336D01*
Y1161746D01*
X564550Y1161834D01*
X566117Y1163037D01*
X567319Y1164603D01*
X568075Y1166428D01*
X568332Y1168386D01*
X568075Y1170344D01*
X567319Y1172168D01*
X566117Y1173735D01*
X564550Y1174937D01*
X562726Y1175693D01*
X560768Y1175950D01*
D02*
G37*
G36*
X616674Y1117116D02*
X612038D01*
Y1112480D01*
X613125Y1112696D01*
X615122Y1114031D01*
X616457Y1116029D01*
X616674Y1117116D01*
D02*
G37*
G36*
X716998Y1110541D02*
X715911Y1110325D01*
X713913Y1108990D01*
X712578Y1106992D01*
X712362Y1105906D01*
X716998D01*
Y1110541D01*
D02*
G37*
G36*
X451808Y1124334D02*
X449263Y1123999D01*
X446891Y1123017D01*
X444854Y1121454D01*
X443291Y1119417D01*
X442309Y1117045D01*
X441974Y1114500D01*
X442309Y1111955D01*
X443291Y1109583D01*
X444854Y1107546D01*
X446891Y1105983D01*
X449263Y1105001D01*
X451808Y1104666D01*
X454353Y1105001D01*
X456725Y1105983D01*
X458762Y1107546D01*
X460325Y1109583D01*
X461307Y1111955D01*
X461642Y1114500D01*
X461307Y1117045D01*
X460325Y1119417D01*
X458762Y1121454D01*
X456725Y1123017D01*
X454353Y1123999D01*
X451808Y1124334D01*
D02*
G37*
G36*
X649498Y1115676D02*
X640228D01*
Y1107906D01*
X649498D01*
Y1115676D01*
D02*
G37*
G36*
X719538Y1110541D02*
Y1105906D01*
X724174D01*
X723957Y1106992D01*
X722622Y1108990D01*
X720624Y1110325D01*
X719538Y1110541D01*
D02*
G37*
G36*
X794558Y1131366D02*
X785788D01*
Y1123596D01*
X794558D01*
Y1131366D01*
D02*
G37*
G36*
X783248D02*
X774478D01*
Y1123596D01*
X783248D01*
Y1131366D01*
D02*
G37*
G36*
X701308Y1134116D02*
X692038D01*
Y1126346D01*
X701308D01*
Y1134116D01*
D02*
G37*
G36*
X689498D02*
X680228D01*
Y1126346D01*
X689498D01*
Y1134116D01*
D02*
G37*
G36*
X612038Y1124292D02*
Y1119656D01*
X616674D01*
X616457Y1120742D01*
X615122Y1122740D01*
X613125Y1124075D01*
X612038Y1124292D01*
D02*
G37*
G36*
X609498D02*
X608411Y1124075D01*
X606413Y1122740D01*
X605078Y1120742D01*
X604862Y1119656D01*
X609498D01*
Y1124292D01*
D02*
G37*
G36*
X664173Y1127116D02*
X659538D01*
Y1122480D01*
X660624Y1122696D01*
X662622Y1124031D01*
X663957Y1126029D01*
X664173Y1127116D01*
D02*
G37*
G36*
X656998D02*
X652362D01*
X652578Y1126029D01*
X653913Y1124031D01*
X655911Y1122696D01*
X656998Y1122480D01*
Y1127116D01*
D02*
G37*
G36*
X426408Y1124334D02*
X423863Y1123999D01*
X421491Y1123017D01*
X419454Y1121454D01*
X417891Y1119417D01*
X416909Y1117045D01*
X416574Y1114500D01*
X416909Y1111955D01*
X417891Y1109583D01*
X419454Y1107546D01*
X421491Y1105983D01*
X423863Y1105001D01*
X426408Y1104666D01*
X428953Y1105001D01*
X431325Y1105983D01*
X433362Y1107546D01*
X434925Y1109583D01*
X435907Y1111955D01*
X436242Y1114500D01*
X435907Y1117045D01*
X434925Y1119417D01*
X433362Y1121454D01*
X431325Y1123017D01*
X428953Y1123999D01*
X426408Y1124334D01*
D02*
G37*
G36*
X725788Y1093042D02*
Y1088406D01*
X730424D01*
X730207Y1089492D01*
X728872Y1091490D01*
X726874Y1092825D01*
X725788Y1093042D01*
D02*
G37*
G36*
X635768Y1105386D02*
X619768D01*
Y1087406D01*
Y1087283D01*
X618498Y1086592D01*
X617808Y1087014D01*
X617808Y1087014D01*
Y1094616D01*
X599728D01*
Y1087176D01*
X598788D01*
Y1078406D01*
X606558D01*
Y1085346D01*
X608518D01*
Y1068136D01*
X624518D01*
Y1085116D01*
X624518Y1086136D01*
X625684Y1086386D01*
X635768D01*
Y1105386D01*
D02*
G37*
G36*
X773308Y1096366D02*
X764538D01*
Y1088596D01*
X773308D01*
Y1096366D01*
D02*
G37*
G36*
X761998D02*
X753228D01*
Y1088596D01*
X761998D01*
Y1096366D01*
D02*
G37*
G36*
X719308Y1093426D02*
X711538D01*
Y1083386D01*
Y1073346D01*
X719308D01*
Y1081949D01*
X720578Y1082504D01*
X722161Y1081446D01*
X723248Y1081230D01*
Y1087136D01*
Y1093042D01*
X722161Y1092825D01*
X720578Y1091767D01*
X719308Y1092322D01*
Y1093426D01*
D02*
G37*
G36*
X883608Y1098934D02*
X881063Y1098599D01*
X878691Y1097617D01*
X876654Y1096054D01*
X875091Y1094017D01*
X874109Y1091645D01*
X873774Y1089100D01*
X874109Y1086555D01*
X875091Y1084183D01*
X876654Y1082146D01*
X878691Y1080583D01*
X881063Y1079601D01*
X883608Y1079266D01*
X886153Y1079601D01*
X888525Y1080583D01*
X890562Y1082146D01*
X892125Y1084183D01*
X893107Y1086555D01*
X893442Y1089100D01*
X893107Y1091645D01*
X892125Y1094017D01*
X890562Y1096054D01*
X888525Y1097617D01*
X886153Y1098599D01*
X883608Y1098934D01*
D02*
G37*
G36*
X708998Y1093426D02*
X701228D01*
Y1084656D01*
X708998D01*
Y1093426D01*
D02*
G37*
G36*
X730424Y1085866D02*
X725788D01*
Y1081230D01*
X726874Y1081446D01*
X728872Y1082781D01*
X730207Y1084779D01*
X730424Y1085866D01*
D02*
G37*
G36*
X724174Y1103366D02*
X719538D01*
Y1098730D01*
X720624Y1098946D01*
X722622Y1100281D01*
X723957Y1102279D01*
X724174Y1103366D01*
D02*
G37*
G36*
X716998D02*
X712362D01*
X712578Y1102279D01*
X713913Y1100281D01*
X715911Y1098946D01*
X716998Y1098730D01*
Y1103366D01*
D02*
G37*
G36*
X773308Y1106676D02*
X764538D01*
Y1098906D01*
X773308D01*
Y1106676D01*
D02*
G37*
G36*
X761998D02*
X753228D01*
Y1098906D01*
X761998D01*
Y1106676D01*
D02*
G37*
G36*
X617808Y1106426D02*
X610038D01*
Y1097156D01*
X617808D01*
Y1106426D01*
D02*
G37*
G36*
X607498D02*
X599728D01*
Y1097156D01*
X607498D01*
Y1106426D01*
D02*
G37*
G36*
X661308Y1105366D02*
X652038D01*
Y1097596D01*
X661308D01*
Y1105366D01*
D02*
G37*
G36*
X649498D02*
X640228D01*
Y1097596D01*
X649498D01*
Y1105366D01*
D02*
G37*
G36*
X621998Y1132116D02*
X617362D01*
X617578Y1131029D01*
X618913Y1129031D01*
X620911Y1127696D01*
X621998Y1127480D01*
Y1132116D01*
D02*
G37*
G36*
X476674Y1163366D02*
X472038D01*
Y1158730D01*
X473125Y1158946D01*
X475122Y1160281D01*
X476457Y1162279D01*
X476674Y1163366D01*
D02*
G37*
G36*
X469498D02*
X464862D01*
X465078Y1162279D01*
X466413Y1160281D01*
X468411Y1158946D01*
X469498Y1158730D01*
Y1163366D01*
D02*
G37*
G36*
X472038Y1170541D02*
Y1165906D01*
X476674D01*
X476457Y1166992D01*
X475122Y1168990D01*
X473125Y1170325D01*
X472038Y1170541D01*
D02*
G37*
G36*
X469498D02*
X468411Y1170325D01*
X466413Y1168990D01*
X465078Y1166992D01*
X464862Y1165906D01*
X469498D01*
Y1170541D01*
D02*
G37*
G36*
X426408Y1175134D02*
X423863Y1174799D01*
X421491Y1173817D01*
X419454Y1172254D01*
X417891Y1170217D01*
X416909Y1167845D01*
X416574Y1165300D01*
X416909Y1162755D01*
X417891Y1160383D01*
X419454Y1158346D01*
X421491Y1156783D01*
X423863Y1155801D01*
X426408Y1155466D01*
X428953Y1155801D01*
X431325Y1156783D01*
X433362Y1158346D01*
X434925Y1160383D01*
X435907Y1162755D01*
X436242Y1165300D01*
X435907Y1167845D01*
X434925Y1170217D01*
X433362Y1172254D01*
X431325Y1173817D01*
X428953Y1174799D01*
X426408Y1175134D01*
D02*
G37*
G36*
X763248Y1160426D02*
X754478D01*
Y1152656D01*
X763248D01*
Y1160426D01*
D02*
G37*
G36*
X883608Y1175134D02*
X881063Y1174799D01*
X878691Y1173817D01*
X876654Y1172254D01*
X875091Y1170217D01*
X874109Y1167845D01*
X873774Y1165300D01*
X874109Y1162755D01*
X875091Y1160383D01*
X876654Y1158346D01*
X878691Y1156783D01*
X881063Y1155801D01*
X883608Y1155466D01*
X886153Y1155801D01*
X888525Y1156783D01*
X890562Y1158346D01*
X892125Y1160383D01*
X893107Y1162755D01*
X893442Y1165300D01*
X893107Y1167845D01*
X892125Y1170217D01*
X890562Y1172254D01*
X888525Y1173817D01*
X886153Y1174799D01*
X883608Y1175134D01*
D02*
G37*
G36*
X451808D02*
X449263Y1174799D01*
X446891Y1173817D01*
X444854Y1172254D01*
X443291Y1170217D01*
X442309Y1167845D01*
X441974Y1165300D01*
X442309Y1162755D01*
X443291Y1160383D01*
X444854Y1158346D01*
X446891Y1156783D01*
X449263Y1155801D01*
X451808Y1155466D01*
X454353Y1155801D01*
X456725Y1156783D01*
X458762Y1158346D01*
X460325Y1160383D01*
X461307Y1162755D01*
X461642Y1165300D01*
X461307Y1167845D01*
X460325Y1170217D01*
X458762Y1172254D01*
X456725Y1173817D01*
X454353Y1174799D01*
X451808Y1175134D01*
D02*
G37*
G36*
X691308Y1188176D02*
X682038D01*
Y1180406D01*
X691308D01*
Y1188176D01*
D02*
G37*
G36*
X679498D02*
X670228D01*
Y1180406D01*
X679498D01*
Y1188176D01*
D02*
G37*
G36*
X451808Y1200534D02*
X449263Y1200199D01*
X446891Y1199217D01*
X444854Y1197654D01*
X443291Y1195617D01*
X442309Y1193245D01*
X441974Y1190700D01*
X442309Y1188155D01*
X443291Y1185783D01*
X444854Y1183746D01*
X446891Y1182183D01*
X449263Y1181201D01*
X451808Y1180866D01*
X454353Y1181201D01*
X456725Y1182183D01*
X458762Y1183746D01*
X460325Y1185783D01*
X461307Y1188155D01*
X461642Y1190700D01*
X461307Y1193245D01*
X460325Y1195617D01*
X458762Y1197654D01*
X456725Y1199217D01*
X454353Y1200199D01*
X451808Y1200534D01*
D02*
G37*
G36*
X426408D02*
X423863Y1200199D01*
X421491Y1199217D01*
X419454Y1197654D01*
X417891Y1195617D01*
X416909Y1193245D01*
X416574Y1190700D01*
X416909Y1188155D01*
X417891Y1185783D01*
X419454Y1183746D01*
X421491Y1182183D01*
X423863Y1181201D01*
X426408Y1180866D01*
X428953Y1181201D01*
X431325Y1182183D01*
X433362Y1183746D01*
X434925Y1185783D01*
X435907Y1188155D01*
X436242Y1190700D01*
X435907Y1193245D01*
X434925Y1195617D01*
X433362Y1197654D01*
X431325Y1199217D01*
X428953Y1200199D01*
X426408Y1200534D01*
D02*
G37*
G36*
X691308Y1177866D02*
X682038D01*
Y1170096D01*
X691308D01*
Y1177866D01*
D02*
G37*
G36*
X679498D02*
X670228D01*
Y1170096D01*
X679498D01*
Y1177866D01*
D02*
G37*
G36*
X883608Y1200534D02*
X881063Y1200199D01*
X878691Y1199217D01*
X876654Y1197654D01*
X875091Y1195617D01*
X874109Y1193245D01*
X873774Y1190700D01*
X874109Y1188155D01*
X874464Y1187297D01*
X867106Y1179940D01*
X860902D01*
X860753Y1181201D01*
X863125Y1182183D01*
X865162Y1183746D01*
X866725Y1185783D01*
X867707Y1188155D01*
X868042Y1190700D01*
X867707Y1193245D01*
X866725Y1195617D01*
X865162Y1197654D01*
X863125Y1199217D01*
X860753Y1200199D01*
X858208Y1200534D01*
X855663Y1200199D01*
X853291Y1199217D01*
X851254Y1197654D01*
X849691Y1195617D01*
X848709Y1193245D01*
X848374Y1190700D01*
X848709Y1188155D01*
X849691Y1185783D01*
X851254Y1183746D01*
X853291Y1182183D01*
X855663Y1181201D01*
X855514Y1179940D01*
X849518D01*
X848445Y1179726D01*
X847535Y1179118D01*
X827996Y1159579D01*
X826378Y1159757D01*
X825666Y1160684D01*
X824027Y1161943D01*
X822117Y1162734D01*
X820068Y1163003D01*
X807368D01*
X805319Y1162734D01*
X803409Y1161943D01*
X801769Y1160684D01*
X800511Y1159045D01*
X800349Y1158654D01*
X793518D01*
Y1159636D01*
X775828D01*
X775518Y1159636D01*
X774558Y1160384D01*
Y1160426D01*
X765788D01*
Y1151386D01*
Y1142346D01*
X773288D01*
X773485Y1142346D01*
X773485D01*
X773803Y1142132D01*
X773994Y1142003D01*
X773994D01*
X774440Y1141701D01*
X774474Y1141678D01*
X774478Y1141676D01*
X774478Y1141676D01*
Y1141675D01*
Y1141675D01*
Y1141675D01*
X774478Y1141441D01*
Y1141437D01*
Y1141298D01*
Y1141288D01*
Y1141279D01*
Y1141276D01*
Y1141270D01*
Y1141270D01*
Y1141270D01*
Y1141270D01*
Y1141270D01*
Y1141270D01*
Y1141270D01*
Y1141207D01*
X774478Y1141076D01*
Y1141076D01*
Y1141076D01*
X774478Y1141076D01*
X774478Y1141006D01*
Y1140934D01*
X774478Y1140912D01*
Y1140867D01*
Y1133906D01*
X783248D01*
Y1141676D01*
X775748D01*
X775748D01*
X775747D01*
X775550Y1141676D01*
X775550D01*
D01*
X775518Y1141698D01*
X775486Y1141719D01*
X775480Y1141723D01*
X775480D01*
X775479Y1141724D01*
X775387Y1141786D01*
X775318Y1141833D01*
X775268Y1141866D01*
Y1141866D01*
X775268Y1141866D01*
X775268Y1141866D01*
X775268Y1141874D01*
X775267Y1141905D01*
X775260Y1142137D01*
X775251Y1142476D01*
X775369Y1142715D01*
X776408Y1143636D01*
X793518D01*
Y1151517D01*
X800349D01*
X800511Y1151127D01*
X801769Y1149487D01*
X803409Y1148229D01*
X805319Y1147438D01*
X807368Y1147168D01*
X820068D01*
X822117Y1147438D01*
X824027Y1148229D01*
X825666Y1149487D01*
X826925Y1151127D01*
X827403Y1152282D01*
X827468D01*
X828541Y1152495D01*
X829450Y1153103D01*
X850679Y1174332D01*
X851876D01*
X852307Y1173062D01*
X851254Y1172254D01*
X849691Y1170217D01*
X848709Y1167845D01*
X848374Y1165300D01*
X848709Y1162755D01*
X849691Y1160383D01*
X851254Y1158346D01*
X853291Y1156783D01*
X855663Y1155801D01*
X858208Y1155466D01*
X860753Y1155801D01*
X863125Y1156783D01*
X865162Y1158346D01*
X866725Y1160383D01*
X867707Y1162755D01*
X868042Y1165300D01*
X867707Y1167845D01*
X866725Y1170217D01*
X865162Y1172254D01*
X864109Y1173062D01*
X864540Y1174332D01*
X868268D01*
X869341Y1174545D01*
X870250Y1175153D01*
X877893Y1182796D01*
X878691Y1182183D01*
X881063Y1181201D01*
X883608Y1180866D01*
X886153Y1181201D01*
X888525Y1182183D01*
X890562Y1183746D01*
X892125Y1185783D01*
X893107Y1188155D01*
X893442Y1190700D01*
X893107Y1193245D01*
X892125Y1195617D01*
X890562Y1197654D01*
X888525Y1199217D01*
X886153Y1200199D01*
X883608Y1200534D01*
D02*
G37*
G36*
X794558Y1185116D02*
X785788D01*
Y1177346D01*
X794558D01*
Y1185116D01*
D02*
G37*
G36*
X690268Y1168136D02*
X671268D01*
Y1152136D01*
X690268D01*
Y1168136D01*
D02*
G37*
G36*
X785788Y1141676D02*
Y1133906D01*
X794558D01*
Y1141676D01*
X785788D01*
D02*
G37*
G36*
X451808Y1149734D02*
X449263Y1149399D01*
X446891Y1148417D01*
X444854Y1146854D01*
X443291Y1144817D01*
X442309Y1142445D01*
X441974Y1139900D01*
X442309Y1137355D01*
X443291Y1134983D01*
X444854Y1132946D01*
X446891Y1131383D01*
X449263Y1130401D01*
X451808Y1130066D01*
X454353Y1130401D01*
X456725Y1131383D01*
X458762Y1132946D01*
X460325Y1134983D01*
X461307Y1137355D01*
X461642Y1139900D01*
X461307Y1142445D01*
X460325Y1144817D01*
X458762Y1146854D01*
X456725Y1148417D01*
X454353Y1149399D01*
X451808Y1149734D01*
D02*
G37*
G36*
X624538Y1139291D02*
Y1134656D01*
X629174D01*
X628957Y1135742D01*
X627622Y1137740D01*
X625625Y1139075D01*
X624538Y1139291D01*
D02*
G37*
G36*
X621998D02*
X620911Y1139075D01*
X618913Y1137740D01*
X617578Y1135742D01*
X617362Y1134656D01*
X621998D01*
Y1139291D01*
D02*
G37*
G36*
X656998Y1134291D02*
X655911Y1134075D01*
X653913Y1132740D01*
X652578Y1130742D01*
X652362Y1129656D01*
X656998D01*
Y1134291D01*
D02*
G37*
G36*
X629174Y1132116D02*
X624538D01*
Y1127480D01*
X625625Y1127696D01*
X627622Y1129031D01*
X628957Y1131029D01*
X629174Y1132116D01*
D02*
G37*
G36*
X883608Y1149734D02*
X881063Y1149399D01*
X878691Y1148417D01*
X876654Y1146854D01*
X875091Y1144817D01*
X874109Y1142445D01*
X873774Y1139900D01*
X874109Y1137355D01*
X874984Y1135241D01*
X869682Y1129940D01*
X862958D01*
X862706Y1131210D01*
X863125Y1131383D01*
X865162Y1132946D01*
X866725Y1134983D01*
X867707Y1137355D01*
X868042Y1139900D01*
X867707Y1142445D01*
X866725Y1144817D01*
X865162Y1146854D01*
X863125Y1148417D01*
X860753Y1149399D01*
X858208Y1149734D01*
X855663Y1149399D01*
X853291Y1148417D01*
X851254Y1146854D01*
X849691Y1144817D01*
X848709Y1142445D01*
X848374Y1139900D01*
X848709Y1137355D01*
X849691Y1134983D01*
X851254Y1132946D01*
X853291Y1131383D01*
X853711Y1131210D01*
X853458Y1129940D01*
X827952D01*
X827716Y1131735D01*
X826925Y1133645D01*
X825666Y1135284D01*
X824027Y1136543D01*
X822117Y1137334D01*
X820068Y1137604D01*
X807368D01*
X805319Y1137334D01*
X803409Y1136543D01*
X801769Y1135284D01*
X800511Y1133645D01*
X799720Y1131735D01*
X799450Y1129686D01*
X799720Y1127636D01*
X800511Y1125727D01*
X801032Y1125047D01*
X796190Y1120204D01*
X772268D01*
Y1124636D01*
X754268D01*
Y1108636D01*
X772268D01*
Y1113067D01*
X797668D01*
X799033Y1113339D01*
X800191Y1114112D01*
X807847Y1121768D01*
X820068D01*
X822117Y1122038D01*
X824027Y1122829D01*
X825666Y1124087D01*
X825854Y1124332D01*
X853148D01*
X853400Y1123062D01*
X853291Y1123017D01*
X851254Y1121454D01*
X849691Y1119417D01*
X848709Y1117045D01*
X848374Y1114500D01*
X848709Y1111955D01*
X849691Y1109583D01*
X851254Y1107546D01*
X853291Y1105983D01*
X855663Y1105001D01*
X858208Y1104666D01*
X860753Y1105001D01*
X863125Y1105983D01*
X865162Y1107546D01*
X866725Y1109583D01*
X867707Y1111955D01*
X868042Y1114500D01*
X867707Y1117045D01*
X866725Y1119417D01*
X865162Y1121454D01*
X863125Y1123017D01*
X863016Y1123062D01*
X863268Y1124332D01*
X870844D01*
X871917Y1124545D01*
X872826Y1125153D01*
X878950Y1131276D01*
X881063Y1130401D01*
X883608Y1130066D01*
X886153Y1130401D01*
X888525Y1131383D01*
X890562Y1132946D01*
X892125Y1134983D01*
X893107Y1137355D01*
X893442Y1139900D01*
X893107Y1142445D01*
X892125Y1144817D01*
X890562Y1146854D01*
X888525Y1148417D01*
X886153Y1149399D01*
X883608Y1149734D01*
D02*
G37*
G36*
X659538Y1134291D02*
Y1129656D01*
X664173D01*
X663957Y1130742D01*
X662622Y1132740D01*
X660624Y1134075D01*
X659538Y1134291D01*
D02*
G37*
G36*
X763248Y1150116D02*
X754478D01*
Y1142346D01*
X763248D01*
Y1150116D01*
D02*
G37*
G36*
X426408Y1149734D02*
X423863Y1149399D01*
X421491Y1148417D01*
X419454Y1146854D01*
X417891Y1144817D01*
X416909Y1142445D01*
X416761Y1141323D01*
X415440Y1141015D01*
X415122Y1141490D01*
X413124Y1142825D01*
X412038Y1143041D01*
Y1137136D01*
X410768D01*
Y1135866D01*
X404862D01*
X405078Y1134779D01*
X406413Y1132781D01*
X408411Y1131446D01*
X410663Y1130998D01*
X411258Y1130060D01*
X411350Y1129889D01*
X406994Y1125533D01*
X406221Y1124375D01*
X405949Y1123010D01*
Y1019636D01*
X406221Y1018270D01*
X406994Y1017112D01*
X443449Y980658D01*
Y929636D01*
X443721Y928270D01*
X444494Y927112D01*
X460518Y911089D01*
Y898136D01*
X477316D01*
X478518Y898136D01*
X478518D01*
X478577Y898125D01*
X478577D01*
X479731Y897775D01*
X480078Y896029D01*
X481413Y894031D01*
X483411Y892696D01*
X484498Y892480D01*
Y898386D01*
Y904291D01*
X483411Y904075D01*
X481413Y902740D01*
X480078Y900742D01*
X479875Y899720D01*
X478750Y899384D01*
X478737Y899386D01*
X478518Y900539D01*
Y916136D01*
X465564D01*
X450586Y931114D01*
Y982136D01*
X450315Y983501D01*
X449541Y984659D01*
X413086Y1021114D01*
Y1121532D01*
X422514Y1130959D01*
X423863Y1130401D01*
X426408Y1130066D01*
X428953Y1130401D01*
X431325Y1131383D01*
X433362Y1132946D01*
X434925Y1134983D01*
X435907Y1137355D01*
X436242Y1139900D01*
X435907Y1142445D01*
X434925Y1144817D01*
X433362Y1146854D01*
X431325Y1148417D01*
X428953Y1149399D01*
X426408Y1149734D01*
D02*
G37*
G36*
X718288Y1148041D02*
Y1143406D01*
X722923D01*
X722707Y1144492D01*
X721372Y1146490D01*
X719374Y1147825D01*
X718288Y1148041D01*
D02*
G37*
G36*
X715748D02*
X714661Y1147825D01*
X712663Y1146490D01*
X711328Y1144492D01*
X711112Y1143406D01*
X715748D01*
Y1148041D01*
D02*
G37*
G36*
X689498Y1144426D02*
X680228D01*
Y1136656D01*
X689498D01*
Y1144426D01*
D02*
G37*
G36*
X715748Y1140866D02*
X711112D01*
X711328Y1139779D01*
X712663Y1137781D01*
X714661Y1136446D01*
X715748Y1136230D01*
Y1140866D01*
D02*
G37*
G36*
X409498Y1143041D02*
X408411Y1142825D01*
X406413Y1141490D01*
X405078Y1139492D01*
X404862Y1138406D01*
X409498D01*
Y1143041D01*
D02*
G37*
G36*
X701308Y1144426D02*
X692038D01*
Y1136656D01*
X701308D01*
Y1144426D01*
D02*
G37*
%LPD*%
D15*
X648268Y1075886D02*
X652622Y1071531D01*
X643913D02*
X648268Y1075886D01*
D16*
X505768Y1222136D02*
Y1268886D01*
Y1222136D02*
X543268Y1184636D01*
X719818Y1049736D02*
X839518Y930036D01*
X438264Y1287136D02*
X463268D01*
X426408Y1275280D02*
X438264Y1287136D01*
X426408Y1266900D02*
Y1275280D01*
X463268Y1287136D02*
X481518Y1268886D01*
X505768D01*
X500768Y1029636D02*
X517018Y1045886D01*
X485872Y1029636D02*
X500768D01*
X451808Y1063700D02*
X485872Y1029636D01*
X550268Y1106386D02*
X560768D01*
X543268Y1113386D02*
X550268Y1106386D01*
X543268Y1113386D02*
Y1184636D01*
X810718Y1180486D02*
X822868D01*
X763268Y1116636D02*
X797668D01*
X810718Y1129686D01*
X787968Y1155086D02*
X810718D01*
X764518Y1170886D02*
X797018D01*
X806618Y1180486D01*
X810718D01*
X784518Y1205386D02*
X810218D01*
X734518Y1155086D02*
Y1180486D01*
Y1129686D02*
Y1155086D01*
X791268Y1268886D02*
X804518D01*
X734518Y1212136D02*
X791268Y1268886D01*
X734518Y1205886D02*
Y1212136D01*
Y1180486D02*
Y1205886D01*
X655768Y1198636D02*
Y1243886D01*
Y1262886D02*
X666268D01*
X673268Y1255886D01*
Y1220886D02*
Y1255886D01*
X409518Y1123010D02*
X426408Y1139900D01*
X409518Y1019636D02*
Y1123010D01*
Y1019636D02*
X447018Y982136D01*
Y929636D02*
Y982136D01*
Y929636D02*
X469518Y907136D01*
X560768Y1125386D02*
Y1168386D01*
X507018Y1086886D02*
Y1168386D01*
X517018Y1045886D02*
Y1064886D01*
X678268Y1074936D02*
X683318Y1069886D01*
X690518D01*
X698768Y1061636D01*
Y1049736D02*
Y1061636D01*
D17*
X513268Y1242136D02*
X613268D01*
X634018Y1262886D02*
X655768D01*
X613268Y1242136D02*
X634018Y1262886D01*
X583268Y1135886D02*
X612018Y1164636D01*
X583268Y1103386D02*
Y1135886D01*
X569518Y1089636D02*
X583268Y1103386D01*
X569518Y1077136D02*
Y1089636D01*
X537018Y1033386D02*
Y1077136D01*
D18*
X718268Y1039636D02*
Y1049636D01*
X682018Y1003386D02*
X718268Y1039636D01*
X625768Y1003386D02*
X682018D01*
X623268Y1000886D02*
X625768Y1003386D01*
X623268Y991136D02*
Y1000886D01*
X688268Y1117136D02*
X721968D01*
X734518Y1129686D01*
X477018Y1052136D02*
X488268Y1040886D01*
X477018Y1052136D02*
Y1143386D01*
X502668Y1012136D02*
X535668Y979136D01*
X452018Y1012136D02*
X502668D01*
X480268Y1004636D02*
X505768Y979136D01*
X515018D01*
X519518Y974636D01*
Y947136D02*
Y974636D01*
Y947136D02*
X530968Y935686D01*
Y927536D02*
Y935686D01*
X535668Y979136D02*
X550018D01*
X556368Y972786D01*
Y927536D02*
Y972786D01*
X440768Y1004636D02*
X480268D01*
X527618Y930886D02*
X530968Y927536D01*
X426408Y1018996D02*
X440768Y1004636D01*
X557018Y1069636D02*
Y1084636D01*
X553268Y1088386D02*
X557018Y1084636D01*
X552018Y1064636D02*
Y1077136D01*
X534518Y1094636D02*
X552018Y1077136D01*
X534518Y1094636D02*
Y1182136D01*
X544518Y1053386D02*
Y1078475D01*
X539607Y1083386D02*
X544518Y1078475D01*
X539518Y1083386D02*
X539607D01*
X525768Y1097136D02*
X539518Y1083386D01*
X525768Y1097136D02*
Y1175886D01*
X557018Y1069636D02*
X572018Y1054636D01*
X627018D01*
X632018Y1059636D01*
X673179D01*
X674429Y1058386D01*
X683268D01*
X684518Y1059636D01*
X562018Y1070886D02*
Y1094636D01*
Y1070886D02*
X573268Y1059636D01*
X623268D01*
X628268Y1064636D01*
X677018D01*
X552018Y1064636D02*
X617018Y999636D01*
X544518Y1053386D02*
X605268Y992636D01*
X617018Y967136D02*
Y999636D01*
X487018Y1229636D02*
X534518Y1182136D01*
X485554Y1216100D02*
X525768Y1175886D01*
X426408Y1241500D02*
X438272Y1229636D01*
X487018D01*
X617018Y967136D02*
X635768Y948386D01*
X683268D01*
X605268Y989636D02*
Y992636D01*
X451808Y1216100D02*
X485554D01*
X605268Y966386D02*
Y989636D01*
Y966386D02*
X623268Y948386D01*
X701268Y966386D02*
Y989636D01*
X683268Y948386D02*
X701268Y966386D01*
X839518Y904636D02*
X858268Y923386D01*
Y965886D01*
X903268Y1010886D01*
Y1094840D01*
X883608Y1114500D02*
X903268Y1094840D01*
X481268Y1287886D02*
X505768D01*
X805018Y1287386D02*
X828268D01*
X870844Y1127136D02*
X883608Y1139900D01*
X810718Y1127136D02*
X870844D01*
X810718D02*
Y1129686D01*
Y1205886D02*
Y1217086D01*
X823542Y1229910D01*
X872018D01*
X883608Y1241500D01*
X872144Y1204636D02*
X883608Y1216100D01*
X847018Y1204636D02*
X872144D01*
X822868Y1180486D02*
X847018Y1204636D01*
X810718Y1155086D02*
X827468D01*
X849518Y1177136D01*
X868268D01*
X881832Y1190700D01*
X883608D01*
X426408Y1018996D02*
Y1038300D01*
X439518Y1024636D02*
X452018Y1012136D01*
X439518Y1024636D02*
Y1050590D01*
X426408Y1063700D02*
X439518Y1050590D01*
D22*
X637018Y929636D02*
D03*
X602018D02*
D03*
X708268D02*
D03*
X673268D02*
D03*
D23*
X638268Y1222886D02*
D03*
X673268D02*
D03*
D24*
X731518Y1205886D02*
D03*
D25*
X813718Y1129686D02*
D03*
Y1155086D02*
D03*
Y1180486D02*
D03*
Y1205886D02*
D03*
X731518Y1129686D02*
D03*
Y1155086D02*
D03*
Y1180486D02*
D03*
D26*
X510768Y1168386D02*
D03*
X560768D02*
D03*
D27*
X556368Y927536D02*
D03*
X543668Y902136D02*
D03*
X530968Y927536D02*
D03*
X518268Y902136D02*
D03*
X839518Y930036D02*
D03*
Y955436D02*
D03*
X469518Y932536D02*
D03*
Y957936D02*
D03*
X883268Y931286D02*
D03*
Y956686D02*
D03*
X427018Y931286D02*
D03*
Y956686D02*
D03*
D28*
X504268Y920136D02*
D03*
D29*
X839518Y904636D02*
D03*
X469518Y907136D02*
D03*
X883268Y905886D02*
D03*
X427018D02*
D03*
D30*
X883608Y1038300D02*
D03*
Y1063700D02*
D03*
Y1089100D02*
D03*
Y1165300D02*
D03*
Y1139900D02*
D03*
Y1114500D02*
D03*
Y1241500D02*
D03*
Y1216100D02*
D03*
Y1190700D02*
D03*
X858208Y1266900D02*
D03*
Y1190700D02*
D03*
Y1216100D02*
D03*
Y1241500D02*
D03*
Y1114500D02*
D03*
Y1139900D02*
D03*
Y1165300D02*
D03*
Y1089100D02*
D03*
Y1063700D02*
D03*
Y1038300D02*
D03*
X451808D02*
D03*
Y1063700D02*
D03*
Y1089100D02*
D03*
Y1165300D02*
D03*
Y1139900D02*
D03*
Y1114500D02*
D03*
Y1241500D02*
D03*
Y1216100D02*
D03*
Y1190700D02*
D03*
X426408Y1266900D02*
D03*
Y1190700D02*
D03*
Y1216100D02*
D03*
Y1241500D02*
D03*
Y1114500D02*
D03*
Y1139900D02*
D03*
Y1165300D02*
D03*
Y1089100D02*
D03*
Y1063700D02*
D03*
Y1038300D02*
D03*
D31*
X883608Y1266900D02*
D03*
X451808D02*
D03*
D32*
X658268Y1128386D02*
D03*
X709518Y1207136D02*
D03*
X674518Y1195886D02*
D03*
X717018Y1142136D02*
D03*
X718268Y1104636D02*
D03*
X752018Y1057136D02*
D03*
X724518Y1087136D02*
D03*
X688268Y1028386D02*
D03*
X825768Y1242136D02*
D03*
X623268Y1133386D02*
D03*
X629518Y1193386D02*
D03*
X618268Y1200886D02*
D03*
X610768Y1229636D02*
D03*
Y1118386D02*
D03*
X579518Y1072136D02*
D03*
X592018Y1038386D02*
D03*
X648268Y1075886D02*
D03*
X497018Y938386D02*
D03*
X485768Y898386D02*
D03*
Y979636D02*
D03*
X455768Y992136D02*
D03*
X422018Y987136D02*
D03*
X408268Y914636D02*
D03*
X410768Y1137136D02*
D03*
X470768Y1164636D02*
D03*
X412018Y1229636D02*
D03*
X479518Y1203386D02*
D03*
X490768Y1252136D02*
D03*
X472018Y1235886D02*
D03*
X410768Y1292136D02*
D03*
X897018D02*
D03*
X734938Y909636D02*
D03*
X765768Y967136D02*
D03*
X802018Y900886D02*
D03*
X877018Y1008386D02*
D03*
X822018Y963386D02*
D03*
X904518Y899636D02*
D03*
X890768Y979636D02*
D03*
X814518Y933386D02*
D03*
X623268Y991136D02*
D03*
X513268Y1242136D02*
D03*
X479518Y1004636D02*
D03*
X488268Y1040886D02*
D03*
X477018Y1143386D02*
D03*
X535568Y959636D02*
D03*
X505668Y959636D02*
D03*
X553268Y1088386D02*
D03*
X562018Y1094636D02*
D03*
X616518Y1077136D02*
D03*
X627768Y1095886D02*
D03*
X680768Y1158386D02*
D03*
X612018Y1164636D02*
D03*
X569518Y1077136D02*
D03*
X537018D02*
D03*
Y1033386D02*
D03*
X560668Y1105886D02*
D03*
X650768Y1086636D02*
D03*
X565768Y1259886D02*
D03*
X623268Y948386D02*
D03*
X683268D02*
D03*
X480768Y1287386D02*
D03*
X555768Y1281886D02*
D03*
X828268Y1287386D02*
D03*
X688268Y1117136D02*
D03*
X655768Y1198636D02*
D03*
X684518Y1059636D02*
D03*
X677018Y1064636D02*
D03*
X678268Y1075886D02*
D03*
X691268Y1080886D02*
D03*
X718268Y1049636D02*
D03*
D33*
X660518Y1025636D02*
D03*
Y1013636D02*
D03*
X648518Y1025636D02*
D03*
Y1013636D02*
D03*
D34*
X535668Y979136D02*
D03*
Y960136D02*
D03*
X505768Y979136D02*
D03*
Y960136D02*
D03*
X784518Y1186386D02*
D03*
Y1205386D02*
D03*
X764518Y1151386D02*
D03*
Y1170386D02*
D03*
X784518Y1132636D02*
D03*
Y1151636D02*
D03*
X763268Y1097636D02*
D03*
Y1116636D02*
D03*
X560768Y1125386D02*
D03*
Y1106386D02*
D03*
X655768Y1243886D02*
D03*
Y1262886D02*
D03*
X804518Y1287886D02*
D03*
Y1268886D02*
D03*
X505768Y1287886D02*
D03*
Y1268886D02*
D03*
D35*
X517018Y1064886D02*
D03*
X497018D02*
D03*
X507018Y1086886D02*
D03*
X565768Y1259886D02*
D03*
X545768D02*
D03*
X555768Y1281886D02*
D03*
D36*
X710268Y1083386D02*
D03*
X691268D02*
D03*
X717768Y1049736D02*
D03*
X698768D02*
D03*
X616518Y1077136D02*
D03*
X597518D02*
D03*
X586268Y989636D02*
D03*
X605268D02*
D03*
X720268D02*
D03*
X701268D02*
D03*
D37*
X680768Y1179136D02*
D03*
Y1160136D02*
D03*
X690768Y1116386D02*
D03*
Y1135386D02*
D03*
X650768Y1087636D02*
D03*
Y1106636D02*
D03*
D38*
X627768Y1095886D02*
D03*
X608768D02*
D03*
D39*
X752018Y893386D02*
Y908381D01*
X757016Y903382D01*
X762014Y908381D01*
Y893386D01*
X767013D02*
Y908381D01*
X774510D01*
X777010Y905882D01*
Y900883D01*
X774510Y898384D01*
X767013D01*
X752018Y929631D02*
Y914636D01*
Y919634D01*
X762014Y929631D01*
X754517Y922133D01*
X762014Y914636D01*
X767013Y929631D02*
Y914636D01*
Y919634D01*
X777010Y929631D01*
X769512Y922133D01*
X777010Y914636D01*
X760764Y952131D02*
X755766D01*
X758265D01*
Y939635D01*
X755766Y937136D01*
X753267D01*
X750768Y939635D01*
X765763Y952131D02*
Y937136D01*
X775760D01*
X780758Y952131D02*
Y937136D01*
X790755D01*
M02*
