%FSLAX44Y44*%
%MOMM*%
G71*
G01*
G75*
G04 Layer_Color=16711935*
%ADD10R,0.8000X0.3250*%
%ADD11R,0.3250X0.8000*%
%ADD12R,2.8000X2.8000*%
%ADD13O,0.3500X1.7000*%
%ADD14R,1.4000X1.0000*%
%ADD15C,0.3000*%
%ADD16C,0.4000*%
%ADD17C,0.6000*%
%ADD18C,0.2500*%
%ADD19C,0.5000*%
%ADD20C,1.0000*%
%ADD21C,0.2032*%
%ADD22C,1.8000*%
%ADD23O,1.8000X2.2000*%
%ADD24R,2.5400X1.2700*%
%ADD25O,2.5400X1.2700*%
%ADD26C,1.2000*%
%ADD27C,1.5000*%
%ADD28C,1.3000*%
%ADD29R,1.5000X1.5000*%
%ADD30C,1.6500*%
%ADD31R,1.6500X1.6500*%
%ADD32C,0.7000*%
%ADD33C,0.6600*%
%ADD34R,1.5000X1.3000*%
%ADD35R,0.6500X2.1000*%
%ADD36R,1.3000X1.5000*%
%ADD37R,1.6000X1.3000*%
%ADD38R,1.3000X1.6000*%
%ADD39C,0.2540*%
%ADD40R,1.1000X0.6250*%
%ADD41R,0.6250X1.1000*%
%ADD42R,3.0032X3.0032*%
%ADD43O,0.5532X1.9032*%
%ADD44R,1.6032X1.2032*%
%ADD45C,2.0032*%
%ADD46O,2.0032X2.4032*%
%ADD47R,2.7432X1.4732*%
%ADD48O,2.7432X1.4732*%
%ADD49C,1.4032*%
%ADD50C,1.7032*%
%ADD51C,1.5032*%
%ADD52R,1.7032X1.7032*%
%ADD53C,1.8532*%
%ADD54R,1.8532X1.8532*%
%ADD55R,1.7032X1.5032*%
%ADD56R,0.8532X2.3032*%
%ADD57R,1.5032X1.7032*%
%ADD58R,1.8032X1.5032*%
%ADD59R,1.5032X1.8032*%
D45*
X637018Y929636D02*
D03*
X602018D02*
D03*
X708268D02*
D03*
X673268D02*
D03*
D46*
X638268Y1222886D02*
D03*
X673268D02*
D03*
D47*
X731518Y1205886D02*
D03*
D48*
X813718Y1129686D02*
D03*
Y1155086D02*
D03*
Y1180486D02*
D03*
Y1205886D02*
D03*
X731518Y1129686D02*
D03*
Y1155086D02*
D03*
Y1180486D02*
D03*
D49*
X510768Y1168386D02*
D03*
X560768D02*
D03*
D50*
X556368Y927536D02*
D03*
X543668Y902136D02*
D03*
X530968Y927536D02*
D03*
X518268Y902136D02*
D03*
X839518Y930036D02*
D03*
Y955436D02*
D03*
X469518Y932536D02*
D03*
Y957936D02*
D03*
X883268Y931286D02*
D03*
Y956686D02*
D03*
X427018Y931286D02*
D03*
Y956686D02*
D03*
D51*
X504268Y920136D02*
D03*
D52*
X839518Y904636D02*
D03*
X469518Y907136D02*
D03*
X883268Y905886D02*
D03*
X427018D02*
D03*
D53*
X883608Y1038300D02*
D03*
Y1063700D02*
D03*
Y1089100D02*
D03*
Y1165300D02*
D03*
Y1139900D02*
D03*
Y1114500D02*
D03*
Y1241500D02*
D03*
Y1216100D02*
D03*
Y1190700D02*
D03*
X858208Y1266900D02*
D03*
Y1190700D02*
D03*
Y1216100D02*
D03*
Y1241500D02*
D03*
Y1114500D02*
D03*
Y1139900D02*
D03*
Y1165300D02*
D03*
Y1089100D02*
D03*
Y1063700D02*
D03*
Y1038300D02*
D03*
X451808D02*
D03*
Y1063700D02*
D03*
Y1089100D02*
D03*
Y1165300D02*
D03*
Y1139900D02*
D03*
Y1114500D02*
D03*
Y1241500D02*
D03*
Y1216100D02*
D03*
Y1190700D02*
D03*
X426408Y1266900D02*
D03*
Y1190700D02*
D03*
Y1216100D02*
D03*
Y1241500D02*
D03*
Y1114500D02*
D03*
Y1139900D02*
D03*
Y1165300D02*
D03*
Y1089100D02*
D03*
Y1063700D02*
D03*
Y1038300D02*
D03*
D54*
X883608Y1266900D02*
D03*
X451808D02*
D03*
D55*
X535668Y979136D02*
D03*
Y960136D02*
D03*
X505768Y979136D02*
D03*
Y960136D02*
D03*
X784518Y1186386D02*
D03*
Y1205386D02*
D03*
X764518Y1151386D02*
D03*
Y1170386D02*
D03*
X784518Y1132636D02*
D03*
Y1151636D02*
D03*
X763268Y1097636D02*
D03*
Y1116636D02*
D03*
X560768Y1125386D02*
D03*
Y1106386D02*
D03*
X655768Y1243886D02*
D03*
Y1262886D02*
D03*
X804518Y1287886D02*
D03*
Y1268886D02*
D03*
X505768Y1287886D02*
D03*
Y1268886D02*
D03*
D56*
X517018Y1064886D02*
D03*
X497018D02*
D03*
X507018Y1086886D02*
D03*
X565768Y1259886D02*
D03*
X545768D02*
D03*
X555768Y1281886D02*
D03*
D57*
X710268Y1083386D02*
D03*
X691268D02*
D03*
X717768Y1049736D02*
D03*
X698768D02*
D03*
X616518Y1077136D02*
D03*
X597518D02*
D03*
X586268Y989636D02*
D03*
X605268D02*
D03*
X720268D02*
D03*
X701268D02*
D03*
D58*
X680768Y1179136D02*
D03*
Y1160136D02*
D03*
X690768Y1116386D02*
D03*
Y1135386D02*
D03*
X650768Y1087636D02*
D03*
Y1106636D02*
D03*
D59*
X627768Y1095886D02*
D03*
X608768D02*
D03*
M02*
