%FSLAX44Y44*%
%MOMM*%
G71*
G01*
G75*
G04 Layer_Physical_Order=1*
G04 Layer_Color=255*
%ADD10R,0.8000X0.3250*%
%ADD11R,0.3250X0.8000*%
%ADD12R,2.8000X2.8000*%
%ADD13O,0.3500X1.7000*%
%ADD14R,1.4000X1.0000*%
%ADD15C,0.3000*%
%ADD16C,0.4000*%
%ADD17C,0.6000*%
%ADD18C,0.2500*%
%ADD19C,0.5000*%
%ADD20C,1.0000*%
%ADD21C,0.2032*%
%ADD22C,1.8000*%
%ADD23O,1.8000X2.2000*%
%ADD24R,2.5400X1.2700*%
%ADD25O,2.5400X1.2700*%
%ADD26C,1.2000*%
%ADD27C,1.5000*%
%ADD28C,1.3000*%
%ADD29R,1.5000X1.5000*%
%ADD30C,1.6500*%
%ADD31R,1.6500X1.6500*%
%ADD32C,0.7000*%
%ADD33C,0.6600*%
G36*
X909518Y905086D02*
X908248Y904408D01*
X906874Y905325D01*
X905788Y905541D01*
Y899636D01*
Y893730D01*
X906874Y893946D01*
X908248Y894864D01*
X909518Y894185D01*
Y889636D01*
X400768D01*
Y1083579D01*
X402038Y1084105D01*
X417784Y1068359D01*
X416909Y1066245D01*
X416574Y1063700D01*
X416909Y1061155D01*
X417891Y1058783D01*
X419454Y1056746D01*
X421491Y1055183D01*
X423863Y1054201D01*
X426408Y1053866D01*
X428953Y1054201D01*
X431325Y1055183D01*
X433362Y1056746D01*
X434925Y1058783D01*
X435907Y1061155D01*
X436242Y1063700D01*
X435907Y1066245D01*
X434925Y1068617D01*
X433362Y1070654D01*
X431325Y1072217D01*
X428953Y1073199D01*
X426408Y1073534D01*
X423863Y1073199D01*
X421750Y1072324D01*
X406072Y1088002D01*
Y1131482D01*
X407342Y1132161D01*
X408411Y1131446D01*
X409498Y1131230D01*
Y1137136D01*
X412038D01*
Y1131230D01*
X413124Y1131446D01*
X415122Y1132781D01*
X416457Y1134779D01*
X416504Y1135014D01*
X417825Y1135144D01*
X417891Y1134983D01*
X419454Y1132946D01*
X421491Y1131383D01*
X423863Y1130401D01*
X426408Y1130066D01*
X428953Y1130401D01*
X431325Y1131383D01*
X433362Y1132946D01*
X434925Y1134983D01*
X435907Y1137355D01*
X436242Y1139900D01*
X435907Y1142445D01*
X434925Y1144817D01*
X433362Y1146854D01*
X431787Y1148062D01*
X432219Y1149332D01*
X445998D01*
X446429Y1148062D01*
X444854Y1146854D01*
X443291Y1144817D01*
X442309Y1142445D01*
X441974Y1139900D01*
X442309Y1137355D01*
X443291Y1134983D01*
X444854Y1132946D01*
X446891Y1131383D01*
X447311Y1131210D01*
X447058Y1129940D01*
X439044D01*
X437971Y1129726D01*
X437061Y1129118D01*
X431067Y1123124D01*
X428953Y1123999D01*
X426408Y1124334D01*
X423863Y1123999D01*
X421491Y1123017D01*
X419454Y1121454D01*
X417891Y1119417D01*
X416909Y1117045D01*
X416574Y1114500D01*
X416909Y1111955D01*
X417891Y1109583D01*
X419454Y1107546D01*
X421491Y1105983D01*
X423863Y1105001D01*
X426408Y1104666D01*
X428953Y1105001D01*
X431325Y1105983D01*
X433362Y1107546D01*
X434925Y1109583D01*
X435907Y1111955D01*
X436242Y1114500D01*
X435907Y1117045D01*
X435032Y1119158D01*
X440205Y1124332D01*
X446748D01*
X447000Y1123062D01*
X446891Y1123017D01*
X444854Y1121454D01*
X443291Y1119417D01*
X442309Y1117045D01*
X441974Y1114500D01*
X442309Y1111955D01*
X443291Y1109583D01*
X444854Y1107546D01*
X446891Y1105983D01*
X449263Y1105001D01*
X451808Y1104666D01*
X454353Y1105001D01*
X456725Y1105983D01*
X458762Y1107546D01*
X460325Y1109583D01*
X461200Y1111696D01*
X518492D01*
X543785Y1086403D01*
X544695Y1085795D01*
X545768Y1085582D01*
X549128D01*
X549663Y1084781D01*
X551317Y1083676D01*
X553268Y1083288D01*
X555219Y1083676D01*
X556872Y1084781D01*
X557978Y1086435D01*
X558366Y1088386D01*
X558102Y1089711D01*
X559245Y1090475D01*
X560067Y1089926D01*
X562018Y1089538D01*
X563969Y1089926D01*
X565622Y1091031D01*
X566728Y1092685D01*
X567116Y1094636D01*
X566728Y1096587D01*
X565622Y1098241D01*
X563969Y1099346D01*
X562018Y1099734D01*
X560067Y1099346D01*
X558413Y1098241D01*
X557878Y1097440D01*
X549429D01*
X517750Y1129118D01*
X516841Y1129726D01*
X515768Y1129940D01*
X456558D01*
X456306Y1131210D01*
X456725Y1131383D01*
X458762Y1132946D01*
X460325Y1134983D01*
X461307Y1137355D01*
X461642Y1139900D01*
X461307Y1142445D01*
X460325Y1144817D01*
X458762Y1146854D01*
X457187Y1148062D01*
X457618Y1149332D01*
X474707D01*
X475035Y1148157D01*
X475016Y1148062D01*
X473413Y1146991D01*
X472308Y1145337D01*
X471920Y1143386D01*
X472308Y1141435D01*
X473413Y1139781D01*
X475067Y1138676D01*
X477018Y1138288D01*
X478969Y1138676D01*
X480623Y1139781D01*
X481158Y1140582D01*
X621975D01*
X622100Y1139312D01*
X620911Y1139075D01*
X618913Y1137740D01*
X617578Y1135742D01*
X617362Y1134656D01*
X623268D01*
Y1133386D01*
X624538D01*
Y1127480D01*
X625625Y1127696D01*
X627622Y1129031D01*
X627748Y1129219D01*
X629018Y1128833D01*
Y1127761D01*
Y1122761D01*
Y1117761D01*
Y1112761D01*
Y1107711D01*
X638893D01*
Y1097386D01*
X642756D01*
X643282Y1096116D01*
X637106Y1089940D01*
X634429D01*
X631659Y1092710D01*
X632478Y1093935D01*
X632866Y1095886D01*
X632478Y1097837D01*
X631372Y1099491D01*
X629719Y1100596D01*
X627768Y1100984D01*
X627725Y1100975D01*
X619791Y1108909D01*
X618633Y1109683D01*
X617268Y1109954D01*
X563578D01*
X562619Y1110595D01*
X560668Y1110984D01*
X558717Y1110595D01*
X557063Y1109490D01*
X555958Y1107837D01*
X555570Y1105886D01*
X555958Y1103935D01*
X557063Y1102281D01*
X558717Y1101176D01*
X560668Y1100788D01*
X562619Y1101176D01*
X564273Y1102281D01*
X564631Y1102817D01*
X615790D01*
X622678Y1095928D01*
X622670Y1095886D01*
X623058Y1093935D01*
X624163Y1092281D01*
X625168Y1091609D01*
X625177Y1091563D01*
X625785Y1090653D01*
X631285Y1085153D01*
X632195Y1084545D01*
X633268Y1084332D01*
X638268D01*
X639341Y1084545D01*
X640250Y1085153D01*
X649000Y1093903D01*
X649608Y1094813D01*
X649822Y1095886D01*
Y1096346D01*
X650748D01*
Y1102886D01*
X653288D01*
Y1096346D01*
X654214D01*
Y1094047D01*
X651712Y1091546D01*
X650768Y1091734D01*
X648817Y1091346D01*
X647163Y1090240D01*
X646058Y1088587D01*
X645670Y1086636D01*
X646058Y1084685D01*
X647163Y1083031D01*
X646793Y1081751D01*
X645911Y1081575D01*
X643913Y1080240D01*
X642578Y1078242D01*
X642400Y1077346D01*
X641022Y1076928D01*
X638291Y1079659D01*
X637133Y1080433D01*
X635768Y1080704D01*
X620147D01*
X620122Y1080741D01*
X618469Y1081846D01*
X616518Y1082234D01*
X614567Y1081846D01*
X612913Y1080741D01*
X611808Y1079087D01*
X611420Y1077136D01*
X611808Y1075185D01*
X612913Y1073531D01*
X614567Y1072426D01*
X616518Y1072038D01*
X618469Y1072426D01*
X620122Y1073531D01*
X620147Y1073567D01*
X634290D01*
X641199Y1066658D01*
Y1064797D01*
X639929Y1064271D01*
X637041Y1067159D01*
X635883Y1067933D01*
X634518Y1068204D01*
X585502D01*
X584903Y1069324D01*
X585207Y1069779D01*
X585424Y1070866D01*
X579518D01*
Y1072136D01*
X578248D01*
Y1078041D01*
X577161Y1077825D01*
X575849Y1076949D01*
X575593Y1076988D01*
X574525Y1077591D01*
X574228Y1079087D01*
X573123Y1080741D01*
X571469Y1081846D01*
X569518Y1082234D01*
X567567Y1081846D01*
X567385Y1081724D01*
X539151D01*
X538969Y1081846D01*
X537018Y1082234D01*
X535067Y1081846D01*
X533413Y1080741D01*
X532308Y1079087D01*
X531920Y1077136D01*
X532308Y1075185D01*
X533413Y1073531D01*
X535067Y1072426D01*
X537018Y1072038D01*
X538969Y1072426D01*
X539151Y1072548D01*
X567385D01*
X567567Y1072426D01*
X569518Y1072038D01*
X571469Y1072426D01*
X572222Y1072930D01*
X573365Y1072166D01*
X573359Y1072136D01*
X573828Y1069779D01*
X574132Y1069324D01*
X573533Y1068204D01*
X477750D01*
X460748Y1085206D01*
X461307Y1086555D01*
X461642Y1089100D01*
X461307Y1091645D01*
X460325Y1094017D01*
X458762Y1096054D01*
X456725Y1097617D01*
X454353Y1098599D01*
X451808Y1098934D01*
X449263Y1098599D01*
X446891Y1097617D01*
X444854Y1096054D01*
X443291Y1094017D01*
X442309Y1091645D01*
X441974Y1089100D01*
X442309Y1086555D01*
X443291Y1084183D01*
X444854Y1082146D01*
X446891Y1080583D01*
X449263Y1079601D01*
X451808Y1079266D01*
X454353Y1079601D01*
X455702Y1080160D01*
X473749Y1062112D01*
X474907Y1061339D01*
X476272Y1061067D01*
X633040D01*
X634577Y1059530D01*
X634463Y1058250D01*
X633398Y1057705D01*
X633036Y1057947D01*
X631768Y1058199D01*
X630500Y1057947D01*
X629425Y1057229D01*
X628706Y1056154D01*
X628454Y1054886D01*
Y1051704D01*
X461644D01*
X460278Y1051433D01*
X459120Y1050659D01*
X455702Y1047241D01*
X454353Y1047799D01*
X451808Y1048134D01*
X449263Y1047799D01*
X446891Y1046817D01*
X444854Y1045254D01*
X443291Y1043217D01*
X442309Y1040845D01*
X441974Y1038300D01*
X442309Y1035755D01*
X443291Y1033383D01*
X444854Y1031346D01*
X446891Y1029783D01*
X449263Y1028801D01*
X451808Y1028466D01*
X454353Y1028801D01*
X456725Y1029783D01*
X458762Y1031346D01*
X460325Y1033383D01*
X461307Y1035755D01*
X461642Y1038300D01*
X461307Y1040845D01*
X460748Y1042194D01*
X463122Y1044567D01*
X483187D01*
X483866Y1043297D01*
X483558Y1042837D01*
X483170Y1040886D01*
X483558Y1038935D01*
X484663Y1037281D01*
X485464Y1036746D01*
Y1013797D01*
X481088Y1009421D01*
X479518Y1009734D01*
X477567Y1009346D01*
X475913Y1008241D01*
X474808Y1006587D01*
X474420Y1004636D01*
X474808Y1002685D01*
X475913Y1001031D01*
X477567Y999926D01*
X479518Y999538D01*
X481469Y999926D01*
X481633Y1000036D01*
X482443Y999049D01*
X452523Y969130D01*
X451529Y967642D01*
X451180Y965886D01*
Y936536D01*
X429529Y914886D01*
X418018D01*
Y896886D01*
X436018D01*
Y908397D01*
X459012Y931391D01*
X459261Y931764D01*
X460582Y931456D01*
X460749Y930186D01*
X461656Y927997D01*
X463099Y926117D01*
X464979Y924674D01*
X467168Y923767D01*
X469518Y923458D01*
X471867Y923767D01*
X473602Y924486D01*
X497935Y900153D01*
X498845Y899545D01*
X499918Y899332D01*
X509688D01*
X510406Y897597D01*
X511849Y895717D01*
X513729Y894274D01*
X515918Y893367D01*
X518268Y893058D01*
X520617Y893367D01*
X522807Y894274D01*
X524687Y895717D01*
X526129Y897597D01*
X527036Y899786D01*
X527345Y902136D01*
X527036Y904485D01*
X526129Y906674D01*
X524687Y908555D01*
X522807Y909997D01*
X520617Y910904D01*
X518268Y911213D01*
X515918Y910904D01*
X513729Y909997D01*
X511849Y908555D01*
X510406Y906674D01*
X509688Y904940D01*
X501079D01*
X477567Y928451D01*
X478286Y930186D01*
X478595Y932536D01*
X478286Y934885D01*
X477567Y936620D01*
X491500Y950553D01*
X497779Y956832D01*
X501528D01*
X502063Y956031D01*
X503717Y954926D01*
X505668Y954538D01*
X507619Y954926D01*
X509272Y956031D01*
X509808Y956832D01*
X531428D01*
X531963Y956031D01*
X533617Y954926D01*
X535568Y954538D01*
X537519Y954926D01*
X539173Y956031D01*
X540278Y957685D01*
X540666Y959636D01*
X540278Y961587D01*
X539173Y963241D01*
X537519Y964346D01*
X535568Y964734D01*
X533617Y964346D01*
X531963Y963241D01*
X531428Y962440D01*
X509808D01*
X509272Y963241D01*
X507619Y964346D01*
X505668Y964734D01*
X503717Y964346D01*
X502063Y963241D01*
X501528Y962440D01*
X496618D01*
X495545Y962226D01*
X494635Y961618D01*
X493495Y960478D01*
X492322Y960964D01*
Y968474D01*
X512179Y988332D01*
X619128D01*
X619663Y987531D01*
X621317Y986426D01*
X623268Y986038D01*
X625219Y986426D01*
X626873Y987531D01*
X627184Y987997D01*
X628454Y987612D01*
Y984386D01*
X628706Y983118D01*
X629425Y982043D01*
X630500Y981324D01*
X631036Y981218D01*
X631454Y979840D01*
X630236Y978622D01*
X629071Y978468D01*
X627490Y977813D01*
X626132Y976772D01*
X597382Y948022D01*
X596340Y946664D01*
X596012Y945873D01*
X595685Y945083D01*
X595462Y943386D01*
Y937840D01*
X594529Y937124D01*
X592846Y934931D01*
X591788Y932377D01*
X591427Y929636D01*
X591788Y926895D01*
X592846Y924341D01*
X594529Y922147D01*
X596722Y920464D01*
X599277Y919406D01*
X602018Y919045D01*
X604759Y919406D01*
X607313Y920464D01*
X609506Y922147D01*
X611189Y924341D01*
X612248Y926895D01*
X612608Y929636D01*
X612248Y932377D01*
X611189Y934931D01*
X609506Y937124D01*
X608574Y937840D01*
Y940670D01*
X617020Y949117D01*
X618191Y948491D01*
X618170Y948386D01*
X618558Y946435D01*
X619663Y944781D01*
X621317Y943676D01*
X623268Y943288D01*
X625219Y943676D01*
X626873Y944781D01*
X627978Y946435D01*
X628366Y948386D01*
X628178Y949331D01*
X642750Y963903D01*
X642919Y964156D01*
X644189Y963771D01*
Y948449D01*
X643632Y948022D01*
X635658Y940047D01*
X634277Y939865D01*
X631722Y938808D01*
X629529Y937124D01*
X627846Y934931D01*
X626788Y932377D01*
X626427Y929636D01*
X626788Y926895D01*
X627846Y924341D01*
X629529Y922147D01*
X631722Y920464D01*
X634277Y919406D01*
X637018Y919045D01*
X639759Y919406D01*
X642313Y920464D01*
X644506Y922147D01*
X646189Y924341D01*
X647247Y926895D01*
X647608Y929636D01*
X647247Y932377D01*
X647038Y932884D01*
X652904Y938750D01*
X653460Y939475D01*
X654914Y939283D01*
X655090Y938858D01*
X656132Y937500D01*
X662831Y930801D01*
X662677Y929636D01*
X663038Y926895D01*
X664096Y924341D01*
X665779Y922147D01*
X667972Y920464D01*
X670527Y919406D01*
X673268Y919045D01*
X676009Y919406D01*
X678563Y920464D01*
X680756Y922147D01*
X682439Y924341D01*
X683497Y926895D01*
X683858Y929636D01*
X683497Y932377D01*
X682439Y934931D01*
X680756Y937124D01*
X678563Y938808D01*
X676009Y939865D01*
X673268Y940226D01*
X672102Y940073D01*
X665404Y946772D01*
X664846Y947199D01*
Y970523D01*
X666116Y971099D01*
X666714Y970629D01*
Y962136D01*
X666927Y961063D01*
X667535Y960153D01*
X678358Y949331D01*
X678170Y948386D01*
X678558Y946435D01*
X679663Y944781D01*
X681317Y943676D01*
X683268Y943288D01*
X685219Y943676D01*
X686872Y944781D01*
X687978Y946435D01*
X688366Y948386D01*
X687978Y950337D01*
X686872Y951991D01*
X685219Y953096D01*
X683268Y953484D01*
X682323Y953296D01*
X672322Y963297D01*
Y969621D01*
X673592Y970052D01*
X673632Y970000D01*
X701712Y941920D01*
Y937840D01*
X700779Y937124D01*
X699096Y934931D01*
X698038Y932377D01*
X697677Y929636D01*
X698038Y926895D01*
X699096Y924341D01*
X700779Y922147D01*
X702972Y920464D01*
X705527Y919406D01*
X708268Y919045D01*
X711009Y919406D01*
X713563Y920464D01*
X715756Y922147D01*
X717439Y924341D01*
X718497Y926895D01*
X718858Y929636D01*
X718497Y932377D01*
X717439Y934931D01*
X715756Y937124D01*
X714824Y937840D01*
Y944636D01*
X714600Y946333D01*
X714187Y947330D01*
X713945Y947914D01*
X712904Y949272D01*
X682904Y979272D01*
X681546Y980313D01*
X680165Y980885D01*
X679893Y981452D01*
X679889Y981466D01*
X679766Y982275D01*
X680329Y983118D01*
X680581Y984386D01*
Y997886D01*
X680329Y999154D01*
X679611Y1000229D01*
X678536Y1000947D01*
X677268Y1001199D01*
X676000Y1000947D01*
X674925Y1000229D01*
X674781Y1000015D01*
X673254D01*
X673111Y1000229D01*
X672036Y1000947D01*
X670768Y1001199D01*
X669500Y1000947D01*
X668425Y1000229D01*
X668281Y1000015D01*
X666754D01*
X666611Y1000229D01*
X665536Y1000947D01*
X664268Y1001199D01*
X663000Y1000947D01*
X661925Y1000229D01*
X661781Y1000014D01*
X660254D01*
X660111Y1000229D01*
X659036Y1000947D01*
X657768Y1001199D01*
X656500Y1000947D01*
X655425Y1000229D01*
X655282Y1000015D01*
X653754D01*
X653611Y1000229D01*
X652536Y1000947D01*
X651268Y1001199D01*
X650000Y1000947D01*
X648925Y1000229D01*
X648782Y1000014D01*
X647254D01*
X647111Y1000229D01*
X646036Y1000947D01*
X644768Y1001199D01*
X643500Y1000947D01*
X642425Y1000229D01*
X642281Y1000015D01*
X640754D01*
X640611Y1000229D01*
X639536Y1000947D01*
X638268Y1001199D01*
X637000Y1000947D01*
X635925Y1000229D01*
X635782Y1000014D01*
X634254D01*
X634111Y1000229D01*
X633036Y1000947D01*
X631768Y1001199D01*
X630500Y1000947D01*
X629425Y1000229D01*
X628706Y999154D01*
X628454Y997886D01*
Y994660D01*
X627184Y994274D01*
X626873Y994741D01*
X625219Y995846D01*
X623268Y996234D01*
X621317Y995846D01*
X619663Y994741D01*
X619128Y993940D01*
X511018D01*
X509945Y993726D01*
X509035Y993118D01*
X492689Y976772D01*
X491526Y977272D01*
X491472Y977351D01*
X491674Y978366D01*
X487038D01*
Y973730D01*
X488053Y973932D01*
X488131Y973877D01*
X488631Y972714D01*
X487535Y971618D01*
X486927Y970709D01*
X486714Y969636D01*
Y953697D01*
X473602Y940585D01*
X471867Y941304D01*
X469518Y941613D01*
X467168Y941304D01*
X464979Y940397D01*
X463099Y938955D01*
X461656Y937075D01*
X461626Y937001D01*
X460356Y937254D01*
Y951297D01*
X461626Y951728D01*
X462357Y950775D01*
X464454Y949166D01*
X466897Y948154D01*
X468248Y947976D01*
Y957936D01*
Y967895D01*
X466897Y967717D01*
X465168Y967001D01*
X464448Y968078D01*
X478638Y982267D01*
X480001Y981965D01*
X480058Y981891D01*
X479862Y980906D01*
X484498D01*
Y985541D01*
X483512Y985345D01*
X483438Y985402D01*
X483136Y986766D01*
X525168Y1028798D01*
X534885D01*
X535067Y1028676D01*
X537018Y1028288D01*
X538969Y1028676D01*
X540622Y1029781D01*
X541728Y1031435D01*
X542116Y1033386D01*
X541728Y1035337D01*
X540622Y1036991D01*
X538969Y1038096D01*
X537018Y1038484D01*
X535067Y1038096D01*
X534885Y1037974D01*
X523268D01*
X521512Y1037625D01*
X520023Y1036630D01*
X485104Y1001711D01*
X484118Y1002521D01*
X484228Y1002685D01*
X484616Y1004636D01*
X484552Y1004955D01*
X490250Y1010653D01*
X490858Y1011563D01*
X491072Y1012636D01*
Y1036746D01*
X491872Y1037281D01*
X492978Y1038935D01*
X493366Y1040886D01*
X492978Y1042837D01*
X492670Y1043297D01*
X493349Y1044567D01*
X588111D01*
X588497Y1043297D01*
X587663Y1042740D01*
X586328Y1040742D01*
X586112Y1039656D01*
X597924D01*
X597707Y1040742D01*
X596372Y1042740D01*
X595539Y1043297D01*
X595924Y1044567D01*
X628454D01*
Y1041386D01*
X628706Y1040118D01*
X629425Y1039043D01*
X630500Y1038324D01*
X631768Y1038072D01*
X633036Y1038324D01*
X634111Y1039043D01*
X634254Y1039257D01*
X635782D01*
X635925Y1039043D01*
X637000Y1038324D01*
X638268Y1038072D01*
X639536Y1038324D01*
X640611Y1039043D01*
X640754Y1039257D01*
X642281D01*
X642425Y1039043D01*
X643500Y1038324D01*
X644768Y1038072D01*
X646036Y1038324D01*
X647111Y1039043D01*
X647674D01*
X648175Y1038293D01*
X648429Y1038123D01*
X648679Y1036428D01*
X648472Y1036176D01*
X637978D01*
Y1020906D01*
X671058D01*
Y1036176D01*
X654064D01*
X653856Y1036428D01*
X654107Y1038123D01*
X654361Y1038293D01*
X654862Y1039043D01*
X655425D01*
X656500Y1038324D01*
X657768Y1038072D01*
X659036Y1038324D01*
X660111Y1039043D01*
X660254Y1039257D01*
X661781D01*
X661925Y1039043D01*
X663000Y1038324D01*
X664268Y1038072D01*
X665536Y1038324D01*
X666611Y1039043D01*
X666754Y1039257D01*
X668281D01*
X668425Y1039043D01*
X669500Y1038324D01*
X670768Y1038072D01*
X672036Y1038324D01*
X673111Y1039043D01*
X673254Y1039257D01*
X674781D01*
X674925Y1039043D01*
X676000Y1038324D01*
X677268Y1038072D01*
X678536Y1038324D01*
X679611Y1039043D01*
X680329Y1040118D01*
X680581Y1041386D01*
Y1046854D01*
X680836Y1048136D01*
Y1052408D01*
X683224Y1054795D01*
X684518Y1054538D01*
X686469Y1054926D01*
X688123Y1056031D01*
X689228Y1057685D01*
X689616Y1059636D01*
X689228Y1061587D01*
X688123Y1063241D01*
X686469Y1064346D01*
X684518Y1064734D01*
X683339Y1064499D01*
X682422Y1064602D01*
X681960Y1065421D01*
X681728Y1066587D01*
X680622Y1068241D01*
X678969Y1069346D01*
X679082Y1070618D01*
X679317Y1070996D01*
X680219Y1071176D01*
X681872Y1072281D01*
X682978Y1073935D01*
X683366Y1075886D01*
X682978Y1077837D01*
X681872Y1079491D01*
X680219Y1080596D01*
X679240Y1080790D01*
X678822Y1082168D01*
X680020Y1083366D01*
X685384Y1078002D01*
X685384Y1078002D01*
X686707Y1077118D01*
X688268Y1076807D01*
X688372D01*
X689317Y1076176D01*
X691268Y1075788D01*
X693219Y1076176D01*
X694873Y1077281D01*
X695978Y1078935D01*
X696366Y1080886D01*
X695978Y1082837D01*
X694873Y1084491D01*
X693219Y1085596D01*
X691268Y1085984D01*
X689324Y1085597D01*
X685787Y1089134D01*
X707904Y1111250D01*
X708945Y1112608D01*
X709329Y1113534D01*
X709600Y1114189D01*
X709824Y1115886D01*
Y1140832D01*
X711094Y1140957D01*
X711328Y1139779D01*
X712663Y1137781D01*
X714661Y1136446D01*
X715748Y1136230D01*
Y1142136D01*
Y1148041D01*
X714661Y1147825D01*
X712663Y1146490D01*
X711328Y1144492D01*
X711094Y1143314D01*
X709824Y1143439D01*
Y1167136D01*
Y1189636D01*
X709600Y1191333D01*
X709273Y1192123D01*
X708945Y1192914D01*
X707904Y1194272D01*
X683559Y1218616D01*
X683858Y1220886D01*
Y1224886D01*
X683497Y1227627D01*
X682439Y1230181D01*
X680756Y1232374D01*
X678563Y1234057D01*
X676009Y1235116D01*
X673268Y1235476D01*
X670527Y1235116D01*
X667972Y1234057D01*
X665779Y1232374D01*
X664096Y1230181D01*
X663038Y1227627D01*
X662677Y1224886D01*
Y1220886D01*
X663038Y1218145D01*
X664096Y1215590D01*
X665779Y1213397D01*
X667972Y1211714D01*
X670527Y1210656D01*
X673268Y1210295D01*
X673329Y1210303D01*
X696712Y1186920D01*
Y1171724D01*
X655768D01*
X654012Y1171375D01*
X652523Y1170380D01*
X651367Y1169224D01*
X614151D01*
X613969Y1169346D01*
X612018Y1169734D01*
X610067Y1169346D01*
X608413Y1168241D01*
X607308Y1166587D01*
X606920Y1164636D01*
X607308Y1162685D01*
X608413Y1161031D01*
X610067Y1159926D01*
X612018Y1159538D01*
X612505Y1159635D01*
X613131Y1158464D01*
X609606Y1154940D01*
X455592D01*
X455340Y1156210D01*
X456725Y1156783D01*
X458762Y1158346D01*
X460325Y1160383D01*
X461307Y1162755D01*
X461642Y1165300D01*
X461307Y1167845D01*
X460325Y1170217D01*
X458762Y1172254D01*
X456725Y1173817D01*
X455529Y1174312D01*
X455782Y1175582D01*
X458357D01*
X459430Y1175795D01*
X460339Y1176403D01*
X467750Y1183814D01*
X468358Y1184724D01*
X468572Y1185797D01*
Y1214724D01*
X484429Y1230582D01*
X513357D01*
X514430Y1230795D01*
X515339Y1231403D01*
X521500Y1237564D01*
X521679Y1237832D01*
X540929Y1257082D01*
X561628D01*
X562163Y1256281D01*
X563817Y1255176D01*
X565768Y1254788D01*
X567719Y1255176D01*
X569372Y1256281D01*
X570478Y1257935D01*
X570866Y1259886D01*
X570478Y1261837D01*
X569372Y1263491D01*
X567719Y1264596D01*
X565768Y1264984D01*
X563817Y1264596D01*
X562163Y1263491D01*
X561628Y1262690D01*
X539768D01*
X538695Y1262476D01*
X537785Y1261868D01*
X519266Y1243350D01*
X518051Y1243718D01*
X517978Y1244087D01*
X516873Y1245741D01*
X515219Y1246846D01*
X513268Y1247234D01*
X511317Y1246846D01*
X511135Y1246724D01*
X495652D01*
X495265Y1247994D01*
X496457Y1249779D01*
X496674Y1250866D01*
X484862D01*
X485078Y1249779D01*
X486271Y1247994D01*
X485883Y1246724D01*
X483918D01*
X472059Y1258583D01*
X472477Y1259961D01*
X472749Y1260016D01*
X473582Y1260572D01*
X474138Y1261404D01*
X474333Y1262386D01*
X474743Y1262886D01*
X489268D01*
Y1266582D01*
X521768D01*
X522841Y1266795D01*
X523750Y1267403D01*
X535429Y1279082D01*
X551628D01*
X552163Y1278281D01*
X553817Y1277176D01*
X555768Y1276788D01*
X557719Y1277176D01*
X559372Y1278281D01*
X560478Y1279935D01*
X560866Y1281886D01*
X560678Y1282831D01*
X570929Y1293082D01*
X787106D01*
X812785Y1267403D01*
X813695Y1266795D01*
X814768Y1266582D01*
X818836D01*
X819719Y1265669D01*
X819707Y1265312D01*
X819268Y1264951D01*
X818286Y1264756D01*
X817454Y1264200D01*
X816898Y1263367D01*
X816702Y1262386D01*
Y1262386D01*
X816898Y1261404D01*
X817454Y1260572D01*
X818286Y1260016D01*
X819268Y1259820D01*
X820249Y1260016D01*
X821082Y1260572D01*
X821638Y1261404D01*
X821833Y1262386D01*
X822243Y1262886D01*
X836768D01*
Y1275886D01*
X819768D01*
Y1272190D01*
X815929D01*
X790250Y1297868D01*
X789341Y1298476D01*
X788268Y1298690D01*
X569768D01*
X568695Y1298476D01*
X567785Y1297868D01*
X556712Y1286796D01*
X555768Y1286984D01*
X553817Y1286596D01*
X552163Y1285491D01*
X551628Y1284690D01*
X534268D01*
X533195Y1284476D01*
X532285Y1283868D01*
X520606Y1272190D01*
X489268D01*
Y1275886D01*
X472268D01*
Y1265361D01*
X471768Y1264951D01*
X470786Y1264756D01*
X469954Y1264200D01*
X469398Y1263367D01*
X469343Y1263095D01*
X467965Y1262677D01*
X461558Y1269084D01*
Y1276650D01*
X442058D01*
Y1257150D01*
X460515D01*
X474649Y1243016D01*
X474348Y1241652D01*
X474273Y1241595D01*
X473288Y1241791D01*
Y1235886D01*
Y1229980D01*
X474303Y1230182D01*
X474381Y1230127D01*
X474881Y1228964D01*
X463785Y1217868D01*
X463177Y1216959D01*
X462964Y1215886D01*
Y1186958D01*
X461636Y1185630D01*
X460559Y1186350D01*
X461307Y1188155D01*
X461642Y1190700D01*
X461307Y1193245D01*
X460325Y1195617D01*
X458762Y1197654D01*
X456725Y1199217D01*
X454353Y1200199D01*
X451808Y1200534D01*
X449263Y1200199D01*
X446891Y1199217D01*
X444854Y1197654D01*
X443291Y1195617D01*
X442309Y1193245D01*
X441974Y1190700D01*
X442309Y1188155D01*
X443291Y1185783D01*
X444854Y1183746D01*
X446531Y1182460D01*
X446100Y1181190D01*
X438268D01*
X437195Y1180976D01*
X436285Y1180368D01*
X430200Y1174283D01*
X428953Y1174799D01*
X426408Y1175134D01*
X423863Y1174799D01*
X421491Y1173817D01*
X419454Y1172254D01*
X417891Y1170217D01*
X416909Y1167845D01*
X416574Y1165300D01*
X416909Y1162755D01*
X417891Y1160383D01*
X419454Y1158346D01*
X421491Y1156783D01*
X422876Y1156210D01*
X422624Y1154940D01*
X414518D01*
X413445Y1154726D01*
X412535Y1154118D01*
X402038Y1143621D01*
X400768Y1144147D01*
Y1302136D01*
X909518D01*
Y905086D01*
D02*
G37*
G36*
X696712Y1118601D02*
X694515Y1116405D01*
X693345Y1117030D01*
X693366Y1117136D01*
X692978Y1119087D01*
X691873Y1120741D01*
X690219Y1121846D01*
X688268Y1122234D01*
X686317Y1121846D01*
X684663Y1120741D01*
X683558Y1119087D01*
X683170Y1117136D01*
X683358Y1116191D01*
X681288Y1114121D01*
X680018Y1114647D01*
Y1116721D01*
X681058D01*
Y1119616D01*
X667978D01*
Y1116721D01*
X669018D01*
Y1114011D01*
Y1113690D01*
X658179D01*
X649000Y1122868D01*
X644000Y1127868D01*
X643091Y1128476D01*
X642018Y1128690D01*
X640018D01*
Y1131721D01*
X641058D01*
Y1134616D01*
X634518D01*
Y1137156D01*
X641058D01*
Y1137886D01*
X667978D01*
Y1137156D01*
X673248D01*
Y1140051D01*
X670143D01*
Y1148886D01*
X666892D01*
X666406Y1150059D01*
X671929Y1155582D01*
X676628D01*
X677163Y1154781D01*
X678817Y1153676D01*
X680768Y1153288D01*
X682719Y1153676D01*
X684372Y1154781D01*
X685478Y1156435D01*
X685866Y1158386D01*
X685478Y1160337D01*
X684849Y1161278D01*
X685528Y1162548D01*
X696712D01*
Y1118601D01*
D02*
G37*
G36*
X688397Y1111909D02*
X688914Y1110804D01*
X673632Y1095522D01*
X673632Y1095522D01*
X655307Y1077197D01*
X654092Y1077566D01*
X653957Y1078242D01*
X652622Y1080240D01*
X652194Y1080527D01*
X652462Y1081875D01*
X652719Y1081926D01*
X654373Y1083031D01*
X655478Y1084685D01*
X655866Y1086636D01*
X655678Y1087580D01*
X659000Y1090903D01*
X659608Y1091813D01*
X659822Y1092886D01*
Y1096346D01*
X660748D01*
Y1102886D01*
X663288D01*
Y1096346D01*
X666183D01*
Y1097386D01*
X670143D01*
Y1107761D01*
X680018D01*
Y1108082D01*
X682018D01*
X683091Y1108295D01*
X684000Y1108903D01*
X687190Y1112093D01*
X688397Y1111909D01*
D02*
G37*
%LPC*%
G36*
X454498Y990866D02*
X449862D01*
X450078Y989779D01*
X451413Y987781D01*
X453411Y986446D01*
X454498Y986230D01*
Y990866D01*
D02*
G37*
G36*
X461673D02*
X457038D01*
Y986230D01*
X458124Y986446D01*
X460122Y987781D01*
X461457Y989779D01*
X461673Y990866D01*
D02*
G37*
G36*
X420748Y993041D02*
X419661Y992825D01*
X417663Y991490D01*
X416328Y989492D01*
X416112Y988406D01*
X420748D01*
Y993041D01*
D02*
G37*
G36*
X892038Y985541D02*
Y980906D01*
X896674D01*
X896457Y981992D01*
X895122Y983990D01*
X893124Y985325D01*
X892038Y985541D01*
D02*
G37*
G36*
X420748Y985866D02*
X416112D01*
X416328Y984779D01*
X417663Y982781D01*
X419661Y981446D01*
X420748Y981230D01*
Y985866D01*
D02*
G37*
G36*
X427924D02*
X423288D01*
Y981230D01*
X424374Y981446D01*
X426372Y982781D01*
X427707Y984779D01*
X427924Y985866D01*
D02*
G37*
G36*
X423288Y993041D02*
Y988406D01*
X427924D01*
X427707Y989492D01*
X426372Y991490D01*
X424374Y992825D01*
X423288Y993041D01*
D02*
G37*
G36*
X882924Y1007116D02*
X878288D01*
Y1002480D01*
X879374Y1002696D01*
X881372Y1004031D01*
X882707Y1006029D01*
X882924Y1007116D01*
D02*
G37*
G36*
X653248Y1018366D02*
X637978D01*
Y1003096D01*
X653248D01*
Y1018366D01*
D02*
G37*
G36*
X671058D02*
X655788D01*
Y1003096D01*
X671058D01*
Y1018366D01*
D02*
G37*
G36*
X454498Y998041D02*
X453411Y997825D01*
X451413Y996490D01*
X450078Y994492D01*
X449862Y993406D01*
X454498D01*
Y998041D01*
D02*
G37*
G36*
X457038D02*
Y993406D01*
X461673D01*
X461457Y994492D01*
X460122Y996490D01*
X458124Y997825D01*
X457038Y998041D01*
D02*
G37*
G36*
X875748Y1007116D02*
X871112D01*
X871328Y1006029D01*
X872663Y1004031D01*
X874661Y1002696D01*
X875748Y1002480D01*
Y1007116D01*
D02*
G37*
G36*
X889498Y985541D02*
X888411Y985325D01*
X886413Y983990D01*
X885078Y981992D01*
X884862Y980906D01*
X889498D01*
Y985541D01*
D02*
G37*
G36*
X470788Y967895D02*
Y959206D01*
X479477D01*
X479299Y960557D01*
X478288Y962999D01*
X476678Y965096D01*
X474581Y966706D01*
X472139Y967717D01*
X470788Y967895D01*
D02*
G37*
G36*
X764498Y965866D02*
X759862D01*
X760078Y964779D01*
X761413Y962781D01*
X763411Y961446D01*
X764498Y961230D01*
Y965866D01*
D02*
G37*
G36*
X771674D02*
X767038D01*
Y961230D01*
X768124Y961446D01*
X770122Y962781D01*
X771457Y964779D01*
X771674Y965866D01*
D02*
G37*
G36*
X827924Y962116D02*
X823288D01*
Y957480D01*
X824374Y957696D01*
X826372Y959031D01*
X827707Y961029D01*
X827924Y962116D01*
D02*
G37*
G36*
X425748Y966645D02*
X424397Y966467D01*
X421955Y965456D01*
X419857Y963847D01*
X418248Y961749D01*
X417236Y959307D01*
X417058Y957956D01*
X425748D01*
Y966645D01*
D02*
G37*
G36*
X428288D02*
Y957956D01*
X436977D01*
X436800Y959307D01*
X435788Y961749D01*
X434179Y963847D01*
X432081Y965456D01*
X429639Y966467D01*
X428288Y966645D01*
D02*
G37*
G36*
X820748Y969291D02*
X819661Y969075D01*
X817663Y967740D01*
X816328Y965742D01*
X816112Y964656D01*
X820748D01*
Y969291D01*
D02*
G37*
G36*
X889498Y978366D02*
X884862D01*
X885078Y977279D01*
X886413Y975281D01*
X888411Y973946D01*
X889498Y973730D01*
Y978366D01*
D02*
G37*
G36*
X896674D02*
X892038D01*
Y973730D01*
X893124Y973946D01*
X895122Y975281D01*
X896457Y977279D01*
X896674Y978366D01*
D02*
G37*
G36*
X487038Y985541D02*
Y980906D01*
X491674D01*
X491457Y981992D01*
X490122Y983990D01*
X488124Y985325D01*
X487038Y985541D01*
D02*
G37*
G36*
X823288Y969291D02*
Y964656D01*
X827924D01*
X827707Y965742D01*
X826372Y967740D01*
X824374Y969075D01*
X823288Y969291D01*
D02*
G37*
G36*
X863750Y1020339D02*
X706700D01*
Y971816D01*
X760103D01*
X760782Y970546D01*
X760078Y969492D01*
X759862Y968406D01*
X771674D01*
X771457Y969492D01*
X770753Y970546D01*
X771432Y971816D01*
X863750D01*
Y1020339D01*
D02*
G37*
G36*
X484498Y978366D02*
X479862D01*
X480078Y977279D01*
X481413Y975281D01*
X483411Y973946D01*
X484498Y973730D01*
Y978366D01*
D02*
G37*
G36*
X753288Y1063041D02*
Y1058406D01*
X757924D01*
X757707Y1059492D01*
X756372Y1061490D01*
X754374Y1062825D01*
X753288Y1063041D01*
D02*
G37*
G36*
X580788Y1078041D02*
Y1073406D01*
X585424D01*
X585207Y1074492D01*
X583872Y1076490D01*
X581875Y1077825D01*
X580788Y1078041D01*
D02*
G37*
G36*
X426408Y1098934D02*
X423863Y1098599D01*
X421491Y1097617D01*
X419454Y1096054D01*
X417891Y1094017D01*
X416909Y1091645D01*
X416574Y1089100D01*
X416909Y1086555D01*
X417891Y1084183D01*
X419454Y1082146D01*
X421491Y1080583D01*
X423863Y1079601D01*
X426408Y1079266D01*
X428953Y1079601D01*
X431325Y1080583D01*
X433362Y1082146D01*
X434925Y1084183D01*
X435907Y1086555D01*
X436242Y1089100D01*
X435907Y1091645D01*
X434925Y1094017D01*
X433362Y1096054D01*
X431325Y1097617D01*
X428953Y1098599D01*
X426408Y1098934D01*
D02*
G37*
G36*
X858208Y1073534D02*
X855663Y1073199D01*
X853291Y1072217D01*
X851254Y1070654D01*
X849691Y1068617D01*
X848709Y1066245D01*
X848374Y1063700D01*
X848709Y1061155D01*
X849691Y1058783D01*
X851254Y1056746D01*
X853291Y1055183D01*
X855663Y1054201D01*
X858208Y1053866D01*
X860753Y1054201D01*
X863125Y1055183D01*
X865162Y1056746D01*
X866725Y1058783D01*
X867707Y1061155D01*
X868042Y1063700D01*
X867707Y1066245D01*
X866725Y1068617D01*
X865162Y1070654D01*
X863125Y1072217D01*
X860753Y1073199D01*
X858208Y1073534D01*
D02*
G37*
G36*
X883608D02*
X881063Y1073199D01*
X878691Y1072217D01*
X876654Y1070654D01*
X875091Y1068617D01*
X874109Y1066245D01*
X873774Y1063700D01*
X874109Y1061155D01*
X875091Y1058783D01*
X876654Y1056746D01*
X878691Y1055183D01*
X881063Y1054201D01*
X883608Y1053866D01*
X886153Y1054201D01*
X888525Y1055183D01*
X890562Y1056746D01*
X892125Y1058783D01*
X893107Y1061155D01*
X893442Y1063700D01*
X893107Y1066245D01*
X892125Y1068617D01*
X890562Y1070654D01*
X888525Y1072217D01*
X886153Y1073199D01*
X883608Y1073534D01*
D02*
G37*
G36*
X750748Y1063041D02*
X749661Y1062825D01*
X747663Y1061490D01*
X746328Y1059492D01*
X746112Y1058406D01*
X750748D01*
Y1063041D01*
D02*
G37*
G36*
X858208Y1098934D02*
X855663Y1098599D01*
X853291Y1097617D01*
X851254Y1096054D01*
X849691Y1094017D01*
X848709Y1091645D01*
X848374Y1089100D01*
X848709Y1086555D01*
X849691Y1084183D01*
X851254Y1082146D01*
X853291Y1080583D01*
X855663Y1079601D01*
X858208Y1079266D01*
X860753Y1079601D01*
X863125Y1080583D01*
X865162Y1082146D01*
X866725Y1084183D01*
X867707Y1086555D01*
X868042Y1089100D01*
X867707Y1091645D01*
X866725Y1094017D01*
X865162Y1096054D01*
X863125Y1097617D01*
X860753Y1098599D01*
X858208Y1098934D01*
D02*
G37*
G36*
X722923Y1140866D02*
X718288D01*
Y1136230D01*
X718865Y1136345D01*
X719380Y1135570D01*
X719484Y1135173D01*
X718311Y1133645D01*
X717520Y1131735D01*
X717250Y1129686D01*
X717520Y1127636D01*
X718311Y1125727D01*
X719569Y1124087D01*
X721209Y1122829D01*
X723119Y1122038D01*
X725168Y1121768D01*
X730949D01*
Y1090668D01*
X729679Y1090283D01*
X728872Y1091490D01*
X726874Y1092825D01*
X725788Y1093042D01*
Y1087136D01*
Y1081230D01*
X726874Y1081446D01*
X728872Y1082781D01*
X729679Y1083989D01*
X730949Y1083603D01*
Y1076114D01*
X715744Y1060909D01*
X714971Y1059751D01*
X714699Y1058386D01*
Y1053265D01*
X714663Y1053241D01*
X713558Y1051587D01*
X713170Y1049636D01*
X713558Y1047685D01*
X714663Y1046031D01*
X716317Y1044926D01*
X718268Y1044538D01*
X720219Y1044926D01*
X721872Y1046031D01*
X722978Y1047685D01*
X723114Y1048369D01*
X723115Y1048370D01*
X723386Y1049736D01*
X723115Y1051102D01*
X723057Y1051188D01*
X722978Y1051587D01*
X721872Y1053241D01*
X721836Y1053265D01*
Y1056908D01*
X737041Y1072112D01*
X737815Y1073270D01*
X738086Y1074636D01*
Y1121797D01*
X739917Y1122038D01*
X741827Y1122829D01*
X743466Y1124087D01*
X744725Y1125727D01*
X745516Y1127636D01*
X745786Y1129686D01*
X745516Y1131735D01*
X744725Y1133645D01*
X743466Y1135284D01*
X741827Y1136543D01*
X739917Y1137334D01*
X737868Y1137604D01*
X725168D01*
X723119Y1137334D01*
X722319Y1137002D01*
X721561Y1138063D01*
X722707Y1139779D01*
X722923Y1140866D01*
D02*
G37*
G36*
X898288Y1298041D02*
Y1293406D01*
X902924D01*
X902707Y1294492D01*
X901372Y1296490D01*
X899374Y1297825D01*
X898288Y1298041D01*
D02*
G37*
G36*
X716998Y1103366D02*
X712362D01*
X712578Y1102279D01*
X713913Y1100281D01*
X715911Y1098946D01*
X716998Y1098730D01*
Y1103366D01*
D02*
G37*
G36*
X883608Y1098934D02*
X881063Y1098599D01*
X878691Y1097617D01*
X876654Y1096054D01*
X875091Y1094017D01*
X874109Y1091645D01*
X873774Y1089100D01*
X874109Y1086555D01*
X875091Y1084183D01*
X876654Y1082146D01*
X878691Y1080583D01*
X881063Y1079601D01*
X883608Y1079266D01*
X886153Y1079601D01*
X888525Y1080583D01*
X890562Y1082146D01*
X892125Y1084183D01*
X893107Y1086555D01*
X893442Y1089100D01*
X893107Y1091645D01*
X892125Y1094017D01*
X890562Y1096054D01*
X888525Y1097617D01*
X886153Y1098599D01*
X883608Y1098934D01*
D02*
G37*
G36*
X723248Y1085866D02*
X718612D01*
X718828Y1084779D01*
X720163Y1082781D01*
X722161Y1081446D01*
X723248Y1081230D01*
Y1085866D01*
D02*
G37*
G36*
Y1093042D02*
X722161Y1092825D01*
X720163Y1091490D01*
X718828Y1089492D01*
X718612Y1088406D01*
X723248D01*
Y1093042D01*
D02*
G37*
G36*
X451808Y1073534D02*
X449263Y1073199D01*
X446891Y1072217D01*
X444854Y1070654D01*
X443291Y1068617D01*
X442309Y1066245D01*
X441974Y1063700D01*
X442309Y1061155D01*
X443291Y1058783D01*
X444854Y1056746D01*
X446891Y1055183D01*
X449263Y1054201D01*
X451808Y1053866D01*
X454353Y1054201D01*
X456725Y1055183D01*
X458762Y1056746D01*
X460325Y1058783D01*
X461307Y1061155D01*
X461642Y1063700D01*
X461307Y1066245D01*
X460325Y1068617D01*
X458762Y1070654D01*
X456725Y1072217D01*
X454353Y1073199D01*
X451808Y1073534D01*
D02*
G37*
G36*
X694174Y1027116D02*
X689538D01*
Y1022480D01*
X690624Y1022696D01*
X692622Y1024031D01*
X693957Y1026029D01*
X694174Y1027116D01*
D02*
G37*
G36*
X426408Y1048134D02*
X423863Y1047799D01*
X421491Y1046817D01*
X419454Y1045254D01*
X417891Y1043217D01*
X416909Y1040845D01*
X416574Y1038300D01*
X416909Y1035755D01*
X417891Y1033383D01*
X419454Y1031346D01*
X421491Y1029783D01*
X423863Y1028801D01*
X426408Y1028466D01*
X428953Y1028801D01*
X431325Y1029783D01*
X433362Y1031346D01*
X434925Y1033383D01*
X435907Y1035755D01*
X436242Y1038300D01*
X435907Y1040845D01*
X434925Y1043217D01*
X433362Y1045254D01*
X431325Y1046817D01*
X428953Y1047799D01*
X426408Y1048134D01*
D02*
G37*
G36*
X858208D02*
X855663Y1047799D01*
X853291Y1046817D01*
X851254Y1045254D01*
X849691Y1043217D01*
X848709Y1040845D01*
X848374Y1038300D01*
X848709Y1035755D01*
X849691Y1033383D01*
X851254Y1031346D01*
X853291Y1029783D01*
X855663Y1028801D01*
X858208Y1028466D01*
X860753Y1028801D01*
X863125Y1029783D01*
X865162Y1031346D01*
X866725Y1033383D01*
X867707Y1035755D01*
X868042Y1038300D01*
X867707Y1040845D01*
X866725Y1043217D01*
X865162Y1045254D01*
X863125Y1046817D01*
X860753Y1047799D01*
X858208Y1048134D01*
D02*
G37*
G36*
X875748Y1014291D02*
X874661Y1014075D01*
X872663Y1012740D01*
X871328Y1010742D01*
X871112Y1009656D01*
X875748D01*
Y1014291D01*
D02*
G37*
G36*
X878288D02*
Y1009656D01*
X882924D01*
X882707Y1010742D01*
X881372Y1012740D01*
X879374Y1014075D01*
X878288Y1014291D01*
D02*
G37*
G36*
X686998Y1027116D02*
X682362D01*
X682578Y1026029D01*
X683913Y1024031D01*
X685911Y1022696D01*
X686998Y1022480D01*
Y1027116D01*
D02*
G37*
G36*
X883608Y1048134D02*
X881063Y1047799D01*
X878691Y1046817D01*
X876654Y1045254D01*
X875091Y1043217D01*
X874109Y1040845D01*
X873774Y1038300D01*
X874109Y1035755D01*
X875091Y1033383D01*
X876654Y1031346D01*
X878691Y1029783D01*
X881063Y1028801D01*
X883608Y1028466D01*
X886153Y1028801D01*
X888525Y1029783D01*
X890562Y1031346D01*
X892125Y1033383D01*
X893107Y1035755D01*
X893442Y1038300D01*
X893107Y1040845D01*
X892125Y1043217D01*
X890562Y1045254D01*
X888525Y1046817D01*
X886153Y1047799D01*
X883608Y1048134D01*
D02*
G37*
G36*
X597924Y1037116D02*
X593288D01*
Y1032480D01*
X594375Y1032696D01*
X596372Y1034031D01*
X597707Y1036029D01*
X597924Y1037116D01*
D02*
G37*
G36*
X750748Y1055866D02*
X746112D01*
X746328Y1054779D01*
X747663Y1052781D01*
X749661Y1051446D01*
X750748Y1051230D01*
Y1055866D01*
D02*
G37*
G36*
X757924D02*
X753288D01*
Y1051230D01*
X754374Y1051446D01*
X756372Y1052781D01*
X757707Y1054779D01*
X757924Y1055866D01*
D02*
G37*
G36*
X686998Y1034291D02*
X685911Y1034075D01*
X683913Y1032740D01*
X682578Y1030742D01*
X682362Y1029656D01*
X686998D01*
Y1034291D01*
D02*
G37*
G36*
X689538D02*
Y1029656D01*
X694174D01*
X693957Y1030742D01*
X692622Y1032740D01*
X690624Y1034075D01*
X689538Y1034291D01*
D02*
G37*
G36*
X590748Y1037116D02*
X586112D01*
X586328Y1036029D01*
X587663Y1034031D01*
X589661Y1032696D01*
X590748Y1032480D01*
Y1037116D01*
D02*
G37*
G36*
X740844Y908366D02*
X736208D01*
Y903730D01*
X737294Y903946D01*
X739292Y905281D01*
X740627Y907279D01*
X740844Y908366D01*
D02*
G37*
G36*
X881998Y915926D02*
X873228D01*
Y907156D01*
X881998D01*
Y915926D01*
D02*
G37*
G36*
X893308D02*
X884538D01*
Y907156D01*
X893308D01*
Y915926D01*
D02*
G37*
G36*
X542398Y912095D02*
X541047Y911917D01*
X538605Y910906D01*
X536507Y909296D01*
X534898Y907199D01*
X533886Y904757D01*
X533708Y903406D01*
X542398D01*
Y912095D01*
D02*
G37*
G36*
X544938D02*
Y903406D01*
X553627D01*
X553449Y904757D01*
X552438Y907199D01*
X550828Y909296D01*
X548731Y910906D01*
X546289Y911917D01*
X544938Y912095D01*
D02*
G37*
G36*
X733668Y908366D02*
X729032D01*
X729248Y907279D01*
X730583Y905281D01*
X732581Y903946D01*
X733668Y903730D01*
Y908366D01*
D02*
G37*
G36*
X406998Y913366D02*
X402362D01*
X402578Y912279D01*
X403913Y910281D01*
X405911Y908946D01*
X406998Y908730D01*
Y913366D01*
D02*
G37*
G36*
X504268Y929213D02*
X501918Y928904D01*
X499729Y927997D01*
X497849Y926555D01*
X496406Y924675D01*
X495499Y922485D01*
X495190Y920136D01*
X495499Y917786D01*
X496406Y915597D01*
X497849Y913717D01*
X499729Y912274D01*
X501918Y911367D01*
X504268Y911058D01*
X506617Y911367D01*
X508807Y912274D01*
X510687Y913717D01*
X512129Y915597D01*
X513036Y917786D01*
X513345Y920136D01*
X513036Y922485D01*
X512129Y924675D01*
X510687Y926555D01*
X508807Y927997D01*
X506617Y928904D01*
X504268Y929213D01*
D02*
G37*
G36*
X406998Y920541D02*
X405911Y920325D01*
X403913Y918990D01*
X402578Y916992D01*
X402362Y915906D01*
X406998D01*
Y920541D01*
D02*
G37*
G36*
X409538D02*
Y915906D01*
X414174D01*
X413957Y916992D01*
X412622Y918990D01*
X410625Y920325D01*
X409538Y920541D01*
D02*
G37*
G36*
X414174Y913366D02*
X409538D01*
Y908730D01*
X410625Y908946D01*
X412622Y910281D01*
X413957Y912279D01*
X414174Y913366D01*
D02*
G37*
G36*
X733668Y915542D02*
X732581Y915325D01*
X730583Y913990D01*
X729248Y911992D01*
X729032Y910906D01*
X733668D01*
Y915542D01*
D02*
G37*
G36*
X736208D02*
Y910906D01*
X740844D01*
X740627Y911992D01*
X739292Y913990D01*
X737294Y915325D01*
X736208Y915542D01*
D02*
G37*
G36*
X803288Y906791D02*
Y902156D01*
X807924D01*
X807707Y903242D01*
X806372Y905240D01*
X804374Y906575D01*
X803288Y906791D01*
D02*
G37*
G36*
X491674Y897116D02*
X487038D01*
Y892480D01*
X488124Y892696D01*
X490122Y894031D01*
X491457Y896029D01*
X491674Y897116D01*
D02*
G37*
G36*
X903248Y898366D02*
X898612D01*
X898828Y897279D01*
X900163Y895281D01*
X902161Y893946D01*
X903248Y893730D01*
Y898366D01*
D02*
G37*
G36*
X800748Y899616D02*
X796112D01*
X796328Y898529D01*
X797663Y896531D01*
X799661Y895196D01*
X800748Y894980D01*
Y899616D01*
D02*
G37*
G36*
X542398Y900866D02*
X533708D01*
X533886Y899515D01*
X534898Y897072D01*
X536507Y894975D01*
X538605Y893366D01*
X541047Y892354D01*
X542398Y892176D01*
Y900866D01*
D02*
G37*
G36*
X553627D02*
X544938D01*
Y892176D01*
X546289Y892354D01*
X548731Y893366D01*
X550828Y894975D01*
X552438Y897072D01*
X553449Y899515D01*
X553627Y900866D01*
D02*
G37*
G36*
X478518Y916136D02*
X460518D01*
Y898136D01*
X477316D01*
X478518Y898136D01*
X478518D01*
X478577Y898125D01*
X478577D01*
X479731Y897775D01*
X480078Y896029D01*
X481413Y894031D01*
X483411Y892696D01*
X484498Y892480D01*
Y898386D01*
Y904291D01*
X483411Y904075D01*
X481413Y902740D01*
X480078Y900742D01*
X479875Y899720D01*
X478750Y899384D01*
X478737Y899386D01*
X478518Y900539D01*
Y916136D01*
D02*
G37*
G36*
X807924Y899616D02*
X803288D01*
Y894980D01*
X804374Y895196D01*
X806372Y896531D01*
X807707Y898529D01*
X807924Y899616D01*
D02*
G37*
G36*
X487038Y904291D02*
Y899656D01*
X491674D01*
X491457Y900742D01*
X490122Y902740D01*
X488124Y904075D01*
X487038Y904291D01*
D02*
G37*
G36*
X903248Y905541D02*
X902161Y905325D01*
X900163Y903990D01*
X898828Y901992D01*
X898612Y900906D01*
X903248D01*
Y905541D01*
D02*
G37*
G36*
X800748Y906791D02*
X799661Y906575D01*
X797663Y905240D01*
X796328Y903242D01*
X796112Y902156D01*
X800748D01*
Y906791D01*
D02*
G37*
G36*
X848518Y913636D02*
X830518D01*
Y895636D01*
X848518D01*
Y913636D01*
D02*
G37*
G36*
X881998Y904616D02*
X873228D01*
Y895846D01*
X881998D01*
Y904616D01*
D02*
G37*
G36*
X893308D02*
X884538D01*
Y895846D01*
X893308D01*
Y904616D01*
D02*
G37*
G36*
X498288Y944291D02*
Y939656D01*
X502924D01*
X502707Y940742D01*
X501372Y942740D01*
X499374Y944075D01*
X498288Y944291D01*
D02*
G37*
G36*
X838248Y954166D02*
X829558D01*
X829736Y952815D01*
X830748Y950372D01*
X832357Y948275D01*
X834454Y946666D01*
X836897Y945654D01*
X838248Y945476D01*
Y954166D01*
D02*
G37*
G36*
X849477D02*
X840788D01*
Y945476D01*
X842139Y945654D01*
X844581Y946666D01*
X846678Y948275D01*
X848288Y950372D01*
X849299Y952815D01*
X849477Y954166D01*
D02*
G37*
G36*
X813248Y939291D02*
X812161Y939075D01*
X810163Y937740D01*
X808828Y935742D01*
X808612Y934656D01*
X813248D01*
Y939291D01*
D02*
G37*
G36*
X815788D02*
Y934656D01*
X820424D01*
X820207Y935742D01*
X818872Y937740D01*
X816874Y939075D01*
X815788Y939291D01*
D02*
G37*
G36*
X495748Y944291D02*
X494661Y944075D01*
X492663Y942740D01*
X491328Y940742D01*
X491112Y939656D01*
X495748D01*
Y944291D01*
D02*
G37*
G36*
X425748Y955416D02*
X417058D01*
X417236Y954065D01*
X418248Y951623D01*
X419857Y949525D01*
X421955Y947916D01*
X424397Y946904D01*
X425748Y946727D01*
Y955416D01*
D02*
G37*
G36*
X838248Y965395D02*
X836897Y965217D01*
X834454Y964206D01*
X832357Y962596D01*
X830748Y960499D01*
X829736Y958057D01*
X829558Y956706D01*
X838248D01*
Y965395D01*
D02*
G37*
G36*
X840788D02*
Y956706D01*
X849477D01*
X849299Y958057D01*
X848288Y960499D01*
X846678Y962596D01*
X844581Y964206D01*
X842139Y965217D01*
X840788Y965395D01*
D02*
G37*
G36*
X820748Y962116D02*
X816112D01*
X816328Y961029D01*
X817663Y959031D01*
X819661Y957696D01*
X820748Y957480D01*
Y962116D01*
D02*
G37*
G36*
X436977Y955416D02*
X428288D01*
Y946727D01*
X429639Y946904D01*
X432081Y947916D01*
X434179Y949525D01*
X435788Y951623D01*
X436800Y954065D01*
X436977Y955416D01*
D02*
G37*
G36*
X883268Y965763D02*
X880918Y965454D01*
X878729Y964547D01*
X876849Y963105D01*
X875406Y961225D01*
X875005Y960254D01*
X866168D01*
X864802Y959983D01*
X863644Y959209D01*
X842838Y938402D01*
X841867Y938804D01*
X839518Y939113D01*
X837168Y938804D01*
X834979Y937897D01*
X833099Y936455D01*
X831656Y934575D01*
X830749Y932385D01*
X830440Y930036D01*
X830749Y927686D01*
X831656Y925497D01*
X833099Y923617D01*
X834979Y922174D01*
X837168Y921267D01*
X839518Y920958D01*
X841867Y921267D01*
X844057Y922174D01*
X845937Y923617D01*
X847379Y925497D01*
X848286Y927686D01*
X848595Y930036D01*
X848286Y932385D01*
X847884Y933355D01*
X867646Y953117D01*
X875005D01*
X875406Y952147D01*
X876849Y950267D01*
X878729Y948824D01*
X880918Y947918D01*
X883268Y947608D01*
X885617Y947918D01*
X887807Y948824D01*
X889687Y950267D01*
X891129Y952147D01*
X892036Y954336D01*
X892346Y956686D01*
X892036Y959035D01*
X891129Y961225D01*
X889687Y963105D01*
X887807Y964547D01*
X885617Y965454D01*
X883268Y965763D01*
D02*
G37*
G36*
X479477Y956666D02*
X470788D01*
Y947976D01*
X472139Y948154D01*
X474581Y949166D01*
X476678Y950775D01*
X478288Y952872D01*
X479299Y955315D01*
X479477Y956666D01*
D02*
G37*
G36*
X884538Y941245D02*
Y932556D01*
X893227D01*
X893049Y933907D01*
X892038Y936349D01*
X890428Y938447D01*
X888331Y940056D01*
X885889Y941067D01*
X884538Y941245D01*
D02*
G37*
G36*
X436977Y930016D02*
X428288D01*
Y921327D01*
X429639Y921504D01*
X432081Y922516D01*
X434179Y924125D01*
X435788Y926223D01*
X436800Y928665D01*
X436977Y930016D01*
D02*
G37*
G36*
X881998D02*
X873308D01*
X873486Y928665D01*
X874498Y926223D01*
X876107Y924125D01*
X878205Y922516D01*
X880647Y921504D01*
X881998Y921327D01*
Y930016D01*
D02*
G37*
G36*
X893227D02*
X884538D01*
Y921327D01*
X885889Y921504D01*
X888331Y922516D01*
X890428Y924125D01*
X892038Y926223D01*
X893049Y928665D01*
X893227Y930016D01*
D02*
G37*
G36*
X530968Y936613D02*
X528618Y936304D01*
X526429Y935397D01*
X524549Y933955D01*
X523106Y932075D01*
X522200Y929885D01*
X521890Y927536D01*
X522200Y925186D01*
X523106Y922997D01*
X524549Y921117D01*
X526429Y919674D01*
X528618Y918767D01*
X530968Y918458D01*
X533317Y918767D01*
X535507Y919674D01*
X537387Y921117D01*
X538829Y922997D01*
X539736Y925186D01*
X540045Y927536D01*
X539736Y929885D01*
X538829Y932075D01*
X537387Y933955D01*
X535507Y935397D01*
X533317Y936304D01*
X530968Y936613D01*
D02*
G37*
G36*
X556368D02*
X554018Y936304D01*
X551829Y935397D01*
X549949Y933955D01*
X548506Y932075D01*
X547599Y929885D01*
X547290Y927536D01*
X547599Y925186D01*
X548506Y922997D01*
X549949Y921117D01*
X551829Y919674D01*
X554018Y918767D01*
X556368Y918458D01*
X558717Y918767D01*
X560907Y919674D01*
X562787Y921117D01*
X564229Y922997D01*
X565136Y925186D01*
X565445Y927536D01*
X565136Y929885D01*
X564229Y932075D01*
X562787Y933955D01*
X560907Y935397D01*
X558717Y936304D01*
X556368Y936613D01*
D02*
G37*
G36*
X425748Y930016D02*
X417058D01*
X417236Y928665D01*
X418248Y926223D01*
X419857Y924125D01*
X421955Y922516D01*
X424397Y921504D01*
X425748Y921327D01*
Y930016D01*
D02*
G37*
G36*
X813248Y932116D02*
X808612D01*
X808828Y931029D01*
X810163Y929031D01*
X812161Y927696D01*
X813248Y927480D01*
Y932116D01*
D02*
G37*
G36*
X425748Y941245D02*
X424397Y941067D01*
X421955Y940056D01*
X419857Y938447D01*
X418248Y936349D01*
X417236Y933907D01*
X417058Y932556D01*
X425748D01*
Y941245D01*
D02*
G37*
G36*
X428288D02*
Y932556D01*
X436977D01*
X436800Y933907D01*
X435788Y936349D01*
X434179Y938447D01*
X432081Y940056D01*
X429639Y941067D01*
X428288Y941245D01*
D02*
G37*
G36*
X881998D02*
X880647Y941067D01*
X878205Y940056D01*
X876107Y938447D01*
X874498Y936349D01*
X873486Y933907D01*
X873308Y932556D01*
X881998D01*
Y941245D01*
D02*
G37*
G36*
X820424Y932116D02*
X815788D01*
Y927480D01*
X816874Y927696D01*
X818872Y929031D01*
X820207Y931029D01*
X820424Y932116D01*
D02*
G37*
G36*
X495748Y937116D02*
X491112D01*
X491328Y936029D01*
X492663Y934031D01*
X494661Y932696D01*
X495748Y932480D01*
Y937116D01*
D02*
G37*
G36*
X502924D02*
X498288D01*
Y932480D01*
X499374Y932696D01*
X501372Y934031D01*
X502707Y936029D01*
X502924Y937116D01*
D02*
G37*
G36*
X724174Y1103366D02*
X719538D01*
Y1098730D01*
X720624Y1098946D01*
X722622Y1100281D01*
X723957Y1102279D01*
X724174Y1103366D01*
D02*
G37*
G36*
X609498Y1228366D02*
X604862D01*
X605078Y1227279D01*
X606413Y1225281D01*
X608411Y1223946D01*
X609498Y1223730D01*
Y1228366D01*
D02*
G37*
G36*
X616674D02*
X612038D01*
Y1223730D01*
X613125Y1223946D01*
X615122Y1225281D01*
X616457Y1227279D01*
X616674Y1228366D01*
D02*
G37*
G36*
X636998Y1236358D02*
X635255Y1236129D01*
X632448Y1234966D01*
X630037Y1233116D01*
X628188Y1230705D01*
X627025Y1227898D01*
X626628Y1224886D01*
Y1224156D01*
X636998D01*
Y1236358D01*
D02*
G37*
G36*
X649907Y1221616D02*
X639538D01*
Y1209413D01*
X641280Y1209643D01*
X644088Y1210806D01*
X646498Y1212655D01*
X648348Y1215066D01*
X649511Y1217873D01*
X649907Y1220886D01*
Y1221616D01*
D02*
G37*
G36*
X410748Y1228366D02*
X406112D01*
X406328Y1227279D01*
X407663Y1225281D01*
X409661Y1223946D01*
X410748Y1223730D01*
Y1228366D01*
D02*
G37*
G36*
X417923D02*
X413288D01*
Y1223730D01*
X414374Y1223946D01*
X416372Y1225281D01*
X417707Y1227279D01*
X417923Y1228366D01*
D02*
G37*
G36*
X639538Y1236358D02*
Y1224156D01*
X649907D01*
Y1224886D01*
X649511Y1227898D01*
X648348Y1230705D01*
X646498Y1233116D01*
X644088Y1234966D01*
X641280Y1236129D01*
X639538Y1236358D01*
D02*
G37*
G36*
X410748Y1235541D02*
X409661Y1235325D01*
X407663Y1233990D01*
X406328Y1231992D01*
X406112Y1230906D01*
X410748D01*
Y1235541D01*
D02*
G37*
G36*
X413288D02*
Y1230906D01*
X417923D01*
X417707Y1231992D01*
X416372Y1233990D01*
X414374Y1235325D01*
X413288Y1235541D01*
D02*
G37*
G36*
X609498D02*
X608411Y1235325D01*
X606413Y1233990D01*
X605078Y1231992D01*
X604862Y1230906D01*
X609498D01*
Y1235541D01*
D02*
G37*
G36*
X470748Y1234616D02*
X466112D01*
X466328Y1233529D01*
X467663Y1231531D01*
X469661Y1230196D01*
X470748Y1229980D01*
Y1234616D01*
D02*
G37*
G36*
X450538Y1240230D02*
X441092D01*
X441296Y1238683D01*
X442383Y1236058D01*
X444113Y1233804D01*
X446366Y1232075D01*
X448991Y1230988D01*
X450538Y1230784D01*
Y1240230D01*
D02*
G37*
G36*
X462524D02*
X453078D01*
Y1230784D01*
X454625Y1230988D01*
X457250Y1232075D01*
X459504Y1233804D01*
X461233Y1236058D01*
X462320Y1238683D01*
X462524Y1240230D01*
D02*
G37*
G36*
X636998Y1221616D02*
X626628D01*
Y1220886D01*
X627025Y1217873D01*
X628188Y1215066D01*
X630037Y1212655D01*
X632448Y1210806D01*
X635255Y1209643D01*
X636998Y1209413D01*
Y1221616D01*
D02*
G37*
G36*
X616998Y1206791D02*
X615911Y1206575D01*
X613913Y1205240D01*
X612578Y1203242D01*
X612362Y1202156D01*
X616998D01*
Y1206791D01*
D02*
G37*
G36*
X619538D02*
Y1202156D01*
X624174D01*
X623957Y1203242D01*
X622622Y1205240D01*
X620624Y1206575D01*
X619538Y1206791D01*
D02*
G37*
G36*
X478248Y1209291D02*
X477161Y1209075D01*
X475163Y1207740D01*
X473828Y1205742D01*
X473612Y1204656D01*
X478248D01*
Y1209291D01*
D02*
G37*
G36*
X745718Y1213736D02*
X717318D01*
Y1198036D01*
X745718D01*
Y1213736D01*
D02*
G37*
G36*
X708248Y1205866D02*
X703612D01*
X703828Y1204779D01*
X705163Y1202781D01*
X707161Y1201446D01*
X708248Y1201230D01*
Y1205866D01*
D02*
G37*
G36*
X715424D02*
X710788D01*
Y1201230D01*
X711874Y1201446D01*
X713872Y1202781D01*
X715207Y1204779D01*
X715424Y1205866D01*
D02*
G37*
G36*
X480788Y1209291D02*
Y1204656D01*
X485424D01*
X485207Y1205742D01*
X483872Y1207740D01*
X481874Y1209075D01*
X480788Y1209291D01*
D02*
G37*
G36*
X883608Y1225934D02*
X881063Y1225599D01*
X878691Y1224617D01*
X876654Y1223054D01*
X875091Y1221017D01*
X874109Y1218645D01*
X873774Y1216100D01*
X874109Y1213555D01*
X875091Y1211183D01*
X876654Y1209146D01*
X878691Y1207583D01*
X881063Y1206601D01*
X883608Y1206266D01*
X886153Y1206601D01*
X888525Y1207583D01*
X890562Y1209146D01*
X892125Y1211183D01*
X893107Y1213555D01*
X893442Y1216100D01*
X893107Y1218645D01*
X892125Y1221017D01*
X890562Y1223054D01*
X888525Y1224617D01*
X886153Y1225599D01*
X883608Y1225934D01*
D02*
G37*
G36*
X708248Y1213041D02*
X707161Y1212825D01*
X705163Y1211490D01*
X703828Y1209492D01*
X703612Y1208406D01*
X708248D01*
Y1213041D01*
D02*
G37*
G36*
X710788D02*
Y1208406D01*
X715424D01*
X715207Y1209492D01*
X713872Y1211490D01*
X711874Y1212825D01*
X710788Y1213041D01*
D02*
G37*
G36*
X426408Y1225934D02*
X423863Y1225599D01*
X421491Y1224617D01*
X419454Y1223054D01*
X417891Y1221017D01*
X416909Y1218645D01*
X416574Y1216100D01*
X416909Y1213555D01*
X417891Y1211183D01*
X419454Y1209146D01*
X421491Y1207583D01*
X423863Y1206601D01*
X426408Y1206266D01*
X428953Y1206601D01*
X431325Y1207583D01*
X433362Y1209146D01*
X434925Y1211183D01*
X435907Y1213555D01*
X436242Y1216100D01*
X435907Y1218645D01*
X434925Y1221017D01*
X433362Y1223054D01*
X431325Y1224617D01*
X428953Y1225599D01*
X426408Y1225934D01*
D02*
G37*
G36*
X451808D02*
X449263Y1225599D01*
X446891Y1224617D01*
X444854Y1223054D01*
X443291Y1221017D01*
X442309Y1218645D01*
X441974Y1216100D01*
X442309Y1213555D01*
X443291Y1211183D01*
X444854Y1209146D01*
X446891Y1207583D01*
X449263Y1206601D01*
X451808Y1206266D01*
X454353Y1206601D01*
X456725Y1207583D01*
X458762Y1209146D01*
X460325Y1211183D01*
X461307Y1213555D01*
X461642Y1216100D01*
X461307Y1218645D01*
X460325Y1221017D01*
X458762Y1223054D01*
X456725Y1224617D01*
X454353Y1225599D01*
X451808Y1225934D01*
D02*
G37*
G36*
X858208D02*
X855663Y1225599D01*
X853291Y1224617D01*
X851254Y1223054D01*
X849691Y1221017D01*
X848709Y1218645D01*
X848374Y1216100D01*
X848709Y1213555D01*
X849691Y1211183D01*
X851254Y1209146D01*
X853291Y1207583D01*
X855663Y1206601D01*
X858208Y1206266D01*
X860753Y1206601D01*
X863125Y1207583D01*
X865162Y1209146D01*
X866725Y1211183D01*
X867707Y1213555D01*
X868042Y1216100D01*
X867707Y1218645D01*
X866725Y1221017D01*
X865162Y1223054D01*
X863125Y1224617D01*
X860753Y1225599D01*
X858208Y1225934D01*
D02*
G37*
G36*
X412038Y1298041D02*
Y1293406D01*
X416674D01*
X416457Y1294492D01*
X415122Y1296490D01*
X413124Y1297825D01*
X412038Y1298041D01*
D02*
G37*
G36*
X882338Y1277690D02*
X872818D01*
Y1268170D01*
X882338D01*
Y1277690D01*
D02*
G37*
G36*
X894398D02*
X884878D01*
Y1268170D01*
X894398D01*
Y1277690D01*
D02*
G37*
G36*
Y1265630D02*
X884878D01*
Y1256110D01*
X894398D01*
Y1265630D01*
D02*
G37*
G36*
X426408Y1276734D02*
X423863Y1276399D01*
X421491Y1275417D01*
X419454Y1273854D01*
X417891Y1271817D01*
X416909Y1269445D01*
X416574Y1266900D01*
X416909Y1264355D01*
X417891Y1261983D01*
X419454Y1259946D01*
X421491Y1258383D01*
X423863Y1257401D01*
X426408Y1257066D01*
X428953Y1257401D01*
X431325Y1258383D01*
X433362Y1259946D01*
X434925Y1261983D01*
X435907Y1264355D01*
X436242Y1266900D01*
X435907Y1269445D01*
X434925Y1271817D01*
X433362Y1273854D01*
X431325Y1275417D01*
X428953Y1276399D01*
X426408Y1276734D01*
D02*
G37*
G36*
X858208D02*
X855663Y1276399D01*
X853291Y1275417D01*
X851254Y1273854D01*
X849691Y1271817D01*
X848709Y1269445D01*
X848374Y1266900D01*
X848709Y1264355D01*
X849691Y1261983D01*
X851254Y1259946D01*
X853291Y1258383D01*
X855663Y1257401D01*
X858208Y1257066D01*
X860753Y1257401D01*
X863125Y1258383D01*
X865162Y1259946D01*
X866725Y1261983D01*
X867707Y1264355D01*
X868042Y1266900D01*
X867707Y1269445D01*
X866725Y1271817D01*
X865162Y1273854D01*
X863125Y1275417D01*
X860753Y1276399D01*
X858208Y1276734D01*
D02*
G37*
G36*
X489268Y1293886D02*
X472268D01*
Y1280886D01*
X489268D01*
Y1293886D01*
D02*
G37*
G36*
X895748Y1290866D02*
X891112D01*
X891328Y1289779D01*
X892663Y1287781D01*
X894661Y1286446D01*
X895748Y1286230D01*
Y1290866D01*
D02*
G37*
G36*
X902924D02*
X898288D01*
Y1286230D01*
X899374Y1286446D01*
X901372Y1287781D01*
X902707Y1289779D01*
X902924Y1290866D01*
D02*
G37*
G36*
X409498Y1298041D02*
X408411Y1297825D01*
X406413Y1296490D01*
X405078Y1294492D01*
X404862Y1293406D01*
X409498D01*
Y1298041D01*
D02*
G37*
G36*
X836768Y1293886D02*
X819768D01*
Y1280886D01*
X836768D01*
Y1293886D01*
D02*
G37*
G36*
X409498Y1290866D02*
X404862D01*
X405078Y1289779D01*
X406413Y1287781D01*
X408411Y1286446D01*
X409498Y1286230D01*
Y1290866D01*
D02*
G37*
G36*
X416674D02*
X412038D01*
Y1286230D01*
X413124Y1286446D01*
X415122Y1287781D01*
X416457Y1289779D01*
X416674Y1290866D01*
D02*
G37*
G36*
X882338Y1265630D02*
X872818D01*
Y1256110D01*
X882338D01*
Y1265630D01*
D02*
G37*
G36*
X883608Y1251334D02*
X881063Y1250999D01*
X878691Y1250017D01*
X876654Y1248454D01*
X875091Y1246417D01*
X874109Y1244045D01*
X873774Y1241500D01*
X874109Y1238955D01*
X875091Y1236583D01*
X876654Y1234546D01*
X878691Y1232983D01*
X881063Y1232001D01*
X883608Y1231666D01*
X886153Y1232001D01*
X888525Y1232983D01*
X890562Y1234546D01*
X892125Y1236583D01*
X893107Y1238955D01*
X893442Y1241500D01*
X893107Y1244045D01*
X892125Y1246417D01*
X890562Y1248454D01*
X888525Y1250017D01*
X886153Y1250999D01*
X883608Y1251334D01*
D02*
G37*
G36*
X824498Y1240866D02*
X819862D01*
X820078Y1239779D01*
X821413Y1237781D01*
X823411Y1236446D01*
X824498Y1236230D01*
Y1240866D01*
D02*
G37*
G36*
X831673D02*
X827038D01*
Y1236230D01*
X828124Y1236446D01*
X830122Y1237781D01*
X831457Y1239779D01*
X831673Y1240866D01*
D02*
G37*
G36*
X612038Y1235541D02*
Y1230906D01*
X616674D01*
X616457Y1231992D01*
X615122Y1233990D01*
X613125Y1235325D01*
X612038Y1235541D01*
D02*
G37*
G36*
X426408Y1251334D02*
X423863Y1250999D01*
X421491Y1250017D01*
X419454Y1248454D01*
X417891Y1246417D01*
X416909Y1244045D01*
X416574Y1241500D01*
X416909Y1238955D01*
X417891Y1236583D01*
X419454Y1234546D01*
X421491Y1232983D01*
X423863Y1232001D01*
X426408Y1231666D01*
X428953Y1232001D01*
X431325Y1232983D01*
X433362Y1234546D01*
X434925Y1236583D01*
X435907Y1238955D01*
X436242Y1241500D01*
X435907Y1244045D01*
X434925Y1246417D01*
X433362Y1248454D01*
X431325Y1250017D01*
X428953Y1250999D01*
X426408Y1251334D01*
D02*
G37*
G36*
X858208D02*
X855663Y1250999D01*
X853291Y1250017D01*
X851254Y1248454D01*
X849691Y1246417D01*
X848709Y1244045D01*
X848374Y1241500D01*
X848709Y1238955D01*
X849691Y1236583D01*
X851254Y1234546D01*
X853291Y1232983D01*
X855663Y1232001D01*
X858208Y1231666D01*
X860753Y1232001D01*
X863125Y1232983D01*
X865162Y1234546D01*
X866725Y1236583D01*
X867707Y1238955D01*
X868042Y1241500D01*
X867707Y1244045D01*
X866725Y1246417D01*
X865162Y1248454D01*
X863125Y1250017D01*
X860753Y1250999D01*
X858208Y1251334D01*
D02*
G37*
G36*
X470748Y1241791D02*
X469661Y1241575D01*
X467663Y1240240D01*
X466328Y1238242D01*
X466112Y1237156D01*
X470748D01*
Y1241791D01*
D02*
G37*
G36*
X827038Y1248041D02*
Y1243406D01*
X831673D01*
X831457Y1244492D01*
X830122Y1246490D01*
X828124Y1247825D01*
X827038Y1248041D01*
D02*
G37*
G36*
X489498Y1258042D02*
X488411Y1257825D01*
X486413Y1256490D01*
X485078Y1254492D01*
X484862Y1253406D01*
X489498D01*
Y1258042D01*
D02*
G37*
G36*
X492038D02*
Y1253406D01*
X496674D01*
X496457Y1254492D01*
X495122Y1256490D01*
X493124Y1257825D01*
X492038Y1258042D01*
D02*
G37*
G36*
X450538Y1252216D02*
X448991Y1252012D01*
X446366Y1250925D01*
X444113Y1249195D01*
X442383Y1246942D01*
X441296Y1244317D01*
X441092Y1242770D01*
X450538D01*
Y1252216D01*
D02*
G37*
G36*
X453078D02*
Y1242770D01*
X462524D01*
X462320Y1244317D01*
X461233Y1246942D01*
X459504Y1249195D01*
X457250Y1250925D01*
X454625Y1252012D01*
X453078Y1252216D01*
D02*
G37*
G36*
X824498Y1248041D02*
X823411Y1247825D01*
X821413Y1246490D01*
X820078Y1244492D01*
X819862Y1243406D01*
X824498D01*
Y1248041D01*
D02*
G37*
G36*
X681058Y1134616D02*
X667978D01*
Y1132156D01*
X681058D01*
Y1134616D01*
D02*
G37*
G36*
Y1140051D02*
X675788D01*
Y1137156D01*
X681058D01*
Y1140051D01*
D02*
G37*
G36*
X718288Y1148041D02*
Y1143406D01*
X722923D01*
X722707Y1144492D01*
X721372Y1146490D01*
X719374Y1147825D01*
X718288Y1148041D01*
D02*
G37*
G36*
X659538Y1134291D02*
Y1129656D01*
X664173D01*
X663957Y1130742D01*
X662622Y1132740D01*
X660624Y1134075D01*
X659538Y1134291D01*
D02*
G37*
G36*
X858208Y1149734D02*
X855663Y1149399D01*
X853291Y1148417D01*
X851254Y1146854D01*
X849691Y1144817D01*
X848709Y1142445D01*
X848374Y1139900D01*
X848709Y1137355D01*
X849691Y1134983D01*
X851254Y1132946D01*
X853291Y1131383D01*
X855663Y1130401D01*
X858208Y1130066D01*
X860753Y1130401D01*
X863125Y1131383D01*
X865162Y1132946D01*
X866725Y1134983D01*
X867707Y1137355D01*
X868042Y1139900D01*
X867707Y1142445D01*
X866725Y1144817D01*
X865162Y1146854D01*
X863125Y1148417D01*
X860753Y1149399D01*
X858208Y1149734D01*
D02*
G37*
G36*
X883608D02*
X881063Y1149399D01*
X878691Y1148417D01*
X876654Y1146854D01*
X875091Y1144817D01*
X874109Y1142445D01*
X873774Y1139900D01*
X874109Y1137355D01*
X875091Y1134983D01*
X876654Y1132946D01*
X878691Y1131383D01*
X881063Y1130401D01*
X883608Y1130066D01*
X886153Y1130401D01*
X888525Y1131383D01*
X890562Y1132946D01*
X892125Y1134983D01*
X893107Y1137355D01*
X893442Y1139900D01*
X893107Y1142445D01*
X892125Y1144817D01*
X890562Y1146854D01*
X888525Y1148417D01*
X886153Y1149399D01*
X883608Y1149734D01*
D02*
G37*
G36*
X737868Y1163003D02*
X725168D01*
X723119Y1162734D01*
X721209Y1161943D01*
X719569Y1160684D01*
X718311Y1159045D01*
X717520Y1157135D01*
X717250Y1155086D01*
X717520Y1153036D01*
X718311Y1151127D01*
X719569Y1149487D01*
X721209Y1148229D01*
X723119Y1147438D01*
X725168Y1147168D01*
X737868D01*
X739917Y1147438D01*
X741827Y1148229D01*
X743466Y1149487D01*
X744725Y1151127D01*
X745516Y1153036D01*
X745786Y1155086D01*
X745516Y1157135D01*
X744725Y1159045D01*
X743466Y1160684D01*
X741827Y1161943D01*
X739917Y1162734D01*
X737868Y1163003D01*
D02*
G37*
G36*
X883608Y1175134D02*
X881063Y1174799D01*
X878691Y1173817D01*
X876654Y1172254D01*
X875091Y1170217D01*
X874109Y1167845D01*
X873774Y1165300D01*
X874109Y1162755D01*
X875091Y1160383D01*
X876654Y1158346D01*
X878691Y1156783D01*
X881063Y1155801D01*
X883608Y1155466D01*
X886153Y1155801D01*
X888525Y1156783D01*
X890562Y1158346D01*
X892125Y1160383D01*
X893107Y1162755D01*
X893442Y1165300D01*
X893107Y1167845D01*
X892125Y1170217D01*
X890562Y1172254D01*
X888525Y1173817D01*
X886153Y1174799D01*
X883608Y1175134D01*
D02*
G37*
G36*
X469498Y1163366D02*
X464862D01*
X465078Y1162279D01*
X466413Y1160281D01*
X468411Y1158946D01*
X469498Y1158730D01*
Y1163366D01*
D02*
G37*
G36*
X476674D02*
X472038D01*
Y1158730D01*
X473125Y1158946D01*
X475122Y1160281D01*
X476457Y1162279D01*
X476674Y1163366D01*
D02*
G37*
G36*
X820068Y1163003D02*
X807368D01*
X805319Y1162734D01*
X803409Y1161943D01*
X801769Y1160684D01*
X800511Y1159045D01*
X799720Y1157135D01*
X799450Y1155086D01*
X799720Y1153036D01*
X800511Y1151127D01*
X801769Y1149487D01*
X803409Y1148229D01*
X805319Y1147438D01*
X807368Y1147168D01*
X820068D01*
X822117Y1147438D01*
X824027Y1148229D01*
X825666Y1149487D01*
X826925Y1151127D01*
X827716Y1153036D01*
X827986Y1155086D01*
X827716Y1157135D01*
X826925Y1159045D01*
X825666Y1160684D01*
X824027Y1161943D01*
X822117Y1162734D01*
X820068Y1163003D01*
D02*
G37*
G36*
X895748Y1298041D02*
X894661Y1297825D01*
X892663Y1296490D01*
X891328Y1294492D01*
X891112Y1293406D01*
X895748D01*
Y1298041D01*
D02*
G37*
G36*
X858208Y1175134D02*
X855663Y1174799D01*
X853291Y1173817D01*
X851254Y1172254D01*
X849691Y1170217D01*
X848709Y1167845D01*
X848374Y1165300D01*
X848709Y1162755D01*
X849691Y1160383D01*
X851254Y1158346D01*
X853291Y1156783D01*
X855663Y1155801D01*
X858208Y1155466D01*
X860753Y1155801D01*
X863125Y1156783D01*
X865162Y1158346D01*
X866725Y1160383D01*
X867707Y1162755D01*
X868042Y1165300D01*
X867707Y1167845D01*
X866725Y1170217D01*
X865162Y1172254D01*
X863125Y1173817D01*
X860753Y1174799D01*
X858208Y1175134D01*
D02*
G37*
G36*
X656998Y1134291D02*
X655911Y1134075D01*
X653913Y1132740D01*
X652578Y1130742D01*
X652362Y1129656D01*
X656998D01*
Y1134291D01*
D02*
G37*
G36*
X719538Y1110541D02*
Y1105906D01*
X724174D01*
X723957Y1106992D01*
X722622Y1108990D01*
X720624Y1110325D01*
X719538Y1110541D01*
D02*
G37*
G36*
X609498Y1117116D02*
X604862D01*
X605078Y1116029D01*
X606413Y1114031D01*
X608411Y1112696D01*
X609498Y1112480D01*
Y1117116D01*
D02*
G37*
G36*
X616674D02*
X612038D01*
Y1112480D01*
X613125Y1112696D01*
X615122Y1114031D01*
X616457Y1116029D01*
X616674Y1117116D01*
D02*
G37*
G36*
X858208Y1124334D02*
X855663Y1123999D01*
X853291Y1123017D01*
X851254Y1121454D01*
X849691Y1119417D01*
X848709Y1117045D01*
X848374Y1114500D01*
X848709Y1111955D01*
X849691Y1109583D01*
X851254Y1107546D01*
X853291Y1105983D01*
X855663Y1105001D01*
X858208Y1104666D01*
X860753Y1105001D01*
X863125Y1105983D01*
X865162Y1107546D01*
X866725Y1109583D01*
X867707Y1111955D01*
X868042Y1114500D01*
X867707Y1117045D01*
X866725Y1119417D01*
X865162Y1121454D01*
X863125Y1123017D01*
X860753Y1123999D01*
X858208Y1124334D01*
D02*
G37*
G36*
X883608D02*
X881063Y1123999D01*
X878691Y1123017D01*
X876654Y1121454D01*
X875091Y1119417D01*
X874109Y1117045D01*
X873774Y1114500D01*
X874109Y1111955D01*
X875091Y1109583D01*
X876654Y1107546D01*
X878691Y1105983D01*
X881063Y1105001D01*
X883608Y1104666D01*
X886153Y1105001D01*
X888525Y1105983D01*
X890562Y1107546D01*
X892125Y1109583D01*
X893107Y1111955D01*
X893442Y1114500D01*
X893107Y1117045D01*
X892125Y1119417D01*
X890562Y1121454D01*
X888525Y1123017D01*
X886153Y1123999D01*
X883608Y1124334D01*
D02*
G37*
G36*
X716998Y1110541D02*
X715911Y1110325D01*
X713913Y1108990D01*
X712578Y1106992D01*
X712362Y1105906D01*
X716998D01*
Y1110541D01*
D02*
G37*
G36*
X609498Y1124292D02*
X608411Y1124075D01*
X606413Y1122740D01*
X605078Y1120742D01*
X604862Y1119656D01*
X609498D01*
Y1124292D01*
D02*
G37*
G36*
X656998Y1127116D02*
X652362D01*
X652578Y1126029D01*
X653913Y1124031D01*
X655911Y1122696D01*
X656998Y1122480D01*
Y1127116D01*
D02*
G37*
G36*
X664173D02*
X659538D01*
Y1122480D01*
X660624Y1122696D01*
X662622Y1124031D01*
X663957Y1126029D01*
X664173Y1127116D01*
D02*
G37*
G36*
X621998Y1132116D02*
X617362D01*
X617578Y1131029D01*
X618913Y1129031D01*
X620911Y1127696D01*
X621998Y1127480D01*
Y1132116D01*
D02*
G37*
G36*
X612038Y1124292D02*
Y1119656D01*
X616674D01*
X616457Y1120742D01*
X615122Y1122740D01*
X613125Y1124075D01*
X612038Y1124292D01*
D02*
G37*
G36*
X820068Y1137604D02*
X807368D01*
X805319Y1137334D01*
X803409Y1136543D01*
X801769Y1135284D01*
X800511Y1133645D01*
X799720Y1131735D01*
X799450Y1129686D01*
X799720Y1127636D01*
X800511Y1125727D01*
X801769Y1124087D01*
X803409Y1122829D01*
X805319Y1122038D01*
X807368Y1121768D01*
X820068D01*
X822117Y1122038D01*
X824027Y1122829D01*
X825666Y1124087D01*
X826925Y1125727D01*
X827716Y1127636D01*
X827986Y1129686D01*
X827716Y1131735D01*
X826925Y1133645D01*
X825666Y1135284D01*
X824027Y1136543D01*
X822117Y1137334D01*
X820068Y1137604D01*
D02*
G37*
G36*
X681058Y1129616D02*
X667978D01*
Y1126721D01*
X669018D01*
Y1125051D01*
X667978D01*
Y1122156D01*
X681058D01*
Y1125051D01*
X680018D01*
Y1126721D01*
X681058D01*
Y1129616D01*
D02*
G37*
G36*
X664268Y1205136D02*
X647268D01*
Y1192136D01*
X664268D01*
Y1205136D01*
D02*
G37*
G36*
X628248Y1199291D02*
X627161Y1199075D01*
X625163Y1197740D01*
X623828Y1195742D01*
X623612Y1194656D01*
X628248D01*
Y1199291D01*
D02*
G37*
G36*
X630788D02*
Y1194656D01*
X635424D01*
X635207Y1195742D01*
X633872Y1197740D01*
X631875Y1199075D01*
X630788Y1199291D01*
D02*
G37*
G36*
X635424Y1192116D02*
X630788D01*
Y1187480D01*
X631875Y1187696D01*
X633872Y1189031D01*
X635207Y1191029D01*
X635424Y1192116D01*
D02*
G37*
G36*
X673248Y1194616D02*
X668612D01*
X668828Y1193529D01*
X670163Y1191531D01*
X672161Y1190196D01*
X673248Y1189980D01*
Y1194616D01*
D02*
G37*
G36*
X680424D02*
X675788D01*
Y1189980D01*
X676874Y1190196D01*
X678872Y1191531D01*
X680207Y1193529D01*
X680424Y1194616D01*
D02*
G37*
G36*
X616998Y1199616D02*
X612362D01*
X612578Y1198529D01*
X613913Y1196531D01*
X615911Y1195196D01*
X616998Y1194980D01*
Y1199616D01*
D02*
G37*
G36*
X478248Y1202116D02*
X473612D01*
X473828Y1201029D01*
X475163Y1199031D01*
X477161Y1197696D01*
X478248Y1197480D01*
Y1202116D01*
D02*
G37*
G36*
X485424D02*
X480788D01*
Y1197480D01*
X481874Y1197696D01*
X483872Y1199031D01*
X485207Y1201029D01*
X485424Y1202116D01*
D02*
G37*
G36*
X820068Y1213803D02*
X807368D01*
X805319Y1213534D01*
X803409Y1212743D01*
X801769Y1211484D01*
X800511Y1209845D01*
X799720Y1207935D01*
X799450Y1205886D01*
X799720Y1203837D01*
X800511Y1201927D01*
X801769Y1200287D01*
X803409Y1199029D01*
X805319Y1198238D01*
X807368Y1197968D01*
X820068D01*
X822117Y1198238D01*
X824027Y1199029D01*
X825666Y1200287D01*
X826925Y1201927D01*
X827716Y1203837D01*
X827986Y1205886D01*
X827716Y1207935D01*
X826925Y1209845D01*
X825666Y1211484D01*
X824027Y1212743D01*
X822117Y1213534D01*
X820068Y1213803D01*
D02*
G37*
G36*
X624174Y1199616D02*
X619538D01*
Y1194980D01*
X620624Y1195196D01*
X622622Y1196531D01*
X623957Y1198529D01*
X624174Y1199616D01*
D02*
G37*
G36*
X673248Y1201791D02*
X672161Y1201575D01*
X670163Y1200240D01*
X668828Y1198242D01*
X668612Y1197156D01*
X673248D01*
Y1201791D01*
D02*
G37*
G36*
X675788D02*
Y1197156D01*
X680424D01*
X680207Y1198242D01*
X678872Y1200240D01*
X676874Y1201575D01*
X675788Y1201791D01*
D02*
G37*
G36*
X628248Y1192116D02*
X623612D01*
X623828Y1191029D01*
X625163Y1189031D01*
X627161Y1187696D01*
X628248Y1187480D01*
Y1192116D01*
D02*
G37*
G36*
X472038Y1170541D02*
Y1165906D01*
X476674D01*
X476457Y1166992D01*
X475122Y1168990D01*
X473125Y1170325D01*
X472038Y1170541D01*
D02*
G37*
G36*
X654498Y1179366D02*
X646228D01*
Y1176094D01*
X645786Y1176006D01*
X644954Y1175450D01*
X644398Y1174617D01*
X644202Y1173636D01*
Y1173636D01*
X644398Y1172654D01*
X644954Y1171822D01*
X645786Y1171266D01*
X646768Y1171070D01*
X647749Y1171266D01*
X648582Y1171822D01*
X649138Y1172654D01*
X649226Y1173096D01*
X654498D01*
Y1179366D01*
D02*
G37*
G36*
X737868Y1188403D02*
X725168D01*
X723119Y1188134D01*
X721209Y1187343D01*
X719569Y1186084D01*
X718311Y1184445D01*
X717520Y1182535D01*
X717250Y1180486D01*
X717520Y1178437D01*
X718311Y1176527D01*
X719569Y1174887D01*
X721209Y1173629D01*
X723119Y1172838D01*
X725168Y1172568D01*
X737868D01*
X739917Y1172838D01*
X741827Y1173629D01*
X743466Y1174887D01*
X744725Y1176527D01*
X745516Y1178437D01*
X745786Y1180486D01*
X745516Y1182535D01*
X744725Y1184445D01*
X743466Y1186084D01*
X741827Y1187343D01*
X739917Y1188134D01*
X737868Y1188403D01*
D02*
G37*
G36*
X510768Y1175950D02*
X508810Y1175693D01*
X506985Y1174937D01*
X505419Y1173735D01*
X504216Y1172168D01*
X503461Y1170344D01*
X503203Y1168386D01*
X503461Y1166428D01*
X504216Y1164603D01*
X505419Y1163037D01*
X506985Y1161834D01*
X508810Y1161079D01*
X510768Y1160821D01*
X512726Y1161079D01*
X514550Y1161834D01*
X516117Y1163037D01*
X517319Y1164603D01*
X518075Y1166428D01*
X518332Y1168386D01*
X518075Y1170344D01*
X517319Y1172168D01*
X516117Y1173735D01*
X514550Y1174937D01*
X512726Y1175693D01*
X510768Y1175950D01*
D02*
G37*
G36*
X560768D02*
X558810Y1175693D01*
X556985Y1174937D01*
X555419Y1173735D01*
X554216Y1172168D01*
X553461Y1170344D01*
X553203Y1168386D01*
X553461Y1166428D01*
X554216Y1164603D01*
X555419Y1163037D01*
X556985Y1161834D01*
X558810Y1161079D01*
X560768Y1160821D01*
X562726Y1161079D01*
X564550Y1161834D01*
X566117Y1163037D01*
X567319Y1164603D01*
X568075Y1166428D01*
X568332Y1168386D01*
X568075Y1170344D01*
X567319Y1172168D01*
X566117Y1173735D01*
X564550Y1174937D01*
X562726Y1175693D01*
X560768Y1175950D01*
D02*
G37*
G36*
X469498Y1170541D02*
X468411Y1170325D01*
X466413Y1168990D01*
X465078Y1166992D01*
X464862Y1165906D01*
X469498D01*
Y1170541D01*
D02*
G37*
G36*
X820068Y1188403D02*
X807368D01*
X805319Y1188134D01*
X803409Y1187343D01*
X801769Y1186084D01*
X800511Y1184445D01*
X799720Y1182535D01*
X799450Y1180486D01*
X799720Y1178437D01*
X800511Y1176527D01*
X801769Y1174887D01*
X803409Y1173629D01*
X805319Y1172838D01*
X807368Y1172568D01*
X820068D01*
X822117Y1172838D01*
X824027Y1173629D01*
X825666Y1174887D01*
X826925Y1176527D01*
X827716Y1178437D01*
X827986Y1180486D01*
X827716Y1182535D01*
X826925Y1184445D01*
X825666Y1186084D01*
X824027Y1187343D01*
X822117Y1188134D01*
X820068Y1188403D01*
D02*
G37*
G36*
X883608Y1200534D02*
X881063Y1200199D01*
X878691Y1199217D01*
X876654Y1197654D01*
X875091Y1195617D01*
X874109Y1193245D01*
X873774Y1190700D01*
X874109Y1188155D01*
X875091Y1185783D01*
X876654Y1183746D01*
X878691Y1182183D01*
X881063Y1181201D01*
X883608Y1180866D01*
X886153Y1181201D01*
X888525Y1182183D01*
X890562Y1183746D01*
X892125Y1185783D01*
X893107Y1188155D01*
X893442Y1190700D01*
X893107Y1193245D01*
X892125Y1195617D01*
X890562Y1197654D01*
X888525Y1199217D01*
X886153Y1200199D01*
X883608Y1200534D01*
D02*
G37*
G36*
X654498Y1188176D02*
X646228D01*
Y1181906D01*
X654498D01*
Y1188176D01*
D02*
G37*
G36*
X665308D02*
X657038D01*
Y1181906D01*
X665308D01*
Y1188176D01*
D02*
G37*
G36*
Y1179366D02*
X657038D01*
Y1173096D01*
X665308D01*
Y1179366D01*
D02*
G37*
G36*
X426408Y1200534D02*
X423863Y1200199D01*
X421491Y1199217D01*
X419454Y1197654D01*
X417891Y1195617D01*
X416909Y1193245D01*
X416574Y1190700D01*
X416909Y1188155D01*
X417891Y1185783D01*
X419454Y1183746D01*
X421491Y1182183D01*
X423863Y1181201D01*
X426408Y1180866D01*
X428953Y1181201D01*
X431325Y1182183D01*
X433362Y1183746D01*
X434925Y1185783D01*
X435907Y1188155D01*
X436242Y1190700D01*
X435907Y1193245D01*
X434925Y1195617D01*
X433362Y1197654D01*
X431325Y1199217D01*
X428953Y1200199D01*
X426408Y1200534D01*
D02*
G37*
G36*
X858208D02*
X855663Y1200199D01*
X853291Y1199217D01*
X851254Y1197654D01*
X849691Y1195617D01*
X848709Y1193245D01*
X848374Y1190700D01*
X848709Y1188155D01*
X849691Y1185783D01*
X851254Y1183746D01*
X853291Y1182183D01*
X855663Y1181201D01*
X858208Y1180866D01*
X860753Y1181201D01*
X863125Y1182183D01*
X865162Y1183746D01*
X866725Y1185783D01*
X867707Y1188155D01*
X868042Y1190700D01*
X867707Y1193245D01*
X866725Y1195617D01*
X865162Y1197654D01*
X863125Y1199217D01*
X860753Y1200199D01*
X858208Y1200534D01*
D02*
G37*
%LPD*%
G36*
X776728Y974586D02*
X771873D01*
Y1017569D01*
X776728D01*
Y974586D01*
D02*
G37*
G36*
X768589Y1017521D02*
X768541Y1017473D01*
X768494Y1017378D01*
X768351Y1017140D01*
X768208Y1016854D01*
X767970Y1016426D01*
X767684Y1015855D01*
X767637Y1015760D01*
X767542Y1015569D01*
X767351Y1015189D01*
X767113Y1014665D01*
X766828Y1014046D01*
X766495Y1013285D01*
X766114Y1012428D01*
X765733Y1011476D01*
Y1011428D01*
X765685Y1011333D01*
X765638Y1011190D01*
X765543Y1011000D01*
X765447Y1010762D01*
X765352Y1010476D01*
X765114Y1009715D01*
X764781Y1008810D01*
X764448Y1007763D01*
X764115Y1006621D01*
X763781Y1005383D01*
Y1005335D01*
X763734Y1005240D01*
X763686Y1005050D01*
X763639Y1004812D01*
X763591Y1004479D01*
X763496Y1004145D01*
X763400Y1003717D01*
X763305Y1003241D01*
X763163Y1002242D01*
X762972Y1001051D01*
X762877Y999814D01*
X762782Y998529D01*
X767970D01*
Y994102D01*
X762544D01*
Y994007D01*
Y993912D01*
X762591Y993769D01*
Y993626D01*
X762639Y993388D01*
Y993055D01*
X762686Y992674D01*
X762734Y992198D01*
X762782Y991627D01*
X762829Y990960D01*
X762924Y990151D01*
X763020Y989247D01*
X763115Y988200D01*
Y988152D01*
X763163Y987914D01*
X763210Y987628D01*
X763305Y987152D01*
X763400Y986581D01*
X763591Y985915D01*
X763781Y985153D01*
X764019Y984296D01*
X764352Y983344D01*
X764733Y982297D01*
X765162Y981155D01*
X765685Y979965D01*
X766304Y978727D01*
X766971Y977394D01*
X767732Y976014D01*
X768589Y974586D01*
X763400D01*
X763353Y974634D01*
X763305Y974777D01*
X763163Y974967D01*
X762972Y975348D01*
X762829Y975586D01*
X762639Y975919D01*
X762449Y976252D01*
X762210Y976681D01*
X761925Y977157D01*
X761592Y977728D01*
Y977775D01*
X761497Y977870D01*
X761401Y978061D01*
X761306Y978299D01*
X761116Y978632D01*
X760973Y979013D01*
X760735Y979489D01*
X760545Y980012D01*
X760306Y980584D01*
X760069Y981250D01*
X759830Y981964D01*
X759545Y982773D01*
X759307Y983630D01*
X759069Y984534D01*
X758831Y985486D01*
X758593Y986534D01*
Y986581D01*
X758545Y986819D01*
X758498Y987105D01*
X758402Y987533D01*
X758355Y988104D01*
X758260Y988771D01*
X758165Y989532D01*
X758069Y990389D01*
X757974Y991341D01*
X757927Y992341D01*
X757879Y993483D01*
X757831Y994673D01*
Y995911D01*
Y997243D01*
X757879Y998671D01*
X757974Y1000099D01*
Y1000195D01*
X758022Y1000480D01*
X758069Y1000909D01*
X758165Y1001480D01*
X758260Y1002242D01*
X758402Y1003098D01*
X758641Y1004098D01*
X758878Y1005240D01*
X759212Y1006478D01*
X759593Y1007858D01*
X760021Y1009286D01*
X760545Y1010809D01*
X761116Y1012428D01*
X761782Y1014094D01*
X762544Y1015807D01*
X763400Y1017569D01*
X768589D01*
Y1017521D01*
D02*
G37*
G36*
X758402D02*
X758355Y1017473D01*
X758307Y1017330D01*
X758212Y1017140D01*
X758069Y1016902D01*
X757974Y1016617D01*
X757641Y1015950D01*
X757260Y1015093D01*
X756832Y1014141D01*
X756403Y1012999D01*
X755927Y1011809D01*
X755451Y1010476D01*
X754975Y1009096D01*
X754499Y1007668D01*
X754071Y1006145D01*
X753690Y1004669D01*
X753405Y1003098D01*
X753119Y1001623D01*
X752976Y1000099D01*
Y1000004D01*
Y999766D01*
X752929Y999338D01*
Y998767D01*
X752881Y998100D01*
Y997291D01*
X752833Y996434D01*
Y995482D01*
Y994435D01*
X752881Y993340D01*
X752976Y991056D01*
X753214Y988771D01*
X753405Y987628D01*
X753595Y986534D01*
Y986486D01*
X753643Y986296D01*
X753738Y986010D01*
X753833Y985582D01*
X753928Y985106D01*
X754071Y984582D01*
X754214Y983963D01*
X754404Y983297D01*
X754833Y981916D01*
X755356Y980441D01*
X755927Y979013D01*
X756261Y978346D01*
X756594Y977728D01*
Y977680D01*
X756689Y977585D01*
X756784Y977442D01*
X756879Y977252D01*
X757165Y976728D01*
X757498Y976157D01*
X757831Y975586D01*
X758117Y975062D01*
X758260Y974872D01*
X758307Y974729D01*
X758402Y974634D01*
Y974586D01*
X709470Y974634D01*
Y1017569D01*
X758402D01*
Y1017521D01*
D02*
G37*
G36*
X799148D02*
X799100Y1017473D01*
X799053Y1017378D01*
X798910Y1017140D01*
X798767Y1016854D01*
X798529Y1016426D01*
X798243Y1015855D01*
X798196Y1015760D01*
X798101Y1015569D01*
X797910Y1015189D01*
X797672Y1014665D01*
X797339Y1014046D01*
X797006Y1013285D01*
X796625Y1012428D01*
X796244Y1011476D01*
Y1011428D01*
X796197Y1011333D01*
X796149Y1011190D01*
X796054Y1011000D01*
X795959Y1010762D01*
X795863Y1010476D01*
X795625Y1009715D01*
X795292Y1008810D01*
X794959Y1007763D01*
X794626Y1006621D01*
X794293Y1005383D01*
Y1005335D01*
X794245Y1005240D01*
X794197Y1005050D01*
X794150Y1004812D01*
X794102Y1004479D01*
X794007Y1004145D01*
X793912Y1003717D01*
X793817Y1003241D01*
X793674Y1002242D01*
X793484Y1001051D01*
X793388Y999814D01*
X793293Y998529D01*
X798481D01*
Y994054D01*
X793198D01*
Y974586D01*
X788248D01*
Y996053D01*
Y996101D01*
Y996244D01*
Y996529D01*
X788295Y996863D01*
Y997291D01*
X788343Y997815D01*
X788390Y998386D01*
X788438Y999052D01*
X788533Y999766D01*
X788628Y1000528D01*
X788724Y1001337D01*
X788866Y1002242D01*
X789152Y1004098D01*
X789580Y1006049D01*
Y1006097D01*
X789628Y1006287D01*
X789723Y1006573D01*
X789818Y1007001D01*
X789961Y1007477D01*
X790152Y1008096D01*
X790342Y1008763D01*
X790628Y1009524D01*
X790865Y1010333D01*
X791199Y1011238D01*
X791580Y1012190D01*
X791960Y1013189D01*
X792865Y1015331D01*
X793912Y1017569D01*
X799148D01*
Y1017521D01*
D02*
G37*
G36*
X783345D02*
X783440Y1017378D01*
X783583Y1017140D01*
X783773Y1016854D01*
X783963Y1016474D01*
X784202Y1015998D01*
X784487Y1015522D01*
X784773Y1014950D01*
X785344Y1013665D01*
X785867Y1012333D01*
X786296Y1010857D01*
X786439Y1010095D01*
X786534Y1009381D01*
Y1009334D01*
Y1009191D01*
X786581Y1009001D01*
Y1008715D01*
Y1008382D01*
X786629Y1008001D01*
Y1007525D01*
Y1007049D01*
Y1006002D01*
X786534Y1004812D01*
X786391Y1003622D01*
X786153Y1002479D01*
Y1002432D01*
X786105Y1002337D01*
X786058Y1002194D01*
X786010Y1002003D01*
X785867Y1001432D01*
X785677Y1000766D01*
X785391Y1000052D01*
X785106Y999243D01*
X784725Y998481D01*
X784344Y997767D01*
X784297Y997672D01*
X784202Y997482D01*
X784011Y997196D01*
X783821Y996910D01*
X783630Y996577D01*
X783440Y996292D01*
X783345Y996101D01*
X783297Y996006D01*
X778109D01*
X778156Y996053D01*
X778252Y996196D01*
X778394Y996387D01*
X778585Y996720D01*
X778823Y997053D01*
X779108Y997482D01*
X779394Y997958D01*
X779680Y998529D01*
X780298Y999719D01*
X780822Y1001051D01*
X781298Y1002479D01*
X781441Y1003193D01*
X781536Y1003907D01*
Y1003955D01*
Y1004098D01*
X781584Y1004288D01*
Y1004574D01*
Y1004907D01*
X781631Y1005288D01*
Y1005764D01*
Y1006240D01*
Y1007287D01*
X781536Y1008477D01*
X781393Y1009667D01*
X781155Y1010809D01*
Y1010857D01*
X781108Y1010952D01*
X781060Y1011095D01*
X781012Y1011333D01*
X780870Y1011857D01*
X780632Y1012571D01*
X780346Y1013332D01*
X780013Y1014141D01*
X779680Y1014950D01*
X779251Y1015712D01*
X779204Y1015807D01*
X779061Y1015998D01*
X778870Y1016283D01*
X778680Y1016664D01*
X778490Y1016997D01*
X778299Y1017283D01*
X778156Y1017473D01*
X778109Y1017569D01*
X783297D01*
X783345Y1017521D01*
D02*
G37*
G36*
X860980Y974586D02*
X817378D01*
X817331Y974681D01*
X817188Y974919D01*
X816950Y975348D01*
X816617Y975871D01*
X816236Y976538D01*
X815808Y977347D01*
X815332Y978204D01*
X814856Y979156D01*
X814380Y980203D01*
X813904Y981298D01*
X812999Y983582D01*
X812618Y984725D01*
X812333Y985867D01*
X812047Y987057D01*
X811905Y988152D01*
Y988200D01*
Y988390D01*
X811857Y988676D01*
X811809Y989056D01*
X811762Y989532D01*
X811714Y990008D01*
X811619Y991103D01*
X811524Y992198D01*
X811476Y992674D01*
X811429Y993150D01*
X811381Y993531D01*
Y993816D01*
X811333Y994007D01*
Y994054D01*
Y1017569D01*
X860980D01*
Y974586D01*
D02*
G37*
G36*
X806288Y994054D02*
Y993959D01*
Y993864D01*
X806335Y993721D01*
Y993578D01*
X806383Y993340D01*
Y993007D01*
X806431Y992626D01*
X806478Y992150D01*
X806526Y991579D01*
X806573Y990913D01*
X806668Y990104D01*
X806764Y989199D01*
X806859Y988152D01*
Y988104D01*
X806907Y987866D01*
X806954Y987581D01*
X807049Y987105D01*
X807144Y986581D01*
X807335Y985915D01*
X807525Y985106D01*
X807763Y984249D01*
X808096Y983297D01*
X808477Y982250D01*
X808906Y981155D01*
X809429Y979965D01*
X810048Y978680D01*
X810714Y977394D01*
X811476Y976014D01*
X812333Y974586D01*
X807097D01*
X807049Y974681D01*
X807002Y974777D01*
X806954Y974872D01*
X806859Y975062D01*
X806716Y975300D01*
X806573Y975633D01*
X806383Y976014D01*
X806145Y976442D01*
X805859Y977014D01*
X805526Y977680D01*
X805098Y978442D01*
X804669Y979346D01*
X804146Y980346D01*
X804098Y980393D01*
X804003Y980631D01*
X803860Y980964D01*
X803717Y981393D01*
X803479Y981964D01*
X803241Y982678D01*
X803003Y983535D01*
X802718Y984487D01*
X802480Y985534D01*
X802242Y986724D01*
X802004Y988009D01*
X801813Y989390D01*
X801623Y990913D01*
X801528Y992531D01*
X801480Y994245D01*
Y996053D01*
Y1017569D01*
X806288D01*
Y994054D01*
D02*
G37*
D10*
X634518Y1110836D02*
D03*
Y1120886D02*
D03*
Y1115886D02*
D03*
Y1125886D02*
D03*
Y1135886D02*
D03*
Y1130886D02*
D03*
X674518Y1110886D02*
D03*
Y1115886D02*
D03*
Y1125886D02*
D03*
Y1120886D02*
D03*
Y1135886D02*
D03*
Y1130886D02*
D03*
D11*
X647018Y1102886D02*
D03*
X642018D02*
D03*
X652018Y1143386D02*
D03*
X642018D02*
D03*
X647018D02*
D03*
X662018Y1102886D02*
D03*
X652018D02*
D03*
X657018D02*
D03*
X667018D02*
D03*
Y1143386D02*
D03*
X657018D02*
D03*
X662018D02*
D03*
D12*
X654518Y1019636D02*
D03*
D13*
X677268Y1048136D02*
D03*
X670768D02*
D03*
X664268D02*
D03*
X657768D02*
D03*
X651268D02*
D03*
X644768D02*
D03*
X638268D02*
D03*
X631768D02*
D03*
X677268Y991136D02*
D03*
X670768D02*
D03*
X664268D02*
D03*
X657768D02*
D03*
X651268D02*
D03*
X644768D02*
D03*
X638268D02*
D03*
X631768D02*
D03*
D14*
X655768Y1180636D02*
D03*
Y1198636D02*
D03*
X828268Y1269386D02*
D03*
Y1287386D02*
D03*
X480768Y1269386D02*
D03*
Y1287386D02*
D03*
D15*
X645018Y1075886D02*
X648268D01*
X649210D01*
X655364Y1082039D01*
X641268Y1079636D02*
X645018Y1075886D01*
X625768Y1135886D02*
X634518D01*
X650268Y1049136D02*
Y1073886D01*
Y1049136D02*
X651268Y1048136D01*
D16*
Y1022886D02*
Y1048136D01*
X718268Y1049736D02*
Y1058386D01*
Y1049636D02*
Y1049736D01*
X719818D01*
X717768D02*
X718268D01*
X518268Y902136D02*
X522018D01*
X635768Y1077136D02*
X644768Y1068136D01*
X616518Y1077136D02*
X635768D01*
X617268Y1106386D02*
X627768Y1095886D01*
X734518Y1074636D02*
Y1129686D01*
X718268Y1058386D02*
X734518Y1074636D01*
X560768Y1106386D02*
X617268D01*
X638268Y1048136D02*
Y1060886D01*
X634518Y1064636D02*
X638268Y1060886D01*
X476272Y1064636D02*
X634518D01*
X451808Y1089100D02*
X476272Y1064636D01*
X451808Y1038300D02*
X461644Y1048136D01*
X631768D01*
X644768D02*
Y1068136D01*
X670768Y1058386D02*
X677018Y1064636D01*
X670768Y1048136D02*
Y1058386D01*
X677268Y1053886D02*
X682518Y1059136D01*
X677268Y1048136D02*
Y1053886D01*
X664268Y1061886D02*
X678268Y1075886D01*
X664268Y1048136D02*
Y1061886D01*
X839518Y930036D02*
X866168Y956686D01*
X883268D01*
D17*
X482018Y1242136D02*
X513268D01*
X457253Y1266900D02*
X482018Y1242136D01*
X451808Y1266900D02*
X457253D01*
X523268Y1033386D02*
X537018D01*
X455768Y965886D02*
X523268Y1033386D01*
X455768Y934636D02*
Y965886D01*
X655768Y1167136D02*
X703268D01*
X653268Y1164636D02*
X655768Y1167136D01*
X612018Y1164636D02*
X653268D01*
X537018Y1077136D02*
X569518D01*
X427018Y905886D02*
X455768Y934636D01*
D18*
X623268Y991136D02*
X631768D01*
X511018D02*
X623268D01*
X465768Y1215886D02*
X483268Y1233386D01*
X465768Y1185797D02*
Y1215886D01*
X458357Y1178386D02*
X465768Y1185797D01*
X483268Y1233386D02*
X513357D01*
X519518Y1239547D01*
X438268Y1178386D02*
X458357D01*
X519518Y1239636D02*
X539768Y1259886D01*
X519518Y1239547D02*
Y1239636D01*
X539768Y1259886D02*
X565768D01*
X480268Y1004636D02*
X488268Y1012636D01*
Y1040886D01*
X403268Y1086840D02*
X426408Y1063700D01*
X403268Y1086840D02*
Y1140886D01*
X414518Y1152136D01*
X610768D01*
X615768Y1157136D01*
X643268D01*
X647018Y1153386D01*
Y1143386D02*
Y1153386D01*
X477018Y1143386D02*
X642018D01*
X505768Y959636D02*
X535568D01*
X505768Y959636D02*
X505768Y959636D01*
X496618Y959636D02*
X505768D01*
X489518Y952536D02*
X496618Y959636D01*
X489518Y969636D02*
X511018Y991136D01*
X499918Y902136D02*
X518268D01*
X469518Y932536D02*
X499918Y902136D01*
X489518Y952536D02*
Y969636D01*
X469518Y932536D02*
X489518Y952536D01*
X545768Y1088386D02*
X553268D01*
X519654Y1114500D02*
X545768Y1088386D01*
X451808Y1114500D02*
X519654D01*
X426408D02*
X439044Y1127136D01*
X515768D01*
X548268Y1094636D01*
X562018D01*
X633268Y1087136D02*
X638268D01*
X627768Y1092636D02*
X633268Y1087136D01*
X627768Y1092636D02*
Y1095886D01*
X679018Y1158386D02*
X680768Y1160136D01*
X670768Y1158386D02*
X679018D01*
X662018Y1149636D02*
X670768Y1158386D01*
X662018Y1143386D02*
Y1149636D01*
X647018Y1120886D02*
X657018Y1110886D01*
X674518D01*
X634518Y1125886D02*
X642018D01*
X647018Y1120886D01*
Y1102886D02*
Y1120886D01*
X638268Y1087136D02*
X647018Y1095886D01*
Y1102886D01*
X650768Y1086636D02*
X657018Y1092886D01*
Y1102886D01*
X426408Y1166526D02*
X438268Y1178386D01*
X426408Y1165300D02*
Y1166526D01*
X664268Y977310D02*
X669518Y972060D01*
Y962136D02*
Y972060D01*
Y962136D02*
X683268Y948386D01*
X664268Y977310D02*
Y991136D01*
X623268Y948386D02*
X640768Y965886D01*
Y973386D01*
X644768Y977386D01*
Y991136D01*
X534268Y1281886D02*
X555768D01*
X521768Y1269386D02*
X534268Y1281886D01*
X480768Y1269386D02*
X521768D01*
X555768Y1281886D02*
X569768Y1295886D01*
X788268D01*
X814768Y1269386D01*
X828268D01*
X682018Y1110886D02*
X688268Y1117136D01*
X674518Y1110886D02*
X682018D01*
D19*
X648268Y973386D02*
X651268Y976386D01*
X648268Y943386D02*
Y973386D01*
X651268Y976386D02*
Y991136D01*
X674518Y974636D02*
X678268D01*
X660768Y942136D02*
Y973386D01*
X657768Y976386D02*
X660768Y973386D01*
X688268Y1080886D02*
X691268D01*
X678268Y1090886D02*
X688268Y1080886D01*
X657768Y1048136D02*
Y1070386D01*
X670768Y978386D02*
X674518Y974636D01*
X670768Y978386D02*
Y991136D01*
X657768Y976386D02*
Y991136D01*
X630768Y973386D02*
X638268Y980886D01*
Y991136D01*
D20*
X703268Y1167136D02*
Y1189636D01*
Y1115886D02*
Y1167136D01*
X708268Y929636D02*
Y944636D01*
X678268Y974636D02*
X708268Y944636D01*
X660768Y942136D02*
X673268Y929636D01*
X637018Y932136D02*
X648268Y943386D01*
X637018Y929636D02*
Y932136D01*
X658268Y1070886D02*
X678268Y1090886D01*
X703268Y1115886D01*
X673268Y1219636D02*
X703268Y1189636D01*
X673268Y1219636D02*
Y1220886D01*
X602018Y943386D02*
X630768Y972136D01*
X602018Y929636D02*
Y943386D01*
D21*
X646768Y1173636D02*
Y1173636D01*
X819268Y1262386D02*
Y1262386D01*
X471768Y1262386D02*
Y1262386D01*
D22*
X637018Y929636D02*
D03*
X602018D02*
D03*
X708268D02*
D03*
X673268D02*
D03*
D23*
X638268Y1222886D02*
D03*
X673268D02*
D03*
D24*
X731518Y1205886D02*
D03*
D25*
X813718Y1129686D02*
D03*
Y1155086D02*
D03*
Y1180486D02*
D03*
Y1205886D02*
D03*
X731518Y1129686D02*
D03*
Y1155086D02*
D03*
Y1180486D02*
D03*
D26*
X510768Y1168386D02*
D03*
X560768D02*
D03*
D27*
X556368Y927536D02*
D03*
X543668Y902136D02*
D03*
X530968Y927536D02*
D03*
X518268Y902136D02*
D03*
X839518Y930036D02*
D03*
Y955436D02*
D03*
X469518Y932536D02*
D03*
Y957936D02*
D03*
X883268Y931286D02*
D03*
Y956686D02*
D03*
X427018Y931286D02*
D03*
Y956686D02*
D03*
D28*
X504268Y920136D02*
D03*
D29*
X839518Y904636D02*
D03*
X469518Y907136D02*
D03*
X883268Y905886D02*
D03*
X427018D02*
D03*
D30*
X883608Y1038300D02*
D03*
Y1063700D02*
D03*
Y1089100D02*
D03*
Y1165300D02*
D03*
Y1139900D02*
D03*
Y1114500D02*
D03*
Y1241500D02*
D03*
Y1216100D02*
D03*
Y1190700D02*
D03*
X858208Y1266900D02*
D03*
Y1190700D02*
D03*
Y1216100D02*
D03*
Y1241500D02*
D03*
Y1114500D02*
D03*
Y1139900D02*
D03*
Y1165300D02*
D03*
Y1089100D02*
D03*
Y1063700D02*
D03*
Y1038300D02*
D03*
X451808D02*
D03*
Y1063700D02*
D03*
Y1089100D02*
D03*
Y1165300D02*
D03*
Y1139900D02*
D03*
Y1114500D02*
D03*
Y1241500D02*
D03*
Y1216100D02*
D03*
Y1190700D02*
D03*
X426408Y1266900D02*
D03*
Y1190700D02*
D03*
Y1216100D02*
D03*
Y1241500D02*
D03*
Y1114500D02*
D03*
Y1139900D02*
D03*
Y1165300D02*
D03*
Y1089100D02*
D03*
Y1063700D02*
D03*
Y1038300D02*
D03*
D31*
X883608Y1266900D02*
D03*
X451808D02*
D03*
D32*
X658268Y1128386D02*
D03*
X709518Y1207136D02*
D03*
X674518Y1195886D02*
D03*
X717018Y1142136D02*
D03*
X718268Y1104636D02*
D03*
X752018Y1057136D02*
D03*
X724518Y1087136D02*
D03*
X688268Y1028386D02*
D03*
X825768Y1242136D02*
D03*
X623268Y1133386D02*
D03*
X629518Y1193386D02*
D03*
X618268Y1200886D02*
D03*
X610768Y1229636D02*
D03*
Y1118386D02*
D03*
X579518Y1072136D02*
D03*
X592018Y1038386D02*
D03*
X648268Y1075886D02*
D03*
X497018Y938386D02*
D03*
X485768Y898386D02*
D03*
Y979636D02*
D03*
X455768Y992136D02*
D03*
X422018Y987136D02*
D03*
X408268Y914636D02*
D03*
X410768Y1137136D02*
D03*
X470768Y1164636D02*
D03*
X412018Y1229636D02*
D03*
X479518Y1203386D02*
D03*
X490768Y1252136D02*
D03*
X472018Y1235886D02*
D03*
X410768Y1292136D02*
D03*
X897018D02*
D03*
X734938Y909636D02*
D03*
X765768Y967136D02*
D03*
X802018Y900886D02*
D03*
X877018Y1008386D02*
D03*
X822018Y963386D02*
D03*
X904518Y899636D02*
D03*
X890768Y979636D02*
D03*
X814518Y933386D02*
D03*
X623268Y991136D02*
D03*
X513268Y1242136D02*
D03*
X479518Y1004636D02*
D03*
X488268Y1040886D02*
D03*
X477018Y1143386D02*
D03*
X535568Y959636D02*
D03*
X505668Y959636D02*
D03*
X553268Y1088386D02*
D03*
X562018Y1094636D02*
D03*
X616518Y1077136D02*
D03*
X627768Y1095886D02*
D03*
X680768Y1158386D02*
D03*
X612018Y1164636D02*
D03*
X569518Y1077136D02*
D03*
X537018D02*
D03*
Y1033386D02*
D03*
X560668Y1105886D02*
D03*
X650768Y1086636D02*
D03*
X565768Y1259886D02*
D03*
X623268Y948386D02*
D03*
X683268D02*
D03*
X480768Y1287386D02*
D03*
X555768Y1281886D02*
D03*
X828268Y1287386D02*
D03*
X688268Y1117136D02*
D03*
X655768Y1198636D02*
D03*
X684518Y1059636D02*
D03*
X677018Y1064636D02*
D03*
X678268Y1075886D02*
D03*
X691268Y1080886D02*
D03*
X718268Y1049636D02*
D03*
D33*
X660518Y1025636D02*
D03*
Y1013636D02*
D03*
X648518Y1025636D02*
D03*
Y1013636D02*
D03*
M02*
